<svg id="svg" version="1.1" xmlns="http://www.w3.org/2000/svg" xmlns:xlink="http://www.w3.org/1999/xlink" width="400"
    height="400" viewBox="0, 0, 400,400">
    <g id="svgg">
        <circle r="170" cx="200" cy="200" fill="white" />
        <path id="path0"
            d="M193.000 27.235 C 180.829 27.940,174.922 28.488,171.800 29.199 C 170.040 29.600,167.344 30.053,165.809 30.206 C 164.275 30.358,162.198 30.807,161.195 31.202 C 160.191 31.598,158.297 32.052,156.985 32.213 C 155.673 32.373,153.790 32.816,152.800 33.196 C 151.810 33.575,150.192 34.011,149.203 34.163 C 148.215 34.316,146.685 34.777,145.803 35.187 C 144.922 35.598,143.390 36.202,142.400 36.530 C 138.432 37.842,136.527 38.541,135.000 39.247 C 134.120 39.654,132.656 40.171,131.747 40.396 C 130.837 40.622,129.885 41.057,129.630 41.364 C 129.376 41.670,128.680 42.037,128.084 42.178 C 127.094 42.412,119.415 45.967,118.000 46.847 C 117.670 47.052,116.680 47.594,115.800 48.051 C 114.920 48.508,113.375 49.359,112.367 49.941 C 111.358 50.523,109.744 51.429,108.779 51.953 C 107.814 52.477,106.569 53.218,106.012 53.599 C 105.456 53.980,103.944 54.991,102.654 55.846 C 101.364 56.701,99.744 57.804,99.054 58.297 C 93.921 61.969,92.140 63.276,89.549 65.272 C 87.927 66.522,85.880 68.190,85.000 68.980 C 84.120 69.769,82.441 71.266,81.270 72.307 C 74.039 78.731,65.898 87.502,60.200 95.008 C 59.100 96.456,57.899 97.979,57.530 98.391 C 57.162 98.802,56.639 99.558,56.368 100.070 C 56.098 100.581,55.094 101.919,54.138 103.043 C 53.182 104.167,52.397 105.247,52.393 105.443 C 52.386 105.785,50.821 108.302,49.315 110.393 C 48.922 110.939,48.385 111.881,48.122 112.486 C 47.859 113.091,47.445 113.814,47.201 114.093 C 46.680 114.688,45.635 116.585,44.241 119.463 C 43.692 120.598,43.073 121.631,42.866 121.759 C 42.658 121.888,42.368 122.475,42.220 123.065 C 42.072 123.654,41.614 124.565,41.203 125.087 C 40.792 125.610,40.329 126.614,40.176 127.319 C 40.022 128.023,39.559 129.029,39.148 129.554 C 38.737 130.079,38.400 130.817,38.400 131.194 C 38.400 131.572,37.950 132.727,37.400 133.762 C 36.850 134.796,36.400 135.865,36.400 136.137 C 36.400 136.408,36.034 137.344,35.586 138.215 C 35.138 139.087,34.572 140.610,34.327 141.600 C 34.082 142.590,33.573 144.030,33.195 144.800 C 32.817 145.570,32.378 146.914,32.220 147.786 C 32.061 148.659,31.666 149.886,31.341 150.514 C 31.017 151.142,30.489 153.023,30.170 154.694 C 29.850 156.365,29.421 157.934,29.216 158.181 C 29.011 158.427,28.545 160.513,28.180 162.815 C 27.815 165.117,27.358 167.298,27.164 167.663 C 26.970 168.028,26.547 170.818,26.224 173.863 C 25.901 176.908,25.404 180.030,25.119 180.800 C 24.723 181.869,24.600 186.407,24.600 200.000 C 24.600 213.593,24.723 218.131,25.119 219.200 C 25.404 219.970,25.901 223.092,26.224 226.137 C 26.547 229.182,26.970 231.972,27.163 232.337 C 27.357 232.702,27.791 234.710,28.128 236.800 C 28.464 238.890,29.006 241.230,29.332 242.000 C 29.657 242.770,30.055 244.300,30.214 245.400 C 30.374 246.500,30.820 248.030,31.205 248.800 C 31.589 249.570,32.033 251.010,32.191 252.000 C 32.348 252.990,32.723 254.188,33.023 254.663 C 33.324 255.137,33.781 256.397,34.039 257.463 C 34.297 258.528,34.824 259.940,35.211 260.600 C 35.597 261.260,36.044 262.415,36.203 263.166 C 36.362 263.917,36.922 265.339,37.446 266.325 C 37.971 267.312,38.400 268.428,38.400 268.806 C 38.400 269.183,38.749 269.936,39.175 270.478 C 39.602 271.020,40.076 271.989,40.229 272.632 C 40.382 273.274,40.751 274.082,41.049 274.426 C 41.346 274.770,41.798 275.670,42.052 276.426 C 42.306 277.182,42.745 278.070,43.028 278.400 C 43.311 278.730,43.927 279.810,44.396 280.800 C 45.604 283.350,46.684 285.317,47.201 285.907 C 47.445 286.186,47.859 286.909,48.122 287.514 C 48.385 288.119,48.922 289.061,49.315 289.607 C 50.821 291.698,52.386 294.215,52.393 294.557 C 52.397 294.753,53.182 295.833,54.138 296.957 C 55.094 298.081,56.098 299.419,56.368 299.930 C 56.639 300.442,57.162 301.198,57.530 301.609 C 57.899 302.021,59.100 303.544,60.200 304.992 C 64.897 311.179,69.157 315.962,75.683 322.376 C 80.569 327.178,85.679 331.814,88.000 333.549 C 88.770 334.124,89.490 334.688,89.600 334.800 C 89.825 335.031,91.975 336.606,96.400 339.784 C 98.050 340.969,99.760 342.222,100.200 342.569 C 100.640 342.916,101.900 343.764,103.000 344.453 C 104.100 345.143,105.450 346.015,106.000 346.391 C 106.550 346.768,107.630 347.399,108.400 347.794 C 109.170 348.189,109.890 348.646,110.000 348.811 C 110.110 348.975,110.830 349.408,111.600 349.773 C 112.370 350.137,113.900 350.960,115.000 351.600 C 116.100 352.240,117.630 353.047,118.400 353.392 C 119.170 353.738,120.115 354.196,120.500 354.410 C 123.445 356.050,127.780 358.000,128.483 358.000 C 128.823 358.000,129.325 358.269,129.598 358.597 C 129.870 358.926,130.837 359.381,131.747 359.610 C 132.656 359.839,134.120 360.363,135.000 360.774 C 135.880 361.185,137.230 361.647,138.000 361.800 C 138.770 361.953,139.788 362.324,140.263 362.624 C 140.737 362.924,141.997 363.383,143.063 363.644 C 144.128 363.905,145.630 364.425,146.400 364.800 C 147.170 365.176,148.970 365.706,150.400 365.979 C 151.830 366.252,153.207 366.645,153.460 366.853 C 153.713 367.061,155.063 367.408,156.460 367.623 C 157.857 367.839,159.990 368.363,161.200 368.788 C 162.410 369.213,165.108 369.771,167.196 370.027 C 169.284 370.283,171.426 370.658,171.957 370.860 C 178.435 373.322,221.657 373.288,228.163 370.814 C 228.759 370.587,230.991 370.199,233.123 369.950 C 235.256 369.701,237.841 369.169,238.870 368.767 C 239.898 368.365,241.698 367.914,242.870 367.766 C 244.041 367.618,245.720 367.182,246.600 366.798 C 247.480 366.413,249.096 365.969,250.191 365.811 C 251.285 365.653,252.815 365.208,253.591 364.821 C 254.366 364.434,255.872 363.905,256.937 363.644 C 258.003 363.383,259.263 362.924,259.737 362.624 C 260.212 362.324,261.230 361.953,262.000 361.800 C 262.770 361.647,264.120 361.185,265.000 360.774 C 265.880 360.363,267.344 359.839,268.253 359.610 C 269.163 359.381,270.130 358.926,270.402 358.597 C 270.675 358.269,271.177 358.000,271.517 358.000 C 272.229 358.000,276.829 355.926,279.500 354.400 C 279.885 354.180,280.650 353.816,281.200 353.590 C 281.750 353.365,283.280 352.560,284.600 351.801 C 285.920 351.042,287.630 350.127,288.400 349.766 C 289.170 349.405,289.890 348.975,290.000 348.811 C 290.110 348.646,290.830 348.189,291.600 347.794 C 292.370 347.399,293.450 346.768,294.000 346.392 C 294.550 346.016,296.056 345.009,297.346 344.154 C 298.636 343.299,300.256 342.196,300.946 341.703 C 308.897 336.015,312.730 333.108,315.000 331.044 C 315.880 330.245,317.559 328.737,318.730 327.695 C 323.684 323.288,333.479 313.141,336.391 309.400 C 337.075 308.520,338.573 306.597,339.718 305.127 C 340.863 303.657,342.250 301.801,342.800 301.003 C 343.788 299.569,345.938 296.747,346.903 295.618 C 347.176 295.298,347.626 294.578,347.902 294.018 C 348.178 293.458,348.937 292.190,349.588 291.200 C 350.240 290.210,351.156 288.700,351.623 287.844 C 352.091 286.988,352.647 286.088,352.858 285.844 C 353.321 285.309,353.817 284.371,357.265 277.506 C 358.731 274.588,360.043 271.811,360.181 271.336 C 360.318 270.861,360.694 270.254,361.015 269.987 C 361.337 269.720,361.600 269.191,361.600 268.811 C 361.600 268.430,362.022 267.326,362.537 266.356 C 363.053 265.387,363.608 263.875,363.771 262.997 C 363.934 262.118,364.390 260.860,364.785 260.200 C 365.180 259.540,365.630 258.280,365.785 257.400 C 365.940 256.520,366.390 255.260,366.785 254.600 C 367.180 253.940,367.631 252.680,367.788 251.800 C 367.944 250.920,368.396 249.480,368.792 248.600 C 369.188 247.720,369.642 246.010,369.800 244.800 C 369.959 243.590,370.352 241.970,370.674 241.200 C 370.996 240.430,371.529 238.281,371.857 236.424 C 372.185 234.566,372.619 232.737,372.822 232.359 C 373.024 231.981,373.463 229.069,373.797 225.889 C 374.131 222.708,374.629 219.497,374.902 218.753 C 375.631 216.772,375.613 183.174,374.882 181.200 C 374.597 180.430,374.103 177.226,373.785 174.080 C 373.467 170.933,373.029 168.027,372.812 167.622 C 372.595 167.216,372.149 165.226,371.821 163.198 C 371.493 161.170,371.027 159.274,370.786 158.984 C 370.546 158.693,370.095 156.893,369.786 154.983 C 369.477 153.074,369.052 151.304,368.842 151.050 C 368.631 150.797,368.239 149.692,367.971 148.595 C 367.702 147.498,367.170 145.970,366.790 145.200 C 366.409 144.430,365.968 143.170,365.810 142.400 C 365.651 141.630,365.276 140.612,364.976 140.137 C 364.676 139.663,364.212 138.403,363.946 137.337 C 363.680 136.272,363.043 134.608,362.531 133.640 C 362.019 132.673,361.600 131.572,361.600 131.194 C 361.600 130.817,361.251 130.064,360.825 129.522 C 360.398 128.980,359.924 128.011,359.771 127.368 C 359.618 126.726,359.276 125.930,359.012 125.600 C 358.748 125.270,357.647 123.241,356.566 121.090 C 353.812 115.613,353.304 114.671,352.797 114.091 C 352.552 113.811,352.095 112.968,351.782 112.218 C 351.469 111.468,351.027 110.740,350.800 110.600 C 350.574 110.460,349.986 109.622,349.494 108.739 C 347.609 105.350,347.365 104.941,346.892 104.379 C 344.973 102.095,343.600 100.278,343.600 100.021 C 343.600 99.854,343.195 99.245,342.700 98.669 C 342.205 98.093,340.900 96.440,339.800 94.997 C 333.994 87.380,326.396 79.165,319.640 73.200 C 318.021 71.770,316.044 69.993,315.248 69.251 C 314.451 68.508,313.170 67.433,312.400 66.860 C 311.630 66.287,310.081 65.049,308.957 64.109 C 307.833 63.169,306.793 62.400,306.645 62.400 C 306.498 62.400,305.257 61.541,303.889 60.491 C 301.448 58.619,300.149 57.689,298.050 56.310 C 297.472 55.931,296.730 55.434,296.400 55.207 C 294.091 53.615,291.352 52.000,290.962 52.000 C 290.707 52.000,290.272 51.728,289.996 51.395 C 289.720 51.063,288.753 50.432,287.847 49.994 C 286.941 49.555,285.300 48.669,284.200 48.025 C 283.100 47.380,281.930 46.732,281.600 46.585 C 281.270 46.437,279.200 45.449,277.000 44.389 C 274.800 43.329,272.550 42.336,272.000 42.183 C 271.450 42.030,270.703 41.645,270.340 41.327 C 269.977 41.009,268.752 40.504,267.618 40.205 C 266.483 39.905,265.316 39.463,265.025 39.221 C 264.734 38.979,263.479 38.516,262.237 38.193 C 260.995 37.869,259.579 37.351,259.090 37.042 C 258.600 36.732,257.570 36.353,256.800 36.200 C 256.030 36.047,254.983 35.657,254.472 35.333 C 253.962 35.010,252.252 34.481,250.672 34.158 C 249.093 33.834,247.260 33.327,246.600 33.030 C 245.940 32.733,244.327 32.362,243.015 32.206 C 241.703 32.049,239.813 31.602,238.815 31.212 C 237.817 30.821,235.256 30.299,233.123 30.050 C 230.991 29.801,228.761 29.413,228.168 29.188 C 226.706 28.632,216.818 27.722,209.000 27.424 C 205.480 27.290,201.790 27.114,200.800 27.034 C 199.810 26.953,196.300 27.044,193.000 27.235 M216.400 41.600 C 221.130 42.044,226.745 42.766,228.877 43.204 C 231.009 43.642,233.119 44.000,233.565 44.000 C 234.010 44.000,235.686 44.424,237.288 44.943 C 238.889 45.461,241.137 46.006,242.282 46.154 C 243.427 46.302,245.137 46.774,246.082 47.203 C 247.027 47.631,248.160 47.988,248.600 47.995 C 249.040 48.002,250.300 48.450,251.400 48.991 C 252.500 49.532,253.760 49.982,254.200 49.991 C 254.640 50.000,255.900 50.450,257.000 50.991 C 258.100 51.532,259.342 51.981,259.760 51.987 C 260.477 51.999,261.763 52.553,267.356 55.260 C 268.652 55.887,269.935 56.400,270.207 56.400 C 270.479 56.400,270.911 56.652,271.167 56.961 C 271.423 57.269,272.103 57.639,272.677 57.784 C 273.634 58.024,277.527 60.096,281.138 62.288 C 281.942 62.776,283.341 63.539,284.247 63.983 C 285.153 64.427,286.120 65.063,286.396 65.395 C 286.672 65.728,287.101 66.003,287.349 66.007 C 287.787 66.014,290.834 67.902,291.955 68.860 C 292.260 69.121,293.610 70.069,294.955 70.967 C 296.299 71.865,297.695 72.869,298.057 73.200 C 298.418 73.530,299.479 74.340,300.415 75.000 C 307.848 80.243,322.096 94.291,328.004 102.200 C 329.318 103.960,330.671 105.760,331.011 106.200 C 334.245 110.395,337.982 115.981,337.993 116.638 C 337.997 116.879,338.355 117.398,338.790 117.791 C 339.224 118.184,339.698 118.887,339.842 119.353 C 339.987 119.819,340.486 120.740,340.952 121.400 C 342.019 122.912,342.979 124.605,343.788 126.400 C 344.135 127.170,344.600 128.070,344.821 128.400 C 345.042 128.730,345.329 129.314,345.458 129.698 C 345.587 130.082,346.661 132.321,347.846 134.673 C 349.031 137.026,350.000 139.149,350.000 139.391 C 350.000 139.633,350.337 140.491,350.748 141.299 C 351.160 142.106,351.693 143.539,351.934 144.483 C 352.175 145.427,352.738 146.913,353.186 147.785 C 353.634 148.656,354.000 149.739,354.000 150.191 C 354.000 150.642,354.354 151.673,354.787 152.481 C 355.220 153.288,355.743 154.996,355.950 156.275 C 356.156 157.554,356.604 159.320,356.945 160.200 C 357.286 161.080,357.761 162.925,358.000 164.299 C 358.239 165.674,358.682 167.499,358.984 168.356 C 359.287 169.212,359.735 171.921,359.980 174.375 C 360.225 176.829,360.732 179.953,361.105 181.318 C 362.130 185.064,362.119 215.403,361.091 219.058 C 360.711 220.410,360.212 223.380,359.983 225.658 C 359.753 227.936,359.230 230.970,358.819 232.400 C 357.828 235.856,356.843 239.745,356.336 242.200 C 356.109 243.300,355.513 245.280,355.011 246.600 C 354.509 247.920,353.976 249.567,353.826 250.261 C 353.676 250.954,353.204 252.208,352.777 253.046 C 352.350 253.884,352.000 254.798,352.000 255.077 C 352.000 255.918,350.037 260.730,347.789 265.400 C 342.801 275.760,341.576 278.107,340.567 279.231 C 340.255 279.579,340.000 280.019,340.000 280.210 C 340.000 280.401,339.577 281.197,339.060 281.978 C 338.543 282.760,337.560 284.300,336.876 285.400 C 334.886 288.597,332.476 291.977,329.114 296.283 C 328.391 297.208,327.299 298.640,326.686 299.465 C 322.215 305.484,308.644 318.833,301.689 324.053 C 299.990 325.328,298.338 326.603,298.017 326.886 C 297.697 327.169,296.340 328.123,295.001 329.006 C 293.662 329.890,292.305 330.839,291.984 331.117 C 291.663 331.394,290.500 332.180,289.400 332.864 C 288.300 333.547,286.929 334.430,286.354 334.825 C 285.779 335.221,284.699 335.827,283.954 336.173 C 283.209 336.519,281.790 337.340,280.800 337.997 C 279.810 338.654,278.280 339.551,277.400 339.991 C 276.520 340.430,275.530 340.957,275.200 341.161 C 274.870 341.364,273.520 342.014,272.200 342.605 C 269.572 343.781,266.230 345.318,262.760 346.948 C 261.528 347.527,260.178 348.006,259.760 348.013 C 259.342 348.019,258.100 348.468,257.000 349.009 C 255.900 349.550,254.640 349.996,254.200 350.000 C 253.760 350.004,252.500 350.450,251.400 350.991 C 250.300 351.532,249.130 351.981,248.800 351.989 C 248.470 351.997,246.940 352.449,245.400 352.993 C 243.860 353.538,242.106 353.987,241.502 353.992 C 240.897 353.996,239.344 354.367,238.049 354.815 C 235.048 355.853,227.262 357.211,216.000 358.661 C 208.483 359.629,191.514 359.628,184.000 358.661 C 173.105 357.257,164.352 355.758,162.473 354.973 C 161.703 354.651,159.824 354.194,158.298 353.957 C 156.772 353.720,154.775 353.187,153.862 352.772 C 152.948 352.357,151.840 352.012,151.400 352.005 C 150.960 351.998,149.700 351.550,148.600 351.009 C 147.500 350.468,146.240 350.018,145.800 350.009 C 145.360 350.000,144.100 349.550,143.000 349.009 C 141.900 348.468,140.658 348.019,140.240 348.013 C 139.822 348.006,138.472 347.530,137.240 346.957 C 131.780 344.413,130.844 343.983,128.200 342.799 C 126.660 342.110,125.130 341.376,124.800 341.168 C 124.470 340.960,123.480 340.431,122.600 339.992 C 121.720 339.553,120.010 338.564,118.800 337.794 C 117.590 337.025,116.060 336.126,115.400 335.796 C 114.740 335.467,113.390 334.664,112.400 334.012 C 111.410 333.360,109.942 332.466,109.137 332.024 C 108.332 331.583,107.612 331.082,107.537 330.911 C 107.462 330.740,106.320 329.888,105.000 329.017 C 103.680 328.147,102.298 327.157,101.929 326.817 C 101.561 326.478,100.601 325.750,99.798 325.200 C 98.341 324.203,94.219 320.808,90.800 317.789 C 88.823 316.043,81.355 308.568,78.200 305.176 C 76.207 303.033,73.279 299.471,71.000 296.416 C 70.340 295.531,69.440 294.375,69.000 293.848 C 67.887 292.512,64.605 287.798,63.119 285.400 C 62.438 284.300,61.457 282.760,60.940 281.978 C 60.423 281.197,60.000 280.401,60.000 280.210 C 60.000 280.019,59.748 279.579,59.441 279.231 C 58.668 278.358,57.093 275.559,55.372 272.000 C 54.575 270.350,53.039 267.239,51.961 265.087 C 50.882 262.935,50.000 260.948,50.000 260.672 C 50.000 260.395,49.663 259.509,49.252 258.701 C 48.840 257.894,48.293 256.400,48.037 255.380 C 47.780 254.360,47.324 253.137,47.024 252.663 C 46.724 252.188,46.350 251.170,46.194 250.400 C 46.037 249.630,45.558 248.218,45.128 247.263 C 44.698 246.307,44.195 244.595,44.010 243.459 C 43.825 242.322,43.297 240.275,42.837 238.909 C 42.376 237.543,42.000 235.998,42.000 235.475 C 42.000 234.953,41.645 233.492,41.210 232.230 C 40.776 230.967,40.227 228.014,39.991 225.667 C 39.754 223.320,39.258 220.320,38.887 219.000 C 37.864 215.359,37.896 185.122,38.926 181.022 C 39.311 179.494,39.808 176.434,40.033 174.222 C 40.257 172.010,40.768 169.120,41.168 167.800 C 41.568 166.480,42.021 164.538,42.174 163.485 C 42.328 162.431,42.696 160.990,42.992 160.282 C 43.287 159.574,43.740 157.835,43.997 156.419 C 44.253 155.002,44.809 153.166,45.232 152.338 C 45.654 151.509,46.000 150.503,46.000 150.101 C 46.000 149.698,46.366 148.656,46.814 147.785 C 47.262 146.913,47.825 145.427,48.066 144.483 C 48.307 143.539,48.840 142.106,49.252 141.299 C 49.663 140.491,50.000 139.605,50.000 139.328 C 50.000 139.052,50.882 137.065,51.961 134.913 C 53.039 132.761,54.575 129.650,55.372 128.000 C 57.093 124.441,58.668 121.642,59.441 120.769 C 59.748 120.421,60.003 119.971,60.007 119.769 C 60.011 119.566,60.506 118.662,61.107 117.761 C 61.708 116.860,62.650 115.366,63.200 114.443 C 64.137 112.869,67.555 107.988,68.972 106.200 C 69.321 105.760,70.681 103.960,71.995 102.200 C 77.658 94.616,90.642 81.673,98.311 75.967 C 100.010 74.703,101.670 73.428,102.000 73.134 C 102.331 72.840,103.701 71.865,105.045 70.967 C 106.390 70.069,107.740 69.119,108.045 68.857 C 108.350 68.594,109.500 67.820,110.600 67.136 C 111.700 66.453,113.071 65.570,113.646 65.175 C 114.221 64.779,115.301 64.167,116.046 63.814 C 116.791 63.461,118.058 62.773,118.862 62.286 C 122.508 60.078,126.369 58.023,127.323 57.784 C 127.897 57.639,128.577 57.269,128.833 56.961 C 129.089 56.652,129.511 56.400,129.770 56.400 C 130.030 56.400,131.133 55.974,132.221 55.452 C 137.817 52.772,139.614 51.999,140.275 51.987 C 140.674 51.981,141.900 51.532,143.000 50.991 C 144.100 50.450,145.360 50.000,145.800 49.991 C 146.240 49.982,147.500 49.532,148.600 48.991 C 149.700 48.450,150.960 48.002,151.400 47.995 C 151.840 47.988,152.973 47.631,153.918 47.203 C 154.863 46.774,156.573 46.302,157.718 46.154 C 158.863 46.006,161.111 45.461,162.712 44.943 C 164.314 44.424,166.024 43.997,166.512 43.994 C 167.001 43.990,169.048 43.640,171.063 43.214 C 173.077 42.789,178.747 42.074,183.663 41.626 C 188.578 41.178,193.410 40.737,194.400 40.647 C 197.675 40.347,207.674 40.780,216.400 41.600 M132.135 95.362 C 128.459 97.124,125.237 100.313,123.500 103.909 L 122.200 106.600 122.200 194.000 L 122.200 281.400 123.205 283.400 C 125.659 288.286,128.010 290.661,132.483 292.774 L 135.077 294.000 199.639 293.989 L 264.200 293.978 266.742 292.839 C 273.234 289.932,276.729 284.194,277.540 275.113 C 277.926 270.789,278.529 270.935,283.000 276.440 C 287.993 282.588,287.925 282.506,288.759 283.408 C 289.171 283.852,290.610 285.536,291.958 287.149 C 299.297 295.934,306.739 297.687,314.469 292.451 C 321.220 287.879,323.645 277.290,319.126 272.114 C 318.783 271.721,318.301 271.009,318.055 270.532 C 317.808 270.055,315.940 268.264,313.903 266.552 C 311.866 264.840,310.020 263.229,309.800 262.973 C 309.580 262.716,307.420 260.922,305.000 258.986 C 300.806 255.631,299.579 254.600,298.069 253.163 C 297.701 252.813,295.420 250.946,293.000 249.014 C 290.580 247.081,288.330 245.192,288.000 244.815 C 287.238 243.945,280.946 238.764,279.540 237.850 C 277.517 236.534,277.311 235.102,278.743 232.324 C 279.435 230.984,280.000 229.685,280.000 229.438 C 280.000 229.191,280.369 228.299,280.820 227.458 C 281.271 226.616,281.821 224.908,282.041 223.664 C 282.261 222.419,282.737 220.500,283.098 219.400 C 285.271 212.782,283.072 197.859,278.825 190.400 L 277.800 188.600 277.600 163.000 C 277.416 139.511,277.342 137.293,276.693 136.107 C 276.305 135.396,266.799 125.631,255.568 114.407 L 235.149 94.000 185.063 94.000 L 134.977 94.000 132.135 95.362 M229.476 100.900 C 229.654 101.175,229.890 109.949,230.000 120.397 L 230.200 139.394 231.800 140.197 C 233.319 140.960,234.297 141.006,251.200 141.110 C 267.265 141.209,269.049 141.285,269.500 141.886 C 270.152 142.756,270.228 175.226,269.581 176.436 C 269.190 177.166,268.951 177.048,266.104 174.722 C 262.864 172.074,262.476 171.829,257.910 169.544 C 253.893 167.534,249.796 166.081,247.289 165.777 C 246.129 165.637,244.239 165.272,243.089 164.966 C 236.218 163.136,221.605 166.163,214.000 170.990 C 211.816 172.376,208.358 174.719,206.600 176.004 L 205.000 177.173 179.200 177.189 C 148.577 177.207,148.976 177.149,149.789 181.483 C 150.288 184.143,148.902 184.000,174.152 184.000 C 201.734 184.000,199.373 183.398,196.313 189.647 C 195.087 192.151,193.677 195.280,193.181 196.600 C 192.684 197.920,192.107 199.220,191.899 199.489 C 191.611 199.861,186.704 200.005,171.525 200.089 L 151.530 200.200 150.565 201.322 C 149.403 202.674,149.282 204.788,150.315 205.723 C 152.322 207.540,153.008 207.600,171.613 207.600 C 192.068 207.600,190.800 207.361,190.800 211.214 C 190.800 212.746,191.075 215.594,191.412 217.543 C 191.848 220.072,191.908 221.390,191.621 222.144 L 191.220 223.200 172.310 223.202 C 149.378 223.205,149.000 223.277,149.789 227.483 C 150.286 230.129,149.122 229.996,172.129 230.040 C 195.744 230.085,194.645 229.973,196.000 232.476 C 198.464 237.028,198.588 237.210,201.915 241.164 C 202.732 242.134,203.897 243.427,204.504 244.038 C 206.244 245.786,206.216 245.788,178.065 246.000 L 151.530 246.200 150.565 247.322 C 149.409 248.666,149.280 250.797,150.300 251.687 C 152.311 253.440,151.369 253.390,186.200 253.600 C 219.344 253.800,219.403 253.801,221.200 254.676 C 226.985 257.490,239.202 258.564,245.775 256.835 C 247.522 256.376,249.263 256.000,249.645 256.000 C 250.392 256.000,256.209 253.829,257.200 253.181 C 260.964 250.717,261.830 251.002,265.815 256.011 C 267.298 257.875,268.855 259.730,269.275 260.134 C 269.993 260.823,270.032 261.459,269.919 270.734 L 269.800 280.600 268.703 282.151 C 267.081 284.446,265.736 285.558,263.538 286.424 C 261.356 287.285,137.145 287.682,136.619 286.831 C 136.494 286.628,135.833 286.339,135.150 286.189 C 133.228 285.767,130.948 283.441,130.017 280.954 C 129.204 278.780,129.200 278.382,129.200 194.000 C 129.200 109.618,129.204 109.220,130.017 107.046 C 130.798 104.958,133.392 102.000,134.441 102.000 C 134.682 102.000,135.446 101.746,136.140 101.436 C 136.833 101.126,137.670 100.780,138.000 100.667 C 139.461 100.170,229.152 100.398,229.476 100.900 M151.743 154.397 C 149.689 155.225,148.887 158.487,150.371 159.971 C 151.583 161.183,153.194 161.250,177.735 161.121 L 200.870 161.000 201.835 159.878 C 203.536 157.899,202.507 154.761,199.991 154.258 C 198.043 153.869,152.729 153.998,151.743 154.397 M241.600 171.977 C 254.423 173.003,266.990 181.751,272.660 193.600 C 276.307 201.223,277.342 207.754,276.290 216.500 C 274.794 228.931,264.595 243.462,255.412 246.248 C 254.965 246.384,254.330 246.722,254.000 246.999 C 253.670 247.277,252.500 247.782,251.400 248.121 C 250.300 248.460,248.590 249.056,247.600 249.444 C 244.929 250.492,229.852 250.487,227.200 249.438 C 226.210 249.046,224.589 248.494,223.598 248.211 C 218.464 246.744,210.587 240.999,206.478 235.724 C 203.768 232.246,202.017 229.551,202.007 228.847 C 202.003 228.543,201.656 227.733,201.234 227.047 C 200.813 226.361,200.167 224.720,199.798 223.400 C 199.429 222.080,198.863 220.100,198.540 219.000 C 197.031 213.865,198.731 198.477,201.140 195.454 C 201.339 195.204,201.636 194.550,201.799 194.000 C 202.763 190.752,209.410 182.606,213.410 179.772 C 221.345 174.149,226.500 172.366,236.800 171.681 C 237.130 171.659,239.290 171.792,241.600 171.977 "
            stroke="none" fill="#05486c" fill-rule="evenodd"></path>
    </g>
</svg>
