<svg id="svg" version="1.1" xmlns="http://www.w3.org/2000/svg" xmlns:xlink="http://www.w3.org/1999/xlink" width="400"
    height="400" viewBox="0, 0, 400,400">
    <g id="svgg">
        <circle r="170" cx="200" cy="200" fill="white" />
        <path id="path0"
            d="M193.000 27.222 C 180.281 28.009,174.503 28.521,172.530 29.035 C 171.383 29.334,168.775 29.781,166.735 30.029 C 164.695 30.277,162.204 30.804,161.198 31.201 C 160.193 31.597,158.297 32.052,156.985 32.213 C 155.673 32.373,153.790 32.817,152.800 33.199 C 151.810 33.581,150.106 34.024,149.014 34.184 C 147.922 34.344,146.392 34.809,145.614 35.217 C 144.836 35.625,143.345 36.238,142.300 36.579 C 137.292 38.215,136.492 38.504,135.000 39.220 C 134.120 39.642,132.656 40.171,131.747 40.396 C 130.837 40.622,129.870 41.074,129.598 41.403 C 129.325 41.731,128.814 42.000,128.462 42.000 C 127.892 42.000,119.522 45.871,118.000 46.839 C 117.670 47.048,116.680 47.594,115.800 48.051 C 114.920 48.508,113.375 49.359,112.367 49.941 C 111.358 50.523,109.744 51.429,108.779 51.953 C 107.814 52.477,106.569 53.218,106.012 53.599 C 105.456 53.980,103.944 54.991,102.654 55.846 C 101.364 56.701,99.744 57.804,99.054 58.297 C 89.292 65.280,87.079 67.022,81.283 72.280 C 73.329 79.495,65.882 87.524,60.200 95.008 C 59.100 96.456,57.899 97.979,57.530 98.391 C 57.162 98.802,56.639 99.558,56.368 100.070 C 56.098 100.581,55.094 101.919,54.138 103.043 C 53.182 104.167,52.400 105.260,52.400 105.472 C 52.400 105.684,51.865 106.565,51.211 107.429 C 50.557 108.293,50.017 109.203,50.011 109.451 C 50.005 109.699,49.720 110.135,49.377 110.419 C 49.034 110.704,48.487 111.574,48.161 112.354 C 47.836 113.134,47.417 113.868,47.232 113.986 C 46.880 114.209,45.920 115.963,44.236 119.463 C 43.690 120.598,43.073 121.631,42.866 121.759 C 42.658 121.888,42.368 122.475,42.220 123.065 C 42.072 123.654,41.614 124.565,41.203 125.087 C 40.792 125.610,40.329 126.614,40.176 127.319 C 40.022 128.023,39.559 129.029,39.148 129.554 C 38.737 130.079,38.400 130.817,38.400 131.194 C 38.400 131.572,37.950 132.727,37.400 133.762 C 36.850 134.796,36.400 135.865,36.400 136.137 C 36.400 136.408,36.034 137.344,35.586 138.215 C 35.138 139.087,34.572 140.610,34.327 141.600 C 34.082 142.590,33.573 144.030,33.195 144.800 C 32.817 145.570,32.387 146.867,32.239 147.683 C 32.091 148.498,31.632 149.938,31.218 150.883 C 30.805 151.827,30.338 153.500,30.181 154.600 C 30.024 155.700,29.657 157.072,29.365 157.648 C 29.072 158.225,28.537 160.565,28.175 162.848 C 27.813 165.132,27.354 167.305,27.156 167.678 C 26.958 168.050,26.533 170.840,26.212 173.878 C 25.892 176.915,25.398 180.030,25.115 180.800 C 24.254 183.141,24.388 216.577,25.271 220.000 C 25.640 221.430,26.057 224.130,26.197 226.000 C 26.337 227.870,26.788 230.750,27.200 232.400 C 27.613 234.050,28.076 236.390,28.230 237.600 C 28.385 238.810,28.830 240.621,29.220 241.624 C 29.609 242.626,30.058 244.336,30.216 245.424 C 30.374 246.511,30.751 247.886,31.052 248.480 C 31.353 249.074,31.856 250.659,32.170 252.003 C 32.483 253.346,32.920 254.662,33.140 254.928 C 33.361 255.193,33.758 256.308,34.024 257.405 C 34.290 258.502,34.824 259.940,35.211 260.600 C 35.597 261.260,36.044 262.415,36.203 263.166 C 36.362 263.917,36.922 265.339,37.446 266.325 C 37.971 267.312,38.400 268.428,38.400 268.806 C 38.400 269.183,38.749 269.936,39.175 270.478 C 39.602 271.020,40.079 271.989,40.236 272.632 C 40.393 273.274,40.842 274.213,41.233 274.719 C 41.625 275.224,42.061 276.167,42.203 276.814 C 42.345 277.461,42.637 278.099,42.852 278.232 C 43.067 278.365,43.692 279.402,44.241 280.537 C 45.635 283.415,46.680 285.312,47.201 285.907 C 47.445 286.186,47.859 286.909,48.122 287.514 C 48.385 288.119,48.922 289.061,49.315 289.607 C 50.821 291.698,52.386 294.215,52.393 294.557 C 52.397 294.753,53.182 295.833,54.138 296.957 C 55.094 298.081,56.098 299.419,56.368 299.930 C 56.639 300.442,57.162 301.198,57.530 301.609 C 57.899 302.021,59.100 303.544,60.200 304.992 C 64.897 311.179,69.157 315.962,75.683 322.376 C 80.569 327.178,85.679 331.814,88.000 333.549 C 88.770 334.124,89.490 334.688,89.600 334.800 C 89.825 335.031,91.975 336.606,96.400 339.784 C 98.050 340.969,99.760 342.222,100.200 342.569 C 100.640 342.916,101.900 343.764,103.000 344.453 C 104.100 345.143,105.450 346.015,106.000 346.391 C 106.550 346.768,107.630 347.399,108.400 347.794 C 109.170 348.189,109.890 348.646,110.000 348.811 C 110.110 348.975,110.830 349.410,111.600 349.777 C 112.370 350.143,113.900 350.972,115.000 351.618 C 116.100 352.265,117.630 353.069,118.400 353.407 C 119.170 353.744,120.070 354.168,120.400 354.348 C 120.730 354.528,121.360 354.871,121.800 355.110 C 122.240 355.349,123.860 356.108,125.400 356.796 C 126.940 357.485,128.920 358.394,129.800 358.817 C 130.680 359.241,132.157 359.775,133.083 360.004 C 134.009 360.234,134.863 360.579,134.982 360.771 C 135.100 360.963,136.143 361.338,137.299 361.605 C 138.454 361.872,139.788 362.333,140.263 362.630 C 140.737 362.927,141.997 363.383,143.063 363.644 C 144.128 363.905,145.630 364.425,146.400 364.800 C 147.170 365.176,148.970 365.706,150.400 365.979 C 151.830 366.252,153.204 366.643,153.454 366.848 C 153.703 367.053,155.323 367.473,157.054 367.781 C 158.784 368.089,160.830 368.608,161.600 368.933 C 162.370 369.258,164.784 369.737,166.965 369.997 C 169.146 370.257,171.376 370.639,171.920 370.846 C 178.435 373.323,221.565 373.323,228.080 370.846 C 228.624 370.639,230.854 370.257,233.035 369.997 C 235.216 369.737,237.630 369.258,238.400 368.933 C 239.170 368.608,241.216 368.089,242.946 367.781 C 244.677 367.473,246.297 367.053,246.546 366.848 C 246.796 366.643,248.170 366.252,249.600 365.979 C 251.030 365.706,252.830 365.176,253.600 364.800 C 254.370 364.425,255.872 363.905,256.937 363.644 C 258.003 363.383,259.263 362.924,259.737 362.624 C 260.212 362.324,261.230 361.953,262.000 361.800 C 262.770 361.647,264.120 361.185,265.000 360.774 C 265.880 360.363,267.344 359.839,268.253 359.610 C 269.163 359.381,270.130 358.926,270.402 358.597 C 270.675 358.269,271.177 358.000,271.517 358.000 C 272.229 358.000,276.829 355.926,279.500 354.400 C 279.885 354.180,280.650 353.816,281.200 353.590 C 281.750 353.365,283.280 352.560,284.600 351.801 C 285.920 351.042,287.630 350.127,288.400 349.766 C 289.170 349.405,289.890 348.975,290.000 348.811 C 290.110 348.646,290.830 348.189,291.600 347.794 C 292.370 347.399,293.450 346.768,294.000 346.392 C 294.550 346.016,295.990 345.056,297.200 344.260 C 298.410 343.464,300.080 342.315,300.911 341.706 C 301.742 341.098,303.452 339.884,304.711 339.009 C 306.992 337.423,310.020 335.182,310.400 334.798 C 310.510 334.686,311.230 334.124,312.000 333.549 C 314.321 331.814,319.431 327.178,324.317 322.376 C 330.819 315.986,335.032 311.258,339.800 305.003 C 340.900 303.560,342.205 301.907,342.700 301.331 C 343.195 300.755,343.600 300.146,343.600 299.979 C 343.600 299.720,345.169 297.647,346.903 295.618 C 347.176 295.298,347.626 294.578,347.902 294.018 C 348.178 293.458,348.937 292.190,349.588 291.200 C 350.240 290.210,351.156 288.700,351.623 287.844 C 352.091 286.988,352.647 286.088,352.858 285.844 C 353.307 285.326,353.694 284.598,357.300 277.492 C 358.785 274.565,360.000 272.026,360.000 271.848 C 360.000 271.671,360.360 271.069,360.800 270.509 C 361.240 269.950,361.600 269.183,361.600 268.806 C 361.600 268.428,362.040 267.291,362.578 266.280 C 363.116 265.268,363.678 263.756,363.827 262.920 C 363.976 262.084,364.414 260.860,364.800 260.200 C 365.186 259.540,365.630 258.280,365.785 257.400 C 365.940 256.520,366.390 255.260,366.785 254.600 C 367.180 253.940,367.631 252.680,367.788 251.800 C 367.944 250.920,368.396 249.480,368.792 248.600 C 369.188 247.720,369.642 246.010,369.800 244.800 C 369.959 243.590,370.352 241.970,370.674 241.200 C 370.996 240.430,371.529 238.281,371.857 236.424 C 372.185 234.566,372.619 232.737,372.822 232.359 C 373.024 231.981,373.468 229.022,373.808 225.784 C 374.148 222.547,374.646 219.516,374.913 219.049 C 375.635 217.790,375.607 183.158,374.882 181.200 C 374.597 180.430,374.103 177.226,373.785 174.080 C 373.467 170.933,373.029 168.027,372.812 167.622 C 372.595 167.216,372.149 165.226,371.821 163.198 C 371.493 161.170,371.053 159.304,370.842 159.051 C 370.632 158.798,370.182 156.998,369.842 155.051 C 369.503 153.104,369.052 151.304,368.842 151.051 C 368.631 150.797,368.244 149.692,367.980 148.595 C 367.717 147.498,367.178 145.880,366.783 145.000 C 366.389 144.120,365.766 142.500,365.400 141.400 C 365.034 140.300,364.463 138.590,364.131 137.600 C 363.800 136.610,363.095 134.897,362.564 133.794 C 362.034 132.691,361.600 131.500,361.600 131.148 C 361.600 130.796,361.251 130.064,360.825 129.522 C 360.398 128.980,359.924 128.011,359.771 127.368 C 359.618 126.726,359.249 125.918,358.951 125.574 C 358.654 125.230,358.202 124.330,357.948 123.574 C 357.694 122.818,357.255 121.930,356.972 121.600 C 356.689 121.270,356.073 120.190,355.604 119.200 C 354.396 116.650,353.316 114.683,352.799 114.093 C 352.555 113.814,352.141 113.091,351.878 112.486 C 351.615 111.881,351.078 110.939,350.685 110.393 C 349.179 108.302,347.614 105.785,347.607 105.443 C 347.603 105.247,346.818 104.167,345.862 103.043 C 344.906 101.919,343.902 100.581,343.632 100.070 C 343.361 99.558,342.838 98.802,342.470 98.391 C 342.101 97.979,340.900 96.456,339.800 95.008 C 334.099 87.498,325.932 78.701,318.730 72.310 C 317.559 71.270,315.790 69.684,314.800 68.785 C 313.810 67.886,312.550 66.854,312.000 66.490 C 311.450 66.126,310.081 65.057,308.957 64.114 C 307.833 63.171,306.793 62.400,306.645 62.400 C 306.498 62.400,305.257 61.542,303.889 60.493 C 301.259 58.478,300.599 58.008,297.400 55.869 C 293.157 53.032,291.445 52.000,290.980 52.000 C 290.715 52.000,290.272 51.728,289.996 51.395 C 289.720 51.063,288.753 50.432,287.847 49.994 C 286.941 49.555,285.300 48.669,284.200 48.025 C 283.100 47.380,281.930 46.731,281.600 46.581 C 281.270 46.432,279.007 45.340,276.572 44.155 C 274.136 42.970,271.863 42.000,271.521 42.000 C 271.178 42.000,270.675 41.731,270.402 41.403 C 270.130 41.074,269.163 40.622,268.253 40.396 C 267.344 40.171,265.880 39.654,265.000 39.247 C 263.473 38.541,261.568 37.842,257.600 36.530 C 256.610 36.202,255.078 35.598,254.197 35.187 C 253.315 34.777,251.785 34.316,250.797 34.163 C 249.808 34.011,248.190 33.575,247.200 33.196 C 246.210 32.816,244.327 32.373,243.015 32.213 C 241.703 32.052,239.802 31.595,238.791 31.197 C 237.780 30.798,235.179 30.260,233.011 30.001 C 230.844 29.743,228.624 29.361,228.080 29.154 C 226.744 28.647,216.776 27.724,209.400 27.426 C 206.100 27.292,202.320 27.113,201.000 27.029 C 199.680 26.944,196.080 27.031,193.000 27.222 M209.000 40.998 C 221.302 41.991,224.870 42.388,228.877 43.207 C 231.009 43.643,233.119 44.000,233.565 44.000 C 234.010 44.000,235.686 44.424,237.288 44.943 C 238.889 45.461,241.137 46.006,242.282 46.154 C 243.427 46.302,245.137 46.774,246.082 47.203 C 247.027 47.631,248.160 47.988,248.600 47.995 C 249.040 48.002,250.300 48.450,251.400 48.991 C 252.500 49.532,253.760 49.982,254.200 49.991 C 254.640 50.000,255.900 50.450,257.000 50.991 C 258.100 51.532,259.326 51.981,259.725 51.987 C 260.455 52.000,262.762 53.017,269.400 56.250 C 271.380 57.215,273.180 58.003,273.400 58.002 C 273.620 58.001,275.242 58.855,277.004 59.900 C 278.767 60.945,280.657 62.031,281.204 62.313 C 281.752 62.595,283.190 63.443,284.400 64.199 C 285.610 64.954,286.976 65.742,287.435 65.951 C 287.894 66.160,289.064 66.888,290.035 67.568 C 291.006 68.248,292.970 69.620,294.400 70.617 C 295.830 71.613,297.810 73.051,298.800 73.811 C 299.790 74.571,301.050 75.502,301.600 75.879 C 306.792 79.441,323.363 95.709,326.800 100.619 C 327.350 101.405,328.391 102.802,329.114 103.724 C 333.518 109.342,337.979 115.831,337.993 116.638 C 337.997 116.879,338.355 117.398,338.790 117.791 C 339.224 118.184,339.688 118.846,339.820 119.261 C 339.951 119.677,340.767 121.139,341.632 122.509 C 342.498 123.879,343.384 125.405,343.603 125.900 C 343.821 126.395,344.179 127.205,344.397 127.700 C 344.615 128.195,344.961 128.870,345.164 129.200 C 345.938 130.457,349.953 139.046,350.212 140.000 C 350.361 140.550,350.705 141.360,350.976 141.800 C 351.247 142.240,351.672 143.410,351.920 144.400 C 352.169 145.390,352.738 146.913,353.186 147.785 C 353.634 148.656,354.000 149.739,354.000 150.191 C 354.000 150.642,354.354 151.673,354.787 152.481 C 355.220 153.288,355.743 154.996,355.949 156.275 C 356.155 157.554,356.701 159.719,357.162 161.087 C 357.623 162.455,358.000 164.002,358.000 164.525 C 358.000 165.047,358.346 166.480,358.768 167.708 C 359.191 168.936,359.739 171.979,359.986 174.471 C 360.234 176.962,360.737 180.080,361.104 181.400 C 362.120 185.049,362.110 215.435,361.091 219.058 C 360.711 220.410,360.213 223.380,359.985 225.658 C 359.757 227.936,359.217 230.836,358.785 232.102 C 358.353 233.367,358.000 234.858,358.000 235.414 C 358.000 235.970,357.646 237.475,357.214 238.759 C 356.781 240.042,356.164 242.242,355.842 243.646 C 355.159 246.625,353.810 250.714,352.747 253.026 C 352.336 253.921,352.000 254.862,352.000 255.118 C 352.000 255.922,349.993 260.821,347.789 265.400 C 343.001 275.346,342.297 276.700,340.899 278.662 C 340.405 279.356,340.000 280.107,340.000 280.331 C 340.000 280.555,339.588 281.247,339.084 281.869 C 338.581 282.491,337.948 283.450,337.678 284.000 C 337.164 285.047,335.823 287.122,333.800 290.000 C 333.140 290.939,332.330 292.103,332.000 292.587 C 331.670 293.071,331.130 293.762,330.800 294.123 C 330.470 294.483,329.660 295.515,329.000 296.415 C 322.821 304.842,309.938 317.875,301.689 324.045 C 299.990 325.315,298.236 326.649,297.792 327.010 C 296.879 327.750,292.894 330.500,289.600 332.663 C 288.390 333.458,286.929 334.431,286.354 334.826 C 285.779 335.221,284.699 335.827,283.954 336.173 C 283.209 336.519,281.790 337.340,280.800 337.997 C 279.810 338.654,278.280 339.551,277.400 339.991 C 276.520 340.430,275.530 340.957,275.200 341.161 C 274.870 341.364,273.520 342.015,272.200 342.606 C 267.964 344.502,265.861 345.462,263.125 346.745 C 261.654 347.435,260.124 348.006,259.725 348.013 C 259.326 348.019,258.100 348.468,257.000 349.009 C 255.900 349.550,254.652 349.994,254.226 349.996 C 253.801 349.998,252.721 350.336,251.826 350.748 C 249.444 351.843,242.517 354.000,241.382 354.000 C 240.844 354.000,239.344 354.367,238.049 354.815 C 234.979 355.877,226.892 357.276,215.800 358.663 C 208.056 359.632,191.944 359.632,184.200 358.663 C 173.108 357.276,165.021 355.877,161.951 354.815 C 160.656 354.367,159.156 354.000,158.618 354.000 C 157.483 354.000,150.556 351.843,148.174 350.748 C 147.279 350.336,146.199 349.998,145.774 349.996 C 145.348 349.994,144.100 349.550,143.000 349.009 C 141.900 348.468,140.658 348.019,140.240 348.013 C 139.822 348.006,138.472 347.530,137.240 346.957 C 131.780 344.413,130.844 343.983,128.200 342.799 C 126.660 342.110,125.130 341.376,124.800 341.168 C 124.470 340.960,123.480 340.430,122.600 339.991 C 121.720 339.551,120.190 338.654,119.200 337.997 C 118.210 337.340,116.791 336.519,116.046 336.173 C 115.301 335.827,114.221 335.221,113.646 334.825 C 113.071 334.430,111.700 333.547,110.600 332.864 C 109.500 332.180,108.337 331.394,108.016 331.117 C 107.695 330.839,106.338 329.890,104.999 329.006 C 103.660 328.123,102.303 327.169,101.983 326.886 C 101.662 326.603,100.010 325.328,98.311 324.053 C 89.816 317.677,77.459 305.163,71.000 296.396 C 70.340 295.500,69.521 294.459,69.180 294.083 C 68.839 293.707,68.259 292.950,67.892 292.400 C 67.525 291.850,66.685 290.680,66.027 289.800 C 65.368 288.920,64.456 287.570,64.001 286.800 C 63.545 286.030,62.642 284.590,61.993 283.600 C 61.344 282.610,60.595 281.350,60.329 280.800 C 60.063 280.250,59.629 279.530,59.364 279.200 C 58.562 278.202,56.889 275.172,55.387 272.000 C 54.605 270.350,53.074 267.239,51.983 265.087 C 50.892 262.935,50.000 260.948,50.000 260.672 C 50.000 260.395,49.663 259.509,49.252 258.701 C 48.840 257.894,48.288 256.371,48.026 255.317 C 47.763 254.263,47.313 253.037,47.026 252.594 C 46.740 252.151,46.371 251.161,46.207 250.394 C 46.043 249.627,45.558 248.218,45.128 247.263 C 44.698 246.307,44.195 244.595,44.010 243.459 C 43.825 242.322,43.297 240.275,42.837 238.909 C 42.376 237.543,42.000 235.998,42.000 235.475 C 42.000 234.953,41.655 233.522,41.233 232.296 C 40.811 231.070,40.273 228.151,40.038 225.809 C 39.802 223.466,39.296 220.436,38.915 219.075 C 37.880 215.388,37.862 185.062,38.891 181.318 C 39.267 179.953,39.775 176.829,40.020 174.375 C 40.265 171.921,40.713 169.212,41.016 168.356 C 41.318 167.499,41.761 165.674,42.000 164.299 C 42.239 162.925,42.714 161.080,43.055 160.200 C 43.396 159.320,43.846 157.543,44.054 156.252 C 44.263 154.960,44.786 153.212,45.217 152.368 C 45.647 151.523,46.000 150.503,46.000 150.101 C 46.000 149.698,46.366 148.656,46.814 147.785 C 47.262 146.913,47.825 145.427,48.066 144.483 C 48.307 143.539,48.840 142.106,49.252 141.299 C 49.663 140.491,50.000 139.605,50.000 139.328 C 50.000 139.052,50.892 137.065,51.983 134.913 C 53.074 132.761,54.621 129.650,55.423 128.000 C 57.238 124.262,57.973 122.924,59.048 121.400 C 59.514 120.740,60.013 119.819,60.158 119.353 C 60.302 118.887,60.776 118.184,61.210 117.791 C 61.645 117.398,62.003 116.879,62.007 116.638 C 62.018 115.981,65.755 110.395,68.989 106.200 C 69.329 105.760,70.682 103.960,71.996 102.200 C 77.833 94.386,91.990 80.416,99.561 75.000 C 100.484 74.340,101.905 73.281,102.719 72.646 C 103.534 72.012,105.100 70.891,106.200 70.156 C 107.300 69.420,109.100 68.187,110.200 67.415 C 111.300 66.644,112.403 66.009,112.651 66.006 C 112.899 66.003,113.328 65.728,113.604 65.395 C 113.880 65.063,114.847 64.424,115.753 63.975 C 117.513 63.104,118.195 62.721,122.675 60.086 C 124.256 59.155,125.876 58.288,126.275 58.157 C 126.674 58.026,128.620 57.149,130.600 56.208 C 138.127 52.629,139.571 52.000,140.275 51.987 C 140.674 51.981,141.900 51.532,143.000 50.991 C 144.100 50.450,145.360 50.000,145.800 49.991 C 146.240 49.982,147.500 49.532,148.600 48.991 C 149.700 48.450,150.960 48.002,151.400 47.995 C 151.840 47.988,152.973 47.631,153.918 47.203 C 154.863 46.774,156.573 46.302,157.718 46.154 C 158.863 46.006,161.111 45.461,162.712 44.943 C 164.314 44.424,166.024 43.997,166.512 43.994 C 167.001 43.990,169.034 43.642,171.031 43.221 C 180.834 41.151,198.263 40.131,209.000 40.998 M166.372 75.531 C 164.117 76.356,162.718 77.452,161.070 79.681 L 159.800 81.400 159.676 93.200 C 159.562 103.959,159.488 105.053,158.835 105.600 C 157.382 106.818,153.773 111.455,152.921 113.200 C 150.501 118.155,150.620 116.232,150.385 154.200 C 150.267 173.340,150.132 189.041,150.085 189.092 C 150.038 189.142,149.315 189.533,148.478 189.960 C 144.673 191.901,142.951 196.919,143.827 203.516 C 144.179 206.172,144.516 206.412,148.276 206.683 C 152.159 206.962,152.156 206.960,153.392 211.012 C 155.376 217.514,158.198 218.813,170.277 218.785 C 181.740 218.759,185.129 217.186,186.623 211.200 C 187.647 207.099,187.807 206.955,191.622 206.693 C 196.191 206.380,196.200 206.368,196.200 200.068 C 196.200 195.760,196.083 194.781,195.448 193.782 C 194.226 191.861,192.686 190.371,191.333 189.801 C 189.913 189.204,189.216 186.253,189.915 183.800 L 190.257 182.600 210.667 182.400 C 234.018 182.171,231.853 182.602,233.376 177.886 C 235.677 170.767,243.270 169.818,246.556 176.240 L 247.600 178.280 247.600 201.731 L 247.600 225.182 246.544 227.336 C 243.325 233.899,234.985 232.442,233.201 225.004 C 232.321 221.338,232.581 221.419,221.259 221.274 C 208.535 221.111,208.330 221.165,207.873 224.800 C 207.694 226.230,207.465 227.805,207.366 228.300 L 207.185 229.200 164.092 229.201 C 121.839 229.203,120.975 229.218,119.700 229.996 L 118.400 230.788 118.400 237.336 C 118.400 243.731,118.423 243.908,119.381 244.942 L 120.362 246.000 130.607 246.000 C 142.114 246.000,142.400 246.058,142.400 248.381 C 142.400 251.271,144.370 254.236,148.000 256.808 L 149.400 257.800 169.535 257.911 L 189.669 258.022 191.496 257.111 C 194.648 255.539,197.252 252.079,197.805 248.730 C 197.962 247.778,198.272 246.775,198.494 246.500 C 198.917 245.977,205.735 245.770,206.967 246.243 C 207.527 246.458,207.603 248.107,207.623 260.543 C 207.657 281.058,206.963 279.817,218.200 279.453 C 222.160 279.324,226.251 279.102,227.291 278.959 C 229.078 278.712,229.203 278.757,229.591 279.775 C 230.183 281.332,230.125 291.315,229.520 291.920 C 229.152 292.288,217.203 292.400,178.173 292.400 L 127.307 292.400 125.153 293.266 C 116.349 296.807,116.342 309.997,125.144 312.042 C 127.049 312.485,272.954 312.484,274.860 312.042 C 286.037 309.444,282.329 292.400,270.586 292.400 C 267.985 292.400,266.547 291.391,266.153 289.288 C 266.000 288.475,265.455 286.908,264.942 285.805 C 264.428 284.702,264.005 283.530,264.001 283.200 C 263.998 282.870,263.704 282.060,263.349 281.400 C 262.993 280.740,262.373 279.210,261.971 278.000 C 260.495 273.559,259.528 270.960,258.728 269.279 C 257.594 266.897,257.955 265.541,260.334 263.259 C 264.053 259.691,269.488 252.393,270.209 250.000 C 270.375 249.450,270.845 248.571,271.255 248.046 C 271.665 247.521,272.000 246.794,272.000 246.431 C 272.000 246.067,272.365 245.056,272.811 244.185 C 273.258 243.313,273.888 241.520,274.213 240.200 C 274.538 238.880,275.113 236.810,275.492 235.600 C 276.377 232.773,276.574 171.449,275.707 168.600 C 275.439 167.720,274.856 165.666,274.412 164.036 C 272.904 158.506,269.653 151.573,266.800 147.802 C 266.250 147.075,265.440 145.978,265.000 145.364 C 262.164 141.407,256.427 136.121,251.600 133.018 C 250.610 132.382,249.160 131.443,248.378 130.931 C 247.597 130.419,246.805 130.000,246.618 130.000 C 246.432 130.000,245.362 129.570,244.240 129.044 C 235.230 124.820,229.589 124.060,206.980 124.025 C 188.893 123.997,189.603 124.104,189.595 121.420 C 189.585 118.335,187.325 112.592,185.106 110.012 C 184.828 109.689,183.747 108.429,182.704 107.212 L 180.807 105.000 180.804 96.129 C 180.800 86.839,180.332 81.604,179.373 80.116 C 176.525 75.701,171.119 73.794,166.372 75.531 M173.091 81.267 C 175.029 83.054,175.200 84.080,175.200 93.948 L 175.200 103.122 173.940 103.561 C 173.247 103.802,171.474 104.000,170.000 104.000 C 168.526 104.000,166.753 103.802,166.060 103.561 L 164.800 103.122 164.800 93.945 C 164.800 84.157,165.016 82.933,167.057 81.152 C 168.707 79.713,171.462 79.766,173.091 81.267 M176.929 109.745 C 178.644 110.461,181.283 113.658,182.790 116.844 L 183.999 119.400 184.000 153.420 C 184.000 179.347,183.886 187.554,183.520 187.920 C 182.769 188.671,157.065 188.601,156.438 187.846 C 156.098 187.436,156.007 178.375,156.089 152.946 L 156.200 118.600 157.382 116.400 C 159.005 113.381,161.520 110.399,162.982 109.762 C 164.694 109.016,175.155 109.003,176.929 109.745 M206.400 129.957 C 207.386 130.231,207.402 130.301,207.513 134.968 C 207.640 140.256,207.285 141.342,205.289 141.780 C 203.531 142.167,200.334 145.232,199.074 147.742 C 196.120 153.621,198.864 161.912,204.561 164.322 C 207.357 165.504,207.600 166.053,207.600 171.190 C 207.600 174.273,207.438 176.002,207.120 176.320 C 206.111 177.329,190.959 176.962,190.223 175.911 C 189.246 174.517,189.284 131.413,190.262 130.331 C 190.954 129.566,203.909 129.266,206.400 129.957 M225.638 129.979 C 229.051 130.189,232.056 130.580,232.875 130.922 C 233.645 131.244,235.248 131.712,236.437 131.962 C 238.469 132.389,239.288 132.711,243.799 134.855 C 246.737 136.252,251.636 139.437,253.555 141.200 C 254.154 141.750,255.264 142.744,256.022 143.408 C 259.046 146.059,263.925 152.668,265.614 156.400 C 265.863 156.950,266.425 158.090,266.864 158.934 C 267.304 159.777,267.904 161.307,268.199 162.334 C 268.494 163.360,269.001 165.010,269.325 166.000 C 270.609 169.916,270.800 174.529,270.800 201.600 C 270.800 230.830,270.682 232.944,268.690 239.359 C 267.410 243.479,264.311 249.986,262.599 252.148 C 262.053 252.837,261.341 253.760,261.016 254.200 C 256.812 259.891,255.248 260.605,254.261 257.282 C 250.705 245.306,237.415 242.799,231.400 252.971 L 230.200 255.000 230.000 263.881 C 229.870 269.662,229.643 272.918,229.351 273.210 C 228.520 274.039,215.438 274.248,214.222 273.451 L 213.200 272.782 213.200 250.480 C 213.200 223.385,212.252 226.400,220.773 226.400 L 227.101 226.400 228.850 229.486 C 233.868 238.337,244.810 239.380,250.484 231.548 C 252.677 228.520,252.770 227.320,252.786 202.033 C 252.803 173.635,252.761 173.337,248.200 169.502 C 241.349 163.741,232.663 166.279,228.012 175.400 L 227.400 176.600 221.043 176.710 C 212.912 176.852,213.200 177.054,213.200 171.213 C 213.200 166.510,213.537 165.830,216.640 164.266 C 225.386 159.859,224.876 145.287,215.855 141.842 C 213.560 140.966,213.200 140.038,213.200 135.004 C 213.200 129.071,212.886 129.198,225.638 129.979 M214.501 147.351 C 221.033 152.334,216.775 161.567,208.646 160.048 C 202.178 158.840,201.588 149.323,207.800 146.386 C 209.379 145.639,212.926 146.150,214.501 147.351 M187.939 194.248 C 190.259 194.712,191.622 198.648,190.177 200.711 L 189.555 201.600 170.000 201.600 L 150.445 201.600 149.823 200.711 C 148.556 198.902,149.794 194.648,151.694 194.283 C 153.135 194.006,186.567 193.973,187.939 194.248 M181.357 207.433 C 183.090 211.947,180.130 213.309,168.983 213.126 C 159.614 212.971,157.596 211.944,158.623 207.851 L 158.887 206.800 170.001 206.800 C 179.766 206.800,181.144 206.877,181.357 207.433 M207.173 234.968 C 208.098 236.081,207.542 239.728,206.400 240.044 C 204.494 240.571,125.010 240.450,124.480 239.920 C 123.891 239.331,123.848 236.231,124.414 235.174 C 124.968 234.138,206.316 233.935,207.173 234.968 M191.929 247.547 C 192.114 249.483,191.326 251.049,189.803 251.772 C 187.937 252.657,152.741 252.720,150.639 251.842 C 148.518 250.956,147.045 247.488,148.270 246.263 C 148.419 246.115,158.274 246.040,170.170 246.097 L 191.800 246.200 191.929 247.547 M245.988 253.638 C 246.908 254.378,247.774 255.521,248.047 256.357 C 248.306 257.151,248.851 258.427,249.259 259.194 C 249.666 259.961,250.000 260.888,250.000 261.254 C 250.000 261.621,250.448 262.883,250.996 264.060 C 251.544 265.237,252.000 266.470,252.009 266.800 C 252.018 267.130,252.468 268.300,253.009 269.400 C 253.550 270.500,253.994 271.697,253.996 272.060 C 253.998 272.423,254.448 273.683,254.996 274.860 C 255.544 276.037,256.000 277.270,256.009 277.600 C 256.018 277.930,256.468 279.100,257.009 280.200 C 257.550 281.300,257.996 282.470,258.000 282.800 C 258.004 283.130,258.450 284.300,258.991 285.400 C 259.532 286.500,259.987 287.760,260.002 288.200 C 260.016 288.640,260.278 289.450,260.583 290.000 C 261.066 290.869,261.056 291.092,260.507 291.700 C 259.709 292.585,236.950 292.790,236.080 291.920 C 235.470 291.310,235.396 258.152,236.000 255.977 C 237.059 252.165,242.553 250.878,245.988 253.638 M274.640 299.360 C 277.114 301.834,276.546 305.151,273.371 306.774 L 271.743 307.606 199.571 307.503 L 127.400 307.400 125.933 306.400 C 123.412 304.681,123.182 301.466,125.428 299.347 L 126.857 298.000 200.068 298.000 L 273.280 298.000 274.640 299.360 "
            stroke="none" fill="#05486c" fill-rule="evenodd"></path>
    </g>
</svg>
