<?xml version="1.0" encoding="UTF-8"?>
<!DOCTYPE svg PUBLIC "-//W3C//DTD SVG 1.1//EN" "http://www.w3.org/Graphics/SVG/1.1/DTD/svg11.dtd">
<svg xmlns="http://www.w3.org/2000/svg" version="1.1" width="200px" height="200px" style="shape-rendering:geometricPrecision; text-rendering:geometricPrecision; image-rendering:optimizeQuality; fill-rule:evenodd; clip-rule:evenodd" xmlns:xlink="http://www.w3.org/1999/xlink">
<g><path style="opacity:0.866" fill="#030505" d="M 89.5,11.5 C 135.636,9.51559 167.136,29.8489 184,72.5C 193.724,107.312 186.224,137.812 161.5,164C 127.724,192.236 91.3908,195.903 52.5,175C 13.8047,146.368 2.63808,109.201 19,63.5C 33.3367,33.6534 56.8367,16.3201 89.5,11.5 Z"/></g>
<g><path style="opacity:1" fill="#72b3c5" d="M 162.5,48.5 C 161.262,47.5876 159.928,47.4209 158.5,48C 155,51.5 151.5,55 148,58.5C 147.517,59.448 147.351,60.448 147.5,61.5C 143.833,61.8333 141.833,63.8333 141.5,67.5C 130.074,55.6156 116.741,46.4489 101.5,40C 83.7535,35.4564 72.2535,41.9564 67,59.5C 62.7628,63.0357 58.2628,66.2024 53.5,69C 43.1833,77.0829 39.35,87.5829 42,100.5C 44.4471,110.395 48.7804,119.395 55,127.5C 58.0379,130.369 60.8712,133.369 63.5,136.5C 56.0893,142.405 49.0893,148.905 42.5,156C 43.2524,156.671 43.5858,157.504 43.5,158.5C 24.0198,139.303 15.8532,115.969 19,88.5C 26.8604,49.973 50.027,26.8063 88.5,19C 113.961,16.2776 136.294,23.2776 155.5,40C 158.447,42.4356 160.78,45.2689 162.5,48.5 Z"/></g>
<g><path style="opacity:1" fill="#080c0d" d="M 141.5,67.5 C 144.99,72.4709 148.49,77.4709 152,82.5C 166.938,112.78 159.104,134.946 128.5,149C 104.218,157.519 82.5512,153.352 63.5,136.5C 60.8712,133.369 58.0379,130.369 55,127.5C 48.7804,119.395 44.4471,110.395 42,100.5C 39.35,87.5829 43.1833,77.0829 53.5,69C 58.2628,66.2024 62.7628,63.0357 67,59.5C 72.2535,41.9564 83.7535,35.4564 101.5,40C 116.741,46.4489 130.074,55.6156 141.5,67.5 Z"/></g>
<g><path style="opacity:1" fill="#73b4c6" d="M 162.5,48.5 C 171.763,58.6955 177.596,70.6955 180,84.5C 184.95,127.105 168.117,157.605 129.5,176C 97.2261,186.924 68.5594,181.091 43.5,158.5C 43.5858,157.504 43.2524,156.671 42.5,156C 49.0893,148.905 56.0893,142.405 63.5,136.5C 82.5512,153.352 104.218,157.519 128.5,149C 159.104,134.946 166.938,112.78 152,82.5C 148.49,77.4709 144.99,72.4709 141.5,67.5C 141.833,63.8333 143.833,61.8333 147.5,61.5C 147.351,60.448 147.517,59.448 148,58.5C 151.5,55 155,51.5 158.5,48C 159.928,47.4209 161.262,47.5876 162.5,48.5 Z"/></g>
<g><path style="opacity:1" fill="#71b1c2" d="M 114.5,145.5 C 110.116,145.826 105.783,145.492 101.5,144.5C 104.484,141.015 107.651,137.682 111,134.5C 111.21,136.058 111.71,137.391 112.5,138.5C 114.011,140.441 116.011,140.941 118.5,140C 123.888,137.945 128.054,134.445 131,129.5C 132.293,126.138 131.293,124.138 128,123.5C 125.991,123.758 124.157,124.425 122.5,125.5C 121.226,124.811 121.226,123.977 122.5,123C 121.833,122.667 121.167,122.333 120.5,122C 122.119,121.764 123.119,120.931 123.5,119.5C 127.045,115.035 129.545,110.035 131,104.5C 131.667,101.167 131.667,97.8333 131,94.5C 129.667,93.1667 128.333,93.1667 127,94.5C 126.501,98.1516 126.335,101.818 126.5,105.5C 125.325,105.719 124.325,105.386 123.5,104.5C 124.826,101.136 124.826,97.8028 123.5,94.5C 123.5,92.5 124.5,91.5 126.5,91.5C 128.948,91.9153 130.281,90.9153 130.5,88.5C 128.003,80.8367 123.17,75.17 116,71.5C 114.72,71.6135 113.887,72.2801 113.5,73.5C 114.246,74.7362 114.579,76.0695 114.5,77.5C 110.638,76.5719 106.971,75.0719 103.5,73C 99.1667,72.3333 94.8333,72.3333 90.5,73C 88.9095,74.0458 87.4095,75.2125 86,76.5C 85.2172,78.3185 85.7172,79.6518 87.5,80.5C 89.4872,78.6726 91.8205,77.6726 94.5,77.5C 95.9063,77.9731 96.573,78.9731 96.5,80.5C 84.5852,85.0149 81.5852,93.0149 87.5,104.5C 87.7148,106.179 87.0481,107.179 85.5,107.5C 82.6747,103.78 81.3413,99.4465 81.5,94.5C 79.901,94.2322 78.5676,94.5655 77.5,95.5C 76.8485,96.0906 76.1818,96.7573 75.5,97.5C 74.5344,95.604 74.2011,93.604 74.5,91.5C 74.717,87.0154 76.217,83.0154 79,79.5C 82.2646,75.8935 85.7646,72.7268 89.5,70C 89.3865,68.7202 88.7199,67.8869 87.5,67.5C 71.0932,76.3238 65.7599,89.6571 71.5,107.5C 72.6888,108.429 74.0222,108.762 75.5,108.5C 75.5,106.833 75.5,105.167 75.5,103.5C 79.1232,107.632 83.1232,111.798 87.5,116C 89.4682,117.544 91.6349,118.711 94,119.5C 94.4317,120.6 93.9317,121.267 92.5,121.5C 90.0577,119.87 88.0577,120.203 86.5,122.5C 86.9767,123.478 87.6433,124.311 88.5,125C 96.0025,127.697 103.669,128.197 111.5,126.5C 111.938,126.435 112.272,126.601 112.5,127C 107.894,132.609 102.894,137.942 97.5,143C 95.3225,144.202 92.9892,144.702 90.5,144.5C 72.4072,137.907 59.2405,125.907 51,108.5C 47.7043,99.1526 47.7043,89.8193 51,80.5C 57.6337,74.3539 64.6337,68.6872 72,63.5C 73.884,58.6713 76.0507,54.0046 78.5,49.5C 82.289,46.0544 86.789,44.7211 92,45.5C 94.8333,45.6667 97.6667,45.8333 100.5,46C 121.777,55.2776 137.944,70.1109 149,90.5C 157.887,121.472 146.387,139.805 114.5,145.5 Z"/></g>
<g><path style="opacity:1" fill="#070b0c" d="M 90.5,55.5 C 96.6939,55.0004 101.861,57.0004 106,61.5C 107.015,66.8676 104.682,69.201 99,68.5C 93.0228,69.0855 89.1895,66.5855 87.5,61C 87.8627,58.8077 88.8627,56.9744 90.5,55.5 Z"/></g>
<g><path style="opacity:1" fill="#090e10" d="M 74.5,91.5 C 73.5318,93.6074 73.1984,95.9407 73.5,98.5C 74.8333,98.5 76.1667,98.5 77.5,98.5C 77.5,97.5 77.5,96.5 77.5,95.5C 78.5676,94.5655 79.901,94.2322 81.5,94.5C 81.3413,99.4465 82.6747,103.78 85.5,107.5C 90.3691,114.264 97.0357,117.264 105.5,116.5C 105.67,117.822 105.337,118.989 104.5,120C 98.3961,120.96 98.2294,121.794 104,122.5C 107.282,122.269 110.449,121.603 113.5,120.5C 113.747,122.858 113.081,124.858 111.5,126.5C 103.669,128.197 96.0025,127.697 88.5,125C 87.6433,124.311 86.9767,123.478 86.5,122.5C 88.0577,120.203 90.0577,119.87 92.5,121.5C 93.9317,121.267 94.4317,120.6 94,119.5C 91.6349,118.711 89.4682,117.544 87.5,116C 83.1232,111.798 79.1232,107.632 75.5,103.5C 75.5,105.167 75.5,106.833 75.5,108.5C 74.0222,108.762 72.6888,108.429 71.5,107.5C 65.7599,89.6571 71.0932,76.3238 87.5,67.5C 88.7199,67.8869 89.3865,68.7202 89.5,70C 85.7646,72.7268 82.2646,75.8935 79,79.5C 76.217,83.0154 74.717,87.0154 74.5,91.5 Z"/></g>
<g><path style="opacity:1" fill="#0a0f10" d="M 126.5,91.5 C 125.826,87.8171 124.326,84.4838 122,81.5C 120.89,79.9632 119.39,79.2965 117.5,79.5C 118.5,82.1667 119.5,84.8333 120.5,87.5C 119.127,87.6567 117.793,87.49 116.5,87C 110.726,79.6161 103.392,76.4495 94.5,77.5C 91.8205,77.6726 89.4872,78.6726 87.5,80.5C 85.7172,79.6518 85.2172,78.3185 86,76.5C 87.4095,75.2125 88.9095,74.0458 90.5,73C 94.8333,72.3333 99.1667,72.3333 103.5,73C 106.971,75.0719 110.638,76.5719 114.5,77.5C 114.579,76.0695 114.246,74.7362 113.5,73.5C 113.887,72.2801 114.72,71.6135 116,71.5C 123.17,75.17 128.003,80.8367 130.5,88.5C 130.281,90.9153 128.948,91.9153 126.5,91.5 Z"/></g>
<g><path style="opacity:1" fill="#030506" d="M 96.5,80.5 C 105.57,81.3793 112.07,86.0459 116,94.5C 116.369,108.452 109.536,114.285 95.5,112C 92.3078,109.972 89.6411,107.472 87.5,104.5C 81.5852,93.0149 84.5852,85.0149 96.5,80.5 Z"/></g>
<g><path style="opacity:1" fill="#090e0f" d="M 59.5,82.5 C 63.7933,82.299 65.7933,84.299 65.5,88.5C 65.4057,90.9228 64.9057,93.2562 64,95.5C 58.7664,98.4807 55.933,96.8141 55.5,90.5C 55.6667,89.1667 55.8333,87.8333 56,86.5C 57.3756,85.2949 58.5423,83.9616 59.5,82.5 Z"/></g>
<g><path style="opacity:1" fill="#3a5b64" d="M 74.5,91.5 C 74.2011,93.604 74.5344,95.604 75.5,97.5C 76.1818,96.7573 76.8485,96.0906 77.5,95.5C 77.5,96.5 77.5,97.5 77.5,98.5C 76.1667,98.5 74.8333,98.5 73.5,98.5C 73.1984,95.9407 73.5318,93.6074 74.5,91.5 Z"/></g>
<g><path style="opacity:1" fill="#0c1112" d="M 123.5,119.5 C 121.449,121.038 119.782,120.704 118.5,118.5C 120.667,116.17 122.334,113.503 123.5,110.5C 123,110.167 122.5,109.833 122,109.5C 120.63,111.203 118.964,112.536 117,113.5C 115.72,113.387 114.887,112.72 114.5,111.5C 118.18,106.455 120.18,100.788 120.5,94.5C 121.5,94.5 122.5,94.5 123.5,94.5C 124.826,97.8028 124.826,101.136 123.5,104.5C 124.325,105.386 125.325,105.719 126.5,105.5C 126.335,101.818 126.501,98.1516 127,94.5C 128.333,93.1667 129.667,93.1667 131,94.5C 131.667,97.8333 131.667,101.167 131,104.5C 129.545,110.035 127.045,115.035 123.5,119.5 Z"/></g>
<g><path style="opacity:1" fill="#090e0f" d="M 140.5,94.5 C 143.845,95.3481 145.512,97.5148 145.5,101C 145.74,104.026 144.573,106.192 142,107.5C 139.006,106.19 137.506,103.857 137.5,100.5C 137.467,97.8984 138.467,95.8984 140.5,94.5 Z"/></g>
<g><path style="opacity:1" fill="#6ca9b9" d="M 94.5,77.5 C 103.392,76.4495 110.726,79.6161 116.5,87C 117.793,87.49 119.127,87.6567 120.5,87.5C 119.5,84.8333 118.5,82.1667 117.5,79.5C 119.39,79.2965 120.89,79.9632 122,81.5C 124.326,84.4838 125.826,87.8171 126.5,91.5C 124.5,91.5 123.5,92.5 123.5,94.5C 122.5,94.5 121.5,94.5 120.5,94.5C 120.18,100.788 118.18,106.455 114.5,111.5C 114.887,112.72 115.72,113.387 117,113.5C 118.964,112.536 120.63,111.203 122,109.5C 122.5,109.833 123,110.167 123.5,110.5C 122.334,113.503 120.667,116.17 118.5,118.5C 119.782,120.704 121.449,121.038 123.5,119.5C 123.119,120.931 122.119,121.764 120.5,122C 121.167,122.333 121.833,122.667 122.5,123C 121.226,123.977 121.226,124.811 122.5,125.5C 116.887,128.109 113.554,132.442 112.5,138.5C 111.71,137.391 111.21,136.058 111,134.5C 107.651,137.682 104.484,141.015 101.5,144.5C 105.783,145.492 110.116,145.826 114.5,145.5C 111.686,146.165 108.686,146.498 105.5,146.5C 100.255,146.608 95.2553,145.942 90.5,144.5C 92.9892,144.702 95.3225,144.202 97.5,143C 102.894,137.942 107.894,132.609 112.5,127C 112.272,126.601 111.938,126.435 111.5,126.5C 113.081,124.858 113.747,122.858 113.5,120.5C 110.449,121.603 107.282,122.269 104,122.5C 98.2294,121.794 98.3961,120.96 104.5,120C 105.337,118.989 105.67,117.822 105.5,116.5C 97.0357,117.264 90.3691,114.264 85.5,107.5C 87.0481,107.179 87.7148,106.179 87.5,104.5C 89.6411,107.472 92.3078,109.972 95.5,112C 109.536,114.285 116.369,108.452 116,94.5C 112.07,86.0459 105.57,81.3793 96.5,80.5C 96.573,78.9731 95.9063,77.9731 94.5,77.5 Z"/></g>
<g><path style="opacity:1" fill="#090d0e" d="M 68.5,119.5 C 76.0772,120.08 80.4105,124.08 81.5,131.5C 75.1593,132.002 70.6593,129.335 68,123.5C 67.4209,122.072 67.5876,120.738 68.5,119.5 Z"/></g>
<g><path style="opacity:1" fill="#070b0c" d="M 112.5,138.5 C 113.554,132.442 116.887,128.109 122.5,125.5C 124.157,124.425 125.991,123.758 128,123.5C 131.293,124.138 132.293,126.138 131,129.5C 128.054,134.445 123.888,137.945 118.5,140C 116.011,140.941 114.011,140.441 112.5,138.5 Z"/></g>
<g><path style="opacity:1" fill="#111718" d="M 93.5,131.5 C 100.358,132.127 101.691,134.96 97.5,140C 91.4831,139.46 90.1498,136.627 93.5,131.5 Z"/></g>
</svg>

