<svg id="svg" version="1.1" xmlns="http://www.w3.org/2000/svg" xmlns:xlink="http://www.w3.org/1999/xlink" width="400"
    height="400" viewBox="0, 0, 400,400">
    <g id="svgg">
        <circle r="170" cx="200" cy="200" fill="#74b4c3" />
        <path id="path0"
            d="M193.000 27.235 C 180.829 27.940,174.922 28.488,171.800 29.199 C 170.040 29.600,167.344 30.053,165.809 30.206 C 164.275 30.358,162.198 30.807,161.195 31.202 C 160.191 31.598,158.297 32.052,156.985 32.213 C 155.673 32.373,153.790 32.816,152.800 33.196 C 151.810 33.575,150.192 34.011,149.203 34.163 C 148.215 34.316,146.685 34.777,145.803 35.187 C 144.922 35.598,143.390 36.202,142.400 36.530 C 138.432 37.842,136.527 38.541,135.000 39.247 C 134.120 39.654,132.656 40.171,131.747 40.396 C 130.837 40.622,129.885 41.057,129.630 41.364 C 129.376 41.670,128.680 42.037,128.084 42.178 C 127.094 42.412,119.415 45.967,118.000 46.847 C 117.670 47.052,116.680 47.594,115.800 48.051 C 114.920 48.508,113.375 49.359,112.367 49.941 C 111.358 50.523,109.744 51.429,108.779 51.953 C 107.814 52.477,106.569 53.218,106.012 53.599 C 105.456 53.980,103.944 54.991,102.654 55.846 C 101.364 56.701,99.744 57.804,99.054 58.297 C 93.921 61.969,92.140 63.276,89.549 65.272 C 87.927 66.522,85.880 68.190,85.000 68.980 C 84.120 69.769,82.441 71.266,81.270 72.307 C 74.039 78.731,65.898 87.502,60.200 95.008 C 59.100 96.456,57.899 97.979,57.530 98.391 C 57.162 98.802,56.639 99.558,56.368 100.070 C 56.098 100.581,55.094 101.919,54.138 103.043 C 53.182 104.167,52.397 105.247,52.393 105.443 C 52.386 105.785,50.821 108.302,49.315 110.393 C 48.922 110.939,48.385 111.881,48.122 112.486 C 47.859 113.091,47.445 113.814,47.201 114.093 C 46.680 114.688,45.635 116.585,44.241 119.463 C 43.692 120.598,43.073 121.631,42.866 121.759 C 42.658 121.888,42.368 122.475,42.220 123.065 C 42.072 123.654,41.614 124.565,41.203 125.087 C 40.792 125.610,40.329 126.614,40.176 127.319 C 40.022 128.023,39.559 129.029,39.148 129.554 C 38.737 130.079,38.400 130.817,38.400 131.194 C 38.400 131.572,37.950 132.727,37.400 133.762 C 36.850 134.796,36.400 135.865,36.400 136.137 C 36.400 136.408,36.034 137.344,35.586 138.215 C 35.138 139.087,34.572 140.610,34.327 141.600 C 34.082 142.590,33.573 144.030,33.195 144.800 C 32.817 145.570,32.378 146.914,32.220 147.786 C 32.061 148.659,31.666 149.886,31.341 150.514 C 31.017 151.142,30.489 153.023,30.170 154.694 C 29.850 156.365,29.421 157.934,29.216 158.181 C 29.011 158.427,28.545 160.513,28.180 162.815 C 27.815 165.117,27.358 167.298,27.164 167.663 C 26.970 168.028,26.547 170.818,26.224 173.863 C 25.901 176.908,25.404 180.030,25.119 180.800 C 24.723 181.869,24.600 186.407,24.600 200.000 C 24.600 213.593,24.723 218.131,25.119 219.200 C 25.404 219.970,25.901 223.092,26.224 226.137 C 26.547 229.182,26.970 231.972,27.163 232.337 C 27.357 232.702,27.791 234.710,28.128 236.800 C 28.464 238.890,29.006 241.230,29.332 242.000 C 29.657 242.770,30.055 244.300,30.214 245.400 C 30.374 246.500,30.820 248.030,31.205 248.800 C 31.589 249.570,32.033 251.010,32.191 252.000 C 32.348 252.990,32.723 254.188,33.023 254.663 C 33.324 255.137,33.781 256.397,34.039 257.463 C 34.297 258.528,34.824 259.940,35.211 260.600 C 35.597 261.260,36.044 262.415,36.203 263.166 C 36.362 263.917,36.922 265.339,37.446 266.325 C 37.971 267.312,38.400 268.428,38.400 268.806 C 38.400 269.183,38.749 269.936,39.175 270.478 C 39.602 271.020,40.076 271.989,40.229 272.632 C 40.382 273.274,40.751 274.082,41.049 274.426 C 41.346 274.770,41.798 275.670,42.052 276.426 C 42.306 277.182,42.745 278.070,43.028 278.400 C 43.311 278.730,43.927 279.810,44.396 280.800 C 45.604 283.350,46.684 285.317,47.201 285.907 C 47.445 286.186,47.859 286.909,48.122 287.514 C 48.385 288.119,48.922 289.061,49.315 289.607 C 50.821 291.698,52.386 294.215,52.393 294.557 C 52.397 294.753,53.182 295.833,54.138 296.957 C 55.094 298.081,56.098 299.419,56.368 299.930 C 56.639 300.442,57.162 301.198,57.530 301.609 C 57.899 302.021,59.100 303.544,60.200 304.992 C 64.897 311.179,69.157 315.962,75.683 322.376 C 80.569 327.178,85.679 331.814,88.000 333.549 C 88.770 334.124,89.490 334.688,89.600 334.800 C 89.825 335.031,91.975 336.606,96.400 339.784 C 98.050 340.969,99.760 342.222,100.200 342.569 C 100.640 342.916,101.900 343.764,103.000 344.453 C 104.100 345.143,105.450 346.015,106.000 346.391 C 106.550 346.768,107.630 347.399,108.400 347.794 C 109.170 348.189,109.890 348.646,110.000 348.811 C 110.110 348.975,110.830 349.408,111.600 349.773 C 112.370 350.137,113.900 350.960,115.000 351.600 C 116.100 352.240,117.630 353.047,118.400 353.392 C 119.170 353.738,120.115 354.196,120.500 354.410 C 123.445 356.050,127.780 358.000,128.483 358.000 C 128.823 358.000,129.325 358.269,129.598 358.597 C 129.870 358.926,130.837 359.381,131.747 359.610 C 132.656 359.839,134.120 360.363,135.000 360.774 C 135.880 361.185,137.230 361.647,138.000 361.800 C 138.770 361.953,139.788 362.324,140.263 362.624 C 140.737 362.924,141.997 363.383,143.063 363.644 C 144.128 363.905,145.630 364.425,146.400 364.800 C 147.170 365.176,148.970 365.706,150.400 365.979 C 151.830 366.252,153.207 366.645,153.460 366.853 C 153.713 367.061,155.063 367.408,156.460 367.623 C 157.857 367.839,159.990 368.363,161.200 368.788 C 162.410 369.213,165.108 369.771,167.196 370.027 C 169.284 370.283,171.426 370.658,171.957 370.860 C 178.435 373.322,221.657 373.288,228.163 370.814 C 228.759 370.587,230.991 370.199,233.123 369.950 C 235.256 369.701,237.841 369.169,238.870 368.767 C 239.898 368.365,241.698 367.914,242.870 367.766 C 244.041 367.618,245.720 367.182,246.600 366.798 C 247.480 366.413,249.096 365.969,250.191 365.811 C 251.285 365.653,252.815 365.208,253.591 364.821 C 254.366 364.434,255.872 363.905,256.937 363.644 C 258.003 363.383,259.263 362.924,259.737 362.624 C 260.212 362.324,261.230 361.953,262.000 361.800 C 262.770 361.647,264.120 361.185,265.000 360.774 C 265.880 360.363,267.344 359.839,268.253 359.610 C 269.163 359.381,270.130 358.926,270.402 358.597 C 270.675 358.269,271.177 358.000,271.517 358.000 C 272.229 358.000,276.829 355.926,279.500 354.400 C 279.885 354.180,280.650 353.816,281.200 353.590 C 281.750 353.365,283.280 352.560,284.600 351.801 C 285.920 351.042,287.630 350.127,288.400 349.766 C 289.170 349.405,289.890 348.975,290.000 348.811 C 290.110 348.646,290.830 348.189,291.600 347.794 C 292.370 347.399,293.450 346.768,294.000 346.392 C 294.550 346.016,296.056 345.009,297.346 344.154 C 298.636 343.299,300.256 342.196,300.946 341.703 C 308.897 336.015,312.730 333.108,315.000 331.044 C 315.880 330.245,317.559 328.737,318.730 327.695 C 323.684 323.288,333.479 313.141,336.391 309.400 C 337.075 308.520,338.573 306.597,339.718 305.127 C 340.863 303.657,342.250 301.801,342.800 301.003 C 343.788 299.569,345.938 296.747,346.903 295.618 C 347.176 295.298,347.626 294.578,347.902 294.018 C 348.178 293.458,348.937 292.190,349.588 291.200 C 350.240 290.210,351.156 288.700,351.623 287.844 C 352.091 286.988,352.647 286.088,352.858 285.844 C 353.321 285.309,353.817 284.371,357.265 277.506 C 358.731 274.588,360.043 271.811,360.181 271.336 C 360.318 270.861,360.694 270.254,361.015 269.987 C 361.337 269.720,361.600 269.191,361.600 268.811 C 361.600 268.430,362.022 267.326,362.537 266.356 C 363.053 265.387,363.608 263.875,363.771 262.997 C 363.934 262.118,364.390 260.860,364.785 260.200 C 365.180 259.540,365.630 258.280,365.785 257.400 C 365.940 256.520,366.390 255.260,366.785 254.600 C 367.180 253.940,367.631 252.680,367.788 251.800 C 367.944 250.920,368.396 249.480,368.792 248.600 C 369.188 247.720,369.642 246.010,369.800 244.800 C 369.959 243.590,370.352 241.970,370.674 241.200 C 370.996 240.430,371.529 238.281,371.857 236.424 C 372.185 234.566,372.619 232.737,372.822 232.359 C 373.024 231.981,373.463 229.069,373.797 225.889 C 374.131 222.708,374.629 219.497,374.902 218.753 C 375.631 216.772,375.613 183.174,374.882 181.200 C 374.597 180.430,374.103 177.226,373.785 174.080 C 373.467 170.933,373.029 168.027,372.812 167.622 C 372.595 167.216,372.149 165.226,371.821 163.198 C 371.493 161.170,371.027 159.274,370.786 158.984 C 370.546 158.693,370.095 156.893,369.786 154.983 C 369.477 153.074,369.052 151.304,368.842 151.050 C 368.631 150.797,368.239 149.692,367.971 148.595 C 367.702 147.498,367.170 145.970,366.790 145.200 C 366.409 144.430,365.968 143.170,365.810 142.400 C 365.651 141.630,365.276 140.612,364.976 140.137 C 364.676 139.663,364.212 138.403,363.946 137.337 C 363.680 136.272,363.043 134.608,362.531 133.640 C 362.019 132.673,361.600 131.572,361.600 131.194 C 361.600 130.817,361.251 130.064,360.825 129.522 C 360.398 128.980,359.924 128.011,359.771 127.368 C 359.618 126.726,359.276 125.930,359.012 125.600 C 358.748 125.270,357.647 123.241,356.566 121.090 C 353.812 115.613,353.304 114.671,352.797 114.091 C 352.552 113.811,352.095 112.968,351.782 112.218 C 351.469 111.468,351.027 110.740,350.800 110.600 C 350.574 110.460,349.986 109.622,349.494 108.739 C 347.609 105.350,347.365 104.941,346.892 104.379 C 344.973 102.095,343.600 100.278,343.600 100.021 C 343.600 99.854,343.195 99.245,342.700 98.669 C 342.205 98.093,340.900 96.440,339.800 94.997 C 333.994 87.380,326.396 79.165,319.640 73.200 C 318.021 71.770,316.044 69.993,315.248 69.251 C 314.451 68.508,313.170 67.433,312.400 66.860 C 311.630 66.287,310.081 65.049,308.957 64.109 C 307.833 63.169,306.793 62.400,306.645 62.400 C 306.498 62.400,305.257 61.541,303.889 60.491 C 301.448 58.619,300.149 57.689,298.050 56.310 C 297.472 55.931,296.730 55.434,296.400 55.207 C 294.091 53.615,291.352 52.000,290.962 52.000 C 290.707 52.000,290.272 51.728,289.996 51.395 C 289.720 51.063,288.753 50.432,287.847 49.994 C 286.941 49.555,285.300 48.669,284.200 48.025 C 283.100 47.380,281.930 46.732,281.600 46.585 C 281.270 46.437,279.200 45.449,277.000 44.389 C 274.800 43.329,272.550 42.336,272.000 42.183 C 271.450 42.030,270.703 41.645,270.340 41.327 C 269.977 41.009,268.752 40.504,267.618 40.205 C 266.483 39.905,265.316 39.463,265.025 39.221 C 264.734 38.979,263.479 38.516,262.237 38.193 C 260.995 37.869,259.579 37.351,259.090 37.042 C 258.600 36.732,257.570 36.353,256.800 36.200 C 256.030 36.047,254.983 35.657,254.472 35.333 C 253.962 35.010,252.252 34.481,250.672 34.158 C 249.093 33.834,247.260 33.327,246.600 33.030 C 245.940 32.733,244.327 32.362,243.015 32.206 C 241.703 32.049,239.813 31.602,238.815 31.212 C 237.817 30.821,235.256 30.299,233.123 30.050 C 230.991 29.801,228.761 29.413,228.168 29.188 C 226.706 28.632,216.818 27.722,209.000 27.424 C 205.480 27.290,201.790 27.114,200.800 27.034 C 199.810 26.953,196.300 27.044,193.000 27.235 M216.400 41.600 C 221.130 42.044,226.745 42.766,228.877 43.204 C 231.009 43.642,233.119 44.000,233.565 44.000 C 234.010 44.000,235.686 44.424,237.288 44.943 C 238.889 45.461,241.137 46.006,242.282 46.154 C 243.427 46.302,245.137 46.774,246.082 47.203 C 247.027 47.631,248.160 47.988,248.600 47.995 C 249.040 48.002,250.300 48.450,251.400 48.991 C 252.500 49.532,253.760 49.982,254.200 49.991 C 254.640 50.000,255.900 50.450,257.000 50.991 C 258.100 51.532,259.342 51.981,259.760 51.987 C 260.477 51.999,261.763 52.553,267.356 55.260 C 268.652 55.887,269.935 56.400,270.207 56.400 C 270.479 56.400,270.911 56.652,271.167 56.961 C 271.423 57.269,272.103 57.639,272.677 57.784 C 273.634 58.024,277.527 60.096,281.138 62.288 C 281.942 62.776,283.341 63.539,284.247 63.983 C 285.153 64.427,286.120 65.063,286.396 65.395 C 286.672 65.728,287.101 66.003,287.349 66.007 C 287.787 66.014,290.834 67.902,291.955 68.860 C 292.260 69.121,293.610 70.069,294.955 70.967 C 296.299 71.865,297.695 72.869,298.057 73.200 C 298.418 73.530,299.479 74.340,300.415 75.000 C 307.848 80.243,322.096 94.291,328.004 102.200 C 329.318 103.960,330.671 105.760,331.011 106.200 C 334.245 110.395,337.982 115.981,337.993 116.638 C 337.997 116.879,338.355 117.398,338.790 117.791 C 339.224 118.184,339.698 118.887,339.842 119.353 C 339.987 119.819,340.486 120.740,340.952 121.400 C 342.019 122.912,342.979 124.605,343.788 126.400 C 344.135 127.170,344.600 128.070,344.821 128.400 C 345.042 128.730,345.329 129.314,345.458 129.698 C 345.587 130.082,346.661 132.321,347.846 134.673 C 349.031 137.026,350.000 139.149,350.000 139.391 C 350.000 139.633,350.337 140.491,350.748 141.299 C 351.160 142.106,351.693 143.539,351.934 144.483 C 352.175 145.427,352.738 146.913,353.186 147.785 C 353.634 148.656,354.000 149.739,354.000 150.191 C 354.000 150.642,354.354 151.673,354.787 152.481 C 355.220 153.288,355.743 154.996,355.950 156.275 C 356.156 157.554,356.604 159.320,356.945 160.200 C 357.286 161.080,357.761 162.925,358.000 164.299 C 358.239 165.674,358.682 167.499,358.984 168.356 C 359.287 169.212,359.735 171.921,359.980 174.375 C 360.225 176.829,360.732 179.953,361.105 181.318 C 362.130 185.064,362.119 215.403,361.091 219.058 C 360.711 220.410,360.212 223.380,359.983 225.658 C 359.753 227.936,359.230 230.970,358.819 232.400 C 357.828 235.856,356.843 239.745,356.336 242.200 C 356.109 243.300,355.513 245.280,355.011 246.600 C 354.509 247.920,353.976 249.567,353.826 250.261 C 353.676 250.954,353.204 252.208,352.777 253.046 C 352.350 253.884,352.000 254.798,352.000 255.077 C 352.000 255.918,350.037 260.730,347.789 265.400 C 342.801 275.760,341.576 278.107,340.567 279.231 C 340.255 279.579,340.000 280.019,340.000 280.210 C 340.000 280.401,339.577 281.197,339.060 281.978 C 338.543 282.760,337.560 284.300,336.876 285.400 C 334.886 288.597,332.476 291.977,329.114 296.283 C 328.391 297.208,327.299 298.640,326.686 299.465 C 322.215 305.484,308.644 318.833,301.689 324.053 C 299.990 325.328,298.338 326.603,298.017 326.886 C 297.697 327.169,296.340 328.123,295.001 329.006 C 293.662 329.890,292.305 330.839,291.984 331.117 C 291.663 331.394,290.500 332.180,289.400 332.864 C 288.300 333.547,286.929 334.430,286.354 334.825 C 285.779 335.221,284.699 335.827,283.954 336.173 C 283.209 336.519,281.790 337.340,280.800 337.997 C 279.810 338.654,278.280 339.551,277.400 339.991 C 276.520 340.430,275.530 340.957,275.200 341.161 C 274.870 341.364,273.520 342.014,272.200 342.605 C 269.572 343.781,266.230 345.318,262.760 346.948 C 261.528 347.527,260.178 348.006,259.760 348.013 C 259.342 348.019,258.100 348.468,257.000 349.009 C 255.900 349.550,254.640 349.996,254.200 350.000 C 253.760 350.004,252.500 350.450,251.400 350.991 C 250.300 351.532,249.130 351.981,248.800 351.989 C 248.470 351.997,246.940 352.449,245.400 352.993 C 243.860 353.538,242.106 353.987,241.502 353.992 C 240.897 353.996,239.344 354.367,238.049 354.815 C 235.048 355.853,227.262 357.211,216.000 358.661 C 208.483 359.629,191.514 359.628,184.000 358.661 C 173.105 357.257,164.352 355.758,162.473 354.973 C 161.703 354.651,159.824 354.194,158.298 353.957 C 156.772 353.720,154.775 353.187,153.862 352.772 C 152.948 352.357,151.840 352.012,151.400 352.005 C 150.960 351.998,149.700 351.550,148.600 351.009 C 147.500 350.468,146.240 350.018,145.800 350.009 C 145.360 350.000,144.100 349.550,143.000 349.009 C 141.900 348.468,140.658 348.019,140.240 348.013 C 139.822 348.006,138.472 347.530,137.240 346.957 C 131.780 344.413,130.844 343.983,128.200 342.799 C 126.660 342.110,125.130 341.376,124.800 341.168 C 124.470 340.960,123.480 340.431,122.600 339.992 C 121.720 339.553,120.010 338.564,118.800 337.794 C 117.590 337.025,116.060 336.126,115.400 335.796 C 114.740 335.467,113.390 334.664,112.400 334.012 C 111.410 333.360,109.942 332.466,109.137 332.024 C 108.332 331.583,107.612 331.082,107.537 330.911 C 107.462 330.740,106.320 329.888,105.000 329.017 C 103.680 328.147,102.298 327.157,101.929 326.817 C 101.561 326.478,100.601 325.750,99.798 325.200 C 98.341 324.203,94.219 320.808,90.800 317.789 C 88.823 316.043,81.355 308.568,78.200 305.176 C 76.207 303.033,73.279 299.471,71.000 296.416 C 70.340 295.531,69.440 294.375,69.000 293.848 C 67.887 292.512,64.605 287.798,63.119 285.400 C 62.438 284.300,61.457 282.760,60.940 281.978 C 60.423 281.197,60.000 280.401,60.000 280.210 C 60.000 280.019,59.748 279.579,59.441 279.231 C 58.668 278.358,57.093 275.559,55.372 272.000 C 54.575 270.350,53.039 267.239,51.961 265.087 C 50.882 262.935,50.000 260.948,50.000 260.672 C 50.000 260.395,49.663 259.509,49.252 258.701 C 48.840 257.894,48.293 256.400,48.037 255.380 C 47.780 254.360,47.324 253.137,47.024 252.663 C 46.724 252.188,46.350 251.170,46.194 250.400 C 46.037 249.630,45.558 248.218,45.128 247.263 C 44.698 246.307,44.195 244.595,44.010 243.459 C 43.825 242.322,43.297 240.275,42.837 238.909 C 42.376 237.543,42.000 235.998,42.000 235.475 C 42.000 234.953,41.645 233.492,41.210 232.230 C 40.776 230.967,40.227 228.014,39.991 225.667 C 39.754 223.320,39.258 220.320,38.887 219.000 C 37.864 215.359,37.896 185.122,38.926 181.022 C 39.311 179.494,39.808 176.434,40.033 174.222 C 40.257 172.010,40.768 169.120,41.168 167.800 C 41.568 166.480,42.021 164.538,42.174 163.485 C 42.328 162.431,42.696 160.990,42.992 160.282 C 43.287 159.574,43.740 157.835,43.997 156.419 C 44.253 155.002,44.809 153.166,45.232 152.338 C 45.654 151.509,46.000 150.503,46.000 150.101 C 46.000 149.698,46.366 148.656,46.814 147.785 C 47.262 146.913,47.825 145.427,48.066 144.483 C 48.307 143.539,48.840 142.106,49.252 141.299 C 49.663 140.491,50.000 139.605,50.000 139.328 C 50.000 139.052,50.882 137.065,51.961 134.913 C 53.039 132.761,54.575 129.650,55.372 128.000 C 57.093 124.441,58.668 121.642,59.441 120.769 C 59.748 120.421,60.003 119.971,60.007 119.769 C 60.011 119.566,60.506 118.662,61.107 117.761 C 61.708 116.860,62.650 115.366,63.200 114.443 C 64.137 112.869,67.555 107.988,68.972 106.200 C 69.321 105.760,70.681 103.960,71.995 102.200 C 77.658 94.616,90.642 81.673,98.311 75.967 C 100.010 74.703,101.670 73.428,102.000 73.134 C 102.331 72.840,103.701 71.865,105.045 70.967 C 106.390 70.069,107.740 69.119,108.045 68.857 C 108.350 68.594,109.500 67.820,110.600 67.136 C 111.700 66.453,113.071 65.570,113.646 65.175 C 114.221 64.779,115.301 64.167,116.046 63.814 C 116.791 63.461,118.058 62.773,118.862 62.286 C 122.508 60.078,126.369 58.023,127.323 57.784 C 127.897 57.639,128.577 57.269,128.833 56.961 C 129.089 56.652,129.511 56.400,129.770 56.400 C 130.030 56.400,131.133 55.974,132.221 55.452 C 137.817 52.772,139.614 51.999,140.275 51.987 C 140.674 51.981,141.900 51.532,143.000 50.991 C 144.100 50.450,145.360 50.000,145.800 49.991 C 146.240 49.982,147.500 49.532,148.600 48.991 C 149.700 48.450,150.960 48.002,151.400 47.995 C 151.840 47.988,152.973 47.631,153.918 47.203 C 154.863 46.774,156.573 46.302,157.718 46.154 C 158.863 46.006,161.111 45.461,162.712 44.943 C 164.314 44.424,166.024 43.997,166.512 43.994 C 167.001 43.990,169.048 43.640,171.063 43.214 C 173.077 42.789,178.747 42.074,183.663 41.626 C 188.578 41.178,193.410 40.737,194.400 40.647 C 197.675 40.347,207.674 40.780,216.400 41.600 M184.200 78.429 C 183.100 78.614,181.412 79.043,180.450 79.382 C 179.487 79.722,178.276 80.000,177.758 80.000 C 176.808 80.000,172.758 81.437,169.800 82.823 C 168.920 83.235,167.750 83.760,167.200 83.990 C 165.827 84.562,161.306 87.297,158.467 89.272 C 157.734 89.783,156.100 91.035,154.837 92.056 C 151.682 94.606,149.780 95.496,146.771 95.829 C 145.357 95.985,142.889 96.537,141.288 97.056 C 139.686 97.575,138.115 98.000,137.797 98.000 C 137.243 98.000,133.715 99.495,131.600 100.626 C 128.425 102.324,127.541 102.969,124.984 105.459 C 118.022 112.236,116.731 115.008,120.200 115.736 C 121.080 115.921,123.240 116.487,125.000 116.994 C 129.937 118.418,133.028 119.150,137.600 119.979 C 139.910 120.398,142.873 121.024,144.184 121.370 C 145.495 121.717,147.252 122.000,148.088 122.000 C 148.924 122.000,151.182 122.349,153.104 122.775 C 155.027 123.202,159.840 123.839,163.800 124.193 C 167.760 124.546,171.810 125.009,172.800 125.221 C 179.003 126.554,232.561 126.555,237.800 125.222 C 238.680 124.999,242.280 124.538,245.800 124.199 C 249.320 123.859,253.221 123.323,254.468 123.007 C 255.715 122.691,258.145 122.255,259.868 122.037 C 261.591 121.820,263.720 121.386,264.600 121.074 C 265.480 120.762,267.550 120.281,269.200 120.005 C 270.850 119.730,272.650 119.278,273.200 119.001 C 273.750 118.724,275.100 118.301,276.200 118.060 C 278.427 117.574,282.639 115.921,283.276 115.284 C 284.075 114.485,278.390 108.000,276.890 108.000 C 276.689 108.000,276.198 107.640,275.800 107.200 C 275.402 106.760,274.864 106.400,274.606 106.400 C 274.347 106.400,273.250 105.948,272.168 105.396 C 271.086 104.843,269.549 104.212,268.753 103.994 C 265.326 103.055,262.111 101.195,259.000 98.351 C 257.240 96.743,255.459 95.150,255.043 94.813 C 254.627 94.476,253.703 93.705,252.990 93.100 C 252.277 92.495,251.515 92.000,251.296 92.000 C 251.077 92.000,250.672 91.728,250.396 91.395 C 247.968 88.470,238.331 85.903,227.200 85.216 C 221.096 84.839,218.558 84.327,215.400 82.835 C 211.394 80.942,206.100 78.979,203.400 78.386 C 201.393 77.946,186.889 77.978,184.200 78.429 M160.023 99.700 C 161.485 101.453,159.916 103.991,157.987 102.993 C 155.788 101.856,155.715 100.402,157.800 99.262 C 158.936 98.640,159.178 98.688,160.023 99.700 M152.900 107.523 C 153.824 108.316,153.789 109.470,152.826 109.986 C 150.413 111.277,148.783 109.140,150.491 106.924 C 150.904 106.389,151.855 106.625,152.900 107.523 M139.669 108.262 C 141.276 109.716,140.158 112.327,138.044 112.056 C 136.659 111.879,136.132 111.399,135.878 110.088 C 135.469 107.979,138.006 106.757,139.669 108.262 M162.569 114.800 C 163.383 114.800,164.074 116.714,163.588 117.623 C 163.060 118.608,161.152 118.653,160.294 117.700 C 159.456 116.769,160.400 114.161,161.432 114.557 C 161.780 114.691,162.292 114.800,162.569 114.800 M147.687 115.831 C 148.307 117.191,147.698 118.162,146.126 118.320 C 144.573 118.477,143.846 117.610,144.196 116.016 C 144.565 114.337,146.949 114.210,147.687 115.831 M109.970 117.733 C 103.302 120.752,101.903 131.790,107.401 138.000 C 109.160 139.987,108.465 142.759,105.367 146.105 C 101.826 149.929,101.800 149.994,101.800 154.852 C 101.800 159.942,102.342 161.059,105.236 161.933 C 106.206 162.226,107.843 162.811,108.874 163.233 C 109.905 163.655,111.171 164.000,111.687 164.000 C 112.203 164.000,113.610 164.275,114.813 164.612 C 116.016 164.948,119.070 165.561,121.600 165.974 C 124.130 166.387,127.273 167.011,128.584 167.362 C 129.895 167.713,131.630 168.000,132.439 168.000 C 133.248 168.000,136.225 168.436,139.055 168.968 C 141.885 169.501,145.640 170.050,147.400 170.188 C 149.160 170.327,151.680 170.685,153.000 170.983 C 154.320 171.282,157.020 171.642,159.000 171.783 C 164.316 172.161,171.100 172.761,177.200 173.392 C 188.975 174.609,229.316 174.391,239.000 173.058 C 241.420 172.725,245.830 172.252,248.800 172.008 C 251.770 171.763,255.190 171.308,256.400 170.997 C 257.610 170.685,260.130 170.253,262.000 170.035 C 263.870 169.817,266.824 169.270,268.564 168.820 C 270.304 168.369,272.238 168.000,272.862 168.000 C 273.486 168.000,275.033 167.649,276.298 167.220 C 277.564 166.791,279.770 166.237,281.200 165.988 C 282.630 165.739,284.340 165.282,285.000 164.973 C 285.660 164.664,287.172 164.228,288.360 164.004 C 289.549 163.781,290.719 163.436,290.960 163.237 C 291.202 163.039,292.300 162.617,293.400 162.300 C 297.188 161.207,297.504 156.581,294.219 150.302 C 291.631 145.354,291.681 144.540,295.017 137.400 C 298.490 129.963,297.287 123.670,291.600 119.539 C 289.713 118.168,287.380 117.821,286.266 118.745 C 285.627 119.276,280.721 121.006,277.566 121.814 C 276.338 122.128,274.688 122.655,273.901 122.984 C 273.113 123.313,271.175 123.783,269.595 124.028 C 268.014 124.273,266.154 124.710,265.460 124.998 C 264.767 125.286,263.120 125.648,261.800 125.801 C 260.480 125.955,257.780 126.433,255.800 126.864 C 253.820 127.295,250.256 127.819,247.880 128.027 C 245.503 128.236,241.993 128.674,240.080 129.000 C 229.312 130.835,180.292 130.836,170.200 129.001 C 168.440 128.681,164.660 128.235,161.800 128.011 C 158.940 127.787,155.340 127.331,153.800 126.998 C 152.260 126.665,149.380 126.210,147.400 125.988 C 145.420 125.765,142.990 125.326,142.000 125.011 C 141.010 124.696,138.670 124.224,136.800 123.961 C 134.930 123.698,132.427 123.149,131.237 122.742 C 130.048 122.334,128.650 122.000,128.130 122.000 C 127.610 122.000,125.897 121.550,124.323 121.000 C 122.749 120.450,121.087 119.992,120.630 119.982 C 120.174 119.973,119.170 119.718,118.400 119.417 C 113.268 117.409,111.477 117.051,109.970 117.733 M107.600 168.110 C 106.753 168.541,106.550 169.016,106.275 171.210 C 106.096 172.634,105.682 175.510,105.354 177.600 C 104.684 181.864,104.237 185.440,103.602 191.600 C 103.364 193.910,103.004 196.880,102.802 198.200 C 102.599 199.520,102.151 205.370,101.806 211.200 C 101.461 217.030,101.001 222.970,100.784 224.400 C 100.203 228.234,99.560 261.920,99.860 272.836 C 100.155 283.587,100.119 283.849,98.042 286.124 C 90.866 293.984,93.104 299.483,103.062 298.457 C 107.631 297.986,116.937 298.378,119.883 299.165 C 120.717 299.388,123.290 299.755,125.600 299.981 C 127.910 300.207,130.790 300.653,132.000 300.973 C 133.210 301.293,136.090 301.753,138.400 301.995 C 140.710 302.236,143.652 302.697,144.939 303.019 C 146.225 303.340,149.195 303.773,151.539 303.980 C 153.882 304.187,158.590 304.712,162.000 305.145 C 180.005 307.436,220.086 307.438,237.364 305.148 C 240.644 304.713,245.312 304.183,247.738 303.970 C 250.164 303.758,253.150 303.333,254.374 303.027 C 255.598 302.720,258.490 302.263,260.800 302.011 C 263.110 301.758,266.465 301.203,268.255 300.776 C 270.045 300.349,272.385 299.997,273.455 299.993 C 274.525 299.989,276.660 299.713,278.200 299.380 C 282.738 298.398,291.199 297.956,296.216 298.440 C 301.573 298.957,303.056 298.659,304.300 296.816 C 305.932 294.396,304.851 289.989,301.796 286.617 C 300.808 285.526,299.980 284.446,299.956 284.217 C 299.932 283.988,299.860 274.260,299.795 262.600 C 299.713 247.689,299.495 239.323,299.062 234.400 C 298.723 230.550,298.331 224.430,298.191 220.800 C 297.923 213.863,296.928 201.330,296.603 200.805 C 296.498 200.635,296.231 197.640,296.008 194.148 C 295.786 190.657,295.422 187.170,295.200 186.400 C 294.978 185.630,294.527 182.390,294.197 179.200 C 293.496 172.412,293.346 171.606,292.353 169.291 L 291.607 167.550 289.703 167.827 C 288.657 167.980,286.900 168.437,285.800 168.843 C 284.700 169.249,282.540 169.847,281.000 170.172 C 279.460 170.497,277.120 171.027,275.800 171.350 C 274.480 171.674,271.960 172.242,270.200 172.614 C 267.071 173.274,265.690 173.521,260.400 174.365 C 258.970 174.593,256.938 174.960,255.884 175.181 C 254.830 175.401,251.500 175.778,248.484 176.017 C 245.468 176.256,241.470 176.715,239.600 177.037 C 230.747 178.558,182.780 178.557,172.800 177.034 C 170.710 176.716,166.120 176.260,162.600 176.022 C 159.080 175.785,155.210 175.415,154.000 175.201 C 152.790 174.987,150.270 174.623,148.400 174.391 C 143.321 173.761,140.026 173.268,137.840 172.811 C 136.762 172.586,134.242 172.207,132.240 171.969 C 130.238 171.732,127.261 171.191,125.625 170.769 C 123.988 170.346,122.041 170.000,121.298 170.000 C 120.555 170.000,118.204 169.564,116.074 169.031 C 110.798 167.710,108.810 167.495,107.600 168.110 M207.800 192.940 C 208.900 193.268,210.875 193.751,212.189 194.015 C 213.503 194.278,215.210 194.833,215.983 195.247 C 216.756 195.661,217.601 196.000,217.862 196.000 C 218.578 196.000,223.873 198.765,224.420 199.424 C 224.683 199.741,225.101 200.001,225.349 200.002 C 226.809 200.009,234.350 207.179,237.635 211.684 C 240.219 215.226,244.000 222.552,244.000 224.015 C 244.000 224.471,244.365 225.646,244.812 226.627 C 246.633 230.623,246.796 247.727,245.046 251.111 C 244.729 251.725,244.341 252.941,244.185 253.814 C 244.030 254.686,243.583 256.030,243.192 256.800 C 242.801 257.570,242.021 259.193,241.457 260.408 C 238.947 265.812,231.851 274.346,228.293 276.239 C 226.805 277.030,219.993 274.519,218.390 272.588 C 218.122 272.265,217.725 272.000,217.509 272.000 C 217.292 272.000,216.617 271.595,216.008 271.100 C 213.202 268.819,207.600 266.108,205.031 265.787 C 202.091 265.419,202.000 265.204,202.000 258.603 L 202.000 253.153 203.300 251.510 C 206.409 247.582,205.885 247.822,211.123 247.931 C 216.655 248.046,219.151 247.055,223.096 243.178 C 225.258 241.052,225.892 240.107,228.261 235.469 L 229.522 233.000 228.179 231.625 L 226.837 230.251 222.319 230.271 C 217.161 230.294,213.513 231.303,210.355 233.581 C 208.594 234.851,206.000 237.778,206.000 238.496 C 206.000 238.707,205.745 239.446,205.433 240.140 C 205.121 240.833,204.479 242.300,204.006 243.400 C 202.447 247.031,202.000 245.295,202.000 235.607 L 202.000 227.366 203.775 225.406 C 206.853 222.005,208.366 216.175,207.075 212.690 C 206.730 211.760,206.240 210.196,205.986 209.214 C 205.731 208.232,205.180 206.993,204.761 206.460 C 204.343 205.928,204.000 205.337,204.000 205.147 C 204.000 204.273,201.031 200.773,200.088 200.536 C 198.959 200.253,197.196 201.920,195.578 204.800 C 195.145 205.570,194.630 206.470,194.433 206.800 C 190.543 213.313,191.179 220.886,196.070 226.291 L 197.600 227.982 197.594 236.291 C 197.591 240.861,197.450 244.817,197.281 245.083 C 196.809 245.825,194.795 243.055,194.214 240.864 C 192.509 234.438,185.979 230.374,177.200 230.274 C 171.152 230.205,168.908 231.688,170.550 234.671 C 170.891 235.292,171.444 236.371,171.778 237.068 C 175.260 244.350,180.904 248.053,188.396 247.970 C 193.445 247.915,193.855 248.117,196.434 251.920 L 197.600 253.640 197.600 260.396 C 197.600 268.101,197.832 267.636,193.845 267.910 C 190.607 268.132,188.744 269.015,185.200 272.007 C 176.421 279.419,175.063 279.911,171.600 276.937 C 171.270 276.653,170.100 275.652,169.000 274.711 C 160.865 267.752,155.241 257.696,153.586 247.147 C 151.679 234.988,153.279 226.681,159.961 214.060 C 161.420 211.303,167.868 204.445,171.901 201.360 C 173.829 199.885,180.572 196.000,181.203 196.000 C 181.538 196.000,182.439 195.667,183.206 195.261 C 183.973 194.854,186.850 194.048,189.600 193.470 C 192.350 192.891,194.960 192.332,195.400 192.228 C 196.994 191.850,205.848 192.358,207.800 192.940 "
            stroke="none" fill="#07090a" fill-rule="evenodd"></path>
    </g>
</svg>
