<?xml version="1.0" encoding="UTF-8"?>
<!DOCTYPE svg PUBLIC "-//W3C//DTD SVG 1.1//EN" "http://www.w3.org/Graphics/SVG/1.1/DTD/svg11.dtd">
<svg xmlns="http://www.w3.org/2000/svg" version="1.1" width="200px" height="200px" style="shape-rendering:geometricPrecision; text-rendering:geometricPrecision; image-rendering:optimizeQuality; fill-rule:evenodd; clip-rule:evenodd" xmlns:xlink="http://www.w3.org/1999/xlink">
<g><path style="opacity:0.866" fill="#030505" d="M 89.5,11.5 C 135.636,9.51559 167.136,29.8489 184,72.5C 193.724,107.312 186.224,137.812 161.5,164C 127.724,192.236 91.3908,195.903 52.5,175C 13.8047,146.368 2.63808,109.201 19,63.5C 33.3367,33.6534 56.8367,16.3201 89.5,11.5 Z"/></g>
<g><path style="opacity:1" fill="#73b5c7" d="M 88.5,18.5 C 127.159,16.0491 155.659,31.7158 174,65.5C 189.102,106.018 179.936,139.851 146.5,167C 116.079,185.914 85.4122,186.247 54.5,168C 20.4583,141.367 10.625,107.533 25,66.5C 38.3655,39.943 59.5321,23.943 88.5,18.5 Z"/></g>
<g><path style="opacity:1" fill="#0c1213" d="M 157.5,121.5 C 117.476,121.81 77.4761,121.477 37.5,120.5C 24.142,113.068 20.642,102.401 27,88.5C 30.2008,84.6384 34.0341,81.4718 38.5,79C 78.1667,78.3333 117.833,78.3333 157.5,79C 176.223,86.5015 180.056,98.6682 169,115.5C 165.507,118.163 161.673,120.163 157.5,121.5 Z"/></g>
<g><path style="opacity:1" fill="#72b3c5" d="M 160.5,116.5 C 120.191,117.477 79.8572,117.81 39.5,117.5C 31.5299,114.245 27.5299,108.245 27.5,99.5C 27.3691,91.9325 30.7025,86.4325 37.5,83C 57.938,81.8502 78.438,81.3502 99,81.5C 118.5,81.6667 138,81.8333 157.5,82C 172.037,87.8526 175.537,97.6859 168,111.5C 166.143,114.2 163.643,115.866 160.5,116.5 Z"/></g>
<g><path style="opacity:1" fill="#2b434a" d="M 47.5,88.5 C 44.0977,88.3424 40.7644,88.6758 37.5,89.5C 37.6107,88.8826 37.944,88.3826 38.5,88C 41.6965,87.1955 44.6965,87.3622 47.5,88.5 Z"/></g>
<g><path style="opacity:1" fill="#0f1517" d="M 47.5,88.5 C 54.3217,92.1582 55.9884,97.4915 52.5,104.5C 53.7283,107.238 55.5617,109.571 58,111.5C 58.7494,112.635 58.5827,113.635 57.5,114.5C 55.0163,112.517 52.6829,110.35 50.5,108C 37.8293,111.674 31.9959,106.84 33,93.5C 34.3712,91.9586 35.8712,90.6253 37.5,89.5C 40.7644,88.6758 44.0977,88.3424 47.5,88.5 Z"/></g>
<g><path style="opacity:1" fill="#558592" d="M 47.5,92.5 C 44.0977,92.3424 40.7644,92.6758 37.5,93.5C 40.5524,90.0205 43.8857,89.6872 47.5,92.5 Z"/></g>
<g><path style="opacity:1" fill="#6faebf" d="M 47.5,92.5 C 51.1422,95.8713 51.4755,99.7047 48.5,104C 39.3359,108.148 35.1693,105.314 36,95.5C 36.2784,94.5842 36.7784,93.9175 37.5,93.5C 40.7644,92.6758 44.0977,92.3424 47.5,92.5 Z"/></g>
<g><path style="opacity:1" fill="#66a0b0" d="M 160.5,116.5 C 159.737,117.268 158.737,117.768 157.5,118C 117.998,118.831 78.6645,118.665 39.5,117.5C 79.8572,117.81 120.191,117.477 160.5,116.5 Z"/></g>
<g><path style="opacity:1" fill="#3b5d67" d="M 37.5,120.5 C 77.4761,121.477 117.476,121.81 157.5,121.5C 118.669,122.665 79.6688,122.831 40.5,122C 39.2625,121.768 38.2625,121.268 37.5,120.5 Z"/></g>
</svg>

