<?xml version="1.0" encoding="UTF-8"?>
<!DOCTYPE svg PUBLIC "-//W3C//DTD SVG 1.1//EN" "http://www.w3.org/Graphics/SVG/1.1/DTD/svg11.dtd">
<svg xmlns="http://www.w3.org/2000/svg" version="1.1" width="200px" height="200px" style="shape-rendering:geometricPrecision; text-rendering:geometricPrecision; image-rendering:optimizeQuality; fill-rule:evenodd; clip-rule:evenodd" xmlns:xlink="http://www.w3.org/1999/xlink">
<g><path style="opacity:0.866" fill="#030505" d="M 89.5,11.5 C 135.636,9.51559 167.136,29.8489 184,72.5C 193.724,107.312 186.224,137.812 161.5,164C 127.724,192.236 91.3908,195.903 52.5,175C 13.8047,146.368 2.63808,109.201 19,63.5C 33.3367,33.6534 56.8367,16.3201 89.5,11.5 Z"/></g>
<g><path style="opacity:1" fill="#73b4c6" d="M 88.5,18.5 C 127.159,16.0491 155.659,31.7158 174,65.5C 189.102,106.018 179.936,139.851 146.5,167C 116.079,185.914 85.4122,186.247 54.5,168C 20.4583,141.367 10.625,107.533 25,66.5C 38.3655,39.943 59.5321,23.943 88.5,18.5 Z"/></g>
<g><path style="opacity:1" fill="#141617" d="M 78.5,33.5 C 78.0472,34.4584 77.3805,35.2917 76.5,36C 72.3317,38.0895 67.9983,39.5895 63.5,40.5C 62.6037,36.486 64.2704,33.6526 68.5,32C 71.406,30.6815 74.406,30.3482 77.5,31C 78.2524,31.6708 78.5858,32.5041 78.5,33.5 Z"/></g>
<g><path style="opacity:1" fill="#111213" d="M 80.5,36.5 C 88.0141,54.3656 95.6808,72.1989 103.5,90C 103.355,90.772 103.022,91.4387 102.5,92C 99.2985,93.5072 96.1319,95.0072 93,96.5C 91.9066,94.7018 90.4066,93.8685 88.5,94C 80.2456,104.558 79.4122,115.724 86,127.5C 88.0639,128.591 90.2305,128.758 92.5,128C 102.181,122.905 112.181,118.405 122.5,114.5C 124.767,115.362 125.767,117.029 125.5,119.5C 117.529,122.886 109.529,126.386 101.5,130C 98.9595,131.04 97.2929,132.874 96.5,135.5C 94.2385,133.054 91.4052,132.054 88,132.5C 86.1667,132.667 84.3333,132.833 82.5,133C 80.7567,135.064 78.7567,135.564 76.5,134.5C 67.5766,121.357 67.2432,108.024 75.5,94.5C 79.5099,89.6588 83.6766,84.9922 88,80.5C 91.0811,69.0584 86.5811,63.0584 74.5,62.5C 71.4855,55.7695 68.4855,49.1028 65.5,42.5C 70.3935,40.2194 75.3935,38.2194 80.5,36.5 Z"/></g>
<g><path style="opacity:1" fill="#54828f" d="M 78.5,33.5 C 79.4013,34.2905 80.0679,35.2905 80.5,36.5C 75.3935,38.2194 70.3935,40.2194 65.5,42.5C 64.8333,41.8333 64.1667,41.1667 63.5,40.5C 67.9983,39.5895 72.3317,38.0895 76.5,36C 77.3805,35.2917 78.0472,34.4584 78.5,33.5 Z"/></g>
<g><path style="opacity:1" fill="#121314" d="M 74.5,65.5 C 86.3236,65.4923 89.8236,70.8256 85,81.5C 78.5967,86.1569 73.2634,85.1569 69,78.5C 68.3333,75.8333 68.3333,73.1667 69,70.5C 70.7297,68.5981 72.563,66.9314 74.5,65.5 Z"/></g>
<g><path style="opacity:1" fill="#141718" d="M 109.5,90.5 C 112.423,91.1634 113.09,92.8301 111.5,95.5C 104.986,99.596 97.9865,102.263 90.5,103.5C 90.238,102.022 90.5713,100.689 91.5,99.5C 97.686,96.4651 103.686,93.4651 109.5,90.5 Z"/></g>
<g><path style="opacity:1" fill="#1c2326" d="M 103.5,100.5 C 104.833,100.5 106.167,100.5 107.5,100.5C 107.421,101.93 107.754,103.264 108.5,104.5C 108.167,105.5 107.5,106.167 106.5,106.5C 104.749,104.936 103.749,102.936 103.5,100.5 Z"/></g>
<g><path style="opacity:1" fill="#171b1c" d="M 99.5,102.5 C 101.619,103.986 103.119,105.986 104,108.5C 104.494,110.134 104.66,111.801 104.5,113.5C 103.178,113.67 102.011,113.337 101,112.5C 100,110.5 99,108.5 98,106.5C 97.516,104.807 98.016,103.473 99.5,102.5 Z"/></g>
<g><path style="opacity:1" fill="#131516" d="M 110.5,143.5 C 109.761,143.631 109.094,143.464 108.5,143C 112.104,141.666 113.271,139.166 112,135.5C 109.359,134.79 106.859,134.456 104.5,134.5C 109.557,131.404 114.891,128.571 120.5,126C 122.367,125.289 123.867,125.789 125,127.5C 126.513,130.024 127.18,132.691 127,135.5C 121.703,138.565 116.203,141.231 110.5,143.5 Z"/></g>
<g><path style="opacity:1" fill="#598996" d="M 104.5,134.5 C 106.859,134.456 109.359,134.79 112,135.5C 113.271,139.166 112.104,141.666 108.5,143C 109.094,143.464 109.761,143.631 110.5,143.5C 110.265,144.097 109.765,144.43 109,144.5C 107.989,143.944 107.156,143.278 106.5,142.5C 107.848,141.399 109.348,140.399 111,139.5C 111.783,137.681 111.283,136.348 109.5,135.5C 107.805,136.174 106.138,136.841 104.5,137.5C 103.375,136.348 103.375,135.348 104.5,134.5 Z"/></g>
<g><path style="opacity:1" fill="#0f1010" d="M 139.5,156.5 C 139.5,157.833 139.5,159.167 139.5,160.5C 113.167,160.5 86.8333,160.5 60.5,160.5C 60.1601,157.856 60.8267,155.523 62.5,153.5C 66.4454,152.509 70.4454,152.176 74.5,152.5C 75.6043,147.014 77.771,142.014 81,137.5C 85.6667,133.5 90.3333,133.5 95,137.5C 97.2559,142.09 99.4226,146.756 101.5,151.5C 113.486,152.333 125.486,152.833 137.5,153C 138.823,153.816 139.489,154.983 139.5,156.5 Z"/></g>
<g><path style="opacity:1" fill="#15191a" d="M 106.5,142.5 C 104.94,142.519 103.44,142.852 102,143.5C 98.5179,140.106 99.3512,138.106 104.5,137.5C 106.138,136.841 107.805,136.174 109.5,135.5C 111.283,136.348 111.783,137.681 111,139.5C 109.348,140.399 107.848,141.399 106.5,142.5 Z"/></g>
<g><path style="opacity:1" fill="#4f7985" d="M 139.5,156.5 C 140.451,157.919 140.784,159.585 140.5,161.5C 113.661,161.831 86.9948,161.498 60.5,160.5C 86.8333,160.5 113.167,160.5 139.5,160.5C 139.5,159.167 139.5,157.833 139.5,156.5 Z"/></g>
</svg>

