<svg id="svg" version="1.1" xmlns="http://www.w3.org/2000/svg" xmlns:xlink="http://www.w3.org/1999/xlink" width="400"
    height="400" viewBox="0, 0, 400,400">
    <g id="svgg">
        <path id="path0"
            d="M224.108 31.640 C 220.486 32.558,215.595 34.745,213.612 36.333 L 212.185 37.476 211.200 36.702 C 199.495 27.495,179.054 32.047,169.847 45.910 C 168.040 48.631,167.998 48.663,165.164 49.506 C 142.349 56.293,140.008 89.646,161.523 101.376 C 163.027 102.196,164.320 102.914,164.396 102.971 C 165.378 103.714,163.810 107.186,162.165 107.910 C 158.208 109.651,154.486 112.763,152.660 115.859 C 151.955 117.053,151.835 117.096,148.720 117.268 C 140.137 117.741,137.205 121.416,134.732 134.798 C 132.203 148.485,133.601 153.487,140.849 156.694 L 142.578 157.458 142.578 160.915 C 142.578 168.662,146.909 175.556,154.050 179.174 C 157.491 180.918,159.273 181.287,180.061 184.562 C 190.185 186.156,189.525 185.821,189.375 189.297 L 189.258 191.992 177.930 191.992 C 163.924 191.992,161.580 192.681,157.531 197.991 C 156.310 199.592,156.140 199.678,153.917 199.820 C 149.127 200.126,143.937 204.001,142.922 208.030 C 142.533 209.575,142.222 209.923,140.090 211.203 C 138.773 211.994,136.715 213.298,135.516 214.102 C 134.318 214.905,132.716 215.912,131.957 216.338 C 131.197 216.765,130.215 217.340,129.773 217.615 C 128.905 218.158,130.133 219.205,113.477 203.710 C 108.338 198.930,105.464 196.361,103.768 195.033 C 102.692 194.190,102.675 194.117,103.090 192.182 C 105.201 182.337,100.085 172.568,91.233 169.543 C 87.262 168.186,87.296 168.019,90.124 174.902 C 91.515 178.286,92.729 181.318,92.824 181.641 C 93.080 182.518,82.106 189.396,81.272 188.881 C 81.081 188.763,79.921 186.778,78.693 184.470 C 73.367 174.459,73.421 174.512,71.825 177.701 C 66.237 188.864,74.751 204.297,86.497 204.297 C 87.504 204.297,87.505 204.300,87.275 206.934 L 87.044 209.570 96.727 218.555 C 102.053 223.496,108.630 229.513,111.342 231.925 C 114.054 234.338,116.457 236.716,116.682 237.209 C 120.379 245.322,133.819 246.098,139.047 238.500 C 139.879 237.290,141.723 235.925,146.617 232.898 C 155.239 227.565,154.390 227.591,154.112 232.664 C 152.784 256.920,151.526 286.160,151.669 289.453 C 152.089 299.133,157.991 305.676,167.064 306.523 C 168.421 306.650,169.537 306.772,169.545 306.795 C 169.764 307.445,169.934 332.937,169.739 336.026 L 169.462 340.430 167.251 341.391 C 165.776 342.032,164.066 343.302,162.121 345.200 C 159.250 348.001,159.170 348.047,157.159 348.047 L 155.115 348.047 156.604 345.801 C 165.845 331.860,163.182 312.529,150.443 301.095 C 137.043 289.067,109.414 310.496,99.853 340.332 C 99.486 341.478,41.024 341.375,39.137 340.225 C 37.175 339.028,36.347 336.809,36.337 332.715 L 36.328 329.297 65.947 329.297 L 95.566 329.297 97.565 325.979 L 99.565 322.661 68.044 322.561 L 36.523 322.461 36.523 290.039 L 36.523 257.617 87.598 257.518 L 138.672 257.419 138.672 271.273 L 138.672 285.127 141.065 286.802 C 142.381 287.723,143.759 288.699,144.127 288.971 C 144.755 289.435,144.810 288.129,145.035 267.276 C 145.166 255.073,145.393 244.776,145.539 244.394 C 145.713 243.943,144.569 244.493,142.262 245.972 C 138.847 248.159,138.717 248.296,138.695 249.708 L 138.672 251.175 87.598 251.076 L 36.523 250.977 36.400 247.852 C 36.199 242.750,36.584 240.760,38.090 239.118 L 39.394 237.695 65.498 237.647 C 79.855 237.621,94.909 237.577,98.952 237.550 L 106.303 237.500 103.468 234.375 L 100.632 231.250 69.294 231.250 C 33.989 231.250,36.114 231.074,32.921 234.266 C 29.603 237.584,29.896 232.537,29.781 288.460 C 29.666 344.265,29.449 340.144,32.690 343.748 C 33.666 344.835,35.280 346.202,36.276 346.787 L 38.086 347.852 68.347 347.852 L 98.609 347.852 99.447 351.040 C 100.759 356.037,102.765 358.568,106.839 360.370 C 113.513 363.321,127.193 363.491,136.464 360.738 C 137.541 360.418,138.461 360.156,138.507 360.156 C 138.553 360.156,139.169 361.058,139.876 362.160 C 141.996 365.464,146.477 366.290,164.844 366.763 C 177.443 367.087,244.639 367.188,245.800 366.885 C 246.832 366.615,246.578 365.159,244.762 360.938 C 241.575 353.526,238.631 349.608,233.723 346.246 L 231.445 344.686 231.344 326.434 C 231.264 312.018,231.346 308.153,231.734 308.047 C 239.125 306.027,242.370 303.185,244.214 297.113 C 245.032 294.421,245.035 294.220,244.750 263.174 C 244.511 237.157,244.551 231.994,244.986 232.247 C 245.273 232.415,247.939 234.115,250.911 236.027 C 253.883 237.938,256.520 239.581,256.770 239.678 C 257.021 239.775,257.827 241.013,258.560 242.430 C 263.225 251.438,277.693 251.593,281.755 242.678 C 281.980 242.184,284.383 239.807,287.096 237.394 C 289.808 234.982,296.385 228.965,301.710 224.023 L 311.394 215.039 311.163 212.402 C 310.932 209.769,310.933 209.766,311.940 209.766 C 323.687 209.766,332.201 194.333,326.613 183.169 C 325.017 179.981,325.070 179.928,319.744 189.939 C 318.516 192.247,317.356 194.232,317.166 194.349 C 316.332 194.865,305.357 187.986,305.614 187.109 C 305.708 186.787,306.923 183.755,308.313 180.371 C 311.141 173.488,311.176 173.655,307.205 175.012 C 298.353 178.037,293.236 187.806,295.348 197.651 C 295.763 199.586,295.746 199.659,294.669 200.502 C 292.973 201.830,290.099 204.399,284.961 209.179 C 282.383 211.578,277.859 215.784,274.909 218.527 L 269.544 223.514 268.073 222.360 C 267.264 221.725,264.316 219.661,261.523 217.773 L 256.445 214.340 255.640 211.869 C 254.176 207.376,249.979 203.722,245.655 203.179 C 243.794 202.945,243.645 202.841,243.172 201.463 C 241.036 195.238,236.031 193.452,220.508 193.379 C 217.500 193.364,214.116 193.242,212.988 193.106 L 210.938 192.860 210.938 191.157 C 210.938 190.220,211.011 189.453,211.101 189.453 C 211.191 189.453,217.036 190.419,224.089 191.600 C 237.086 193.775,240.396 194.065,244.185 193.357 C 250.577 192.164,256.313 186.946,258.211 180.598 C 258.688 179.003,259.322 178.534,261.021 178.521 C 263.952 178.498,268.717 175.182,270.260 172.092 C 271.371 169.868,274.219 154.973,274.219 151.389 C 274.219 145.770,270.301 140.709,265.137 139.657 C 264.316 139.490,264.063 139.212,264.063 138.478 C 264.063 136.090,261.558 131.026,258.554 127.343 L 257.120 125.584 257.825 121.917 C 258.546 118.164,258.894 117.595,260.478 117.584 C 267.088 117.541,277.300 109.754,281.414 101.621 C 288.907 86.808,280.950 65.127,265.924 59.414 C 265.239 59.154,264.782 58.628,264.630 57.924 C 260.499 38.876,242.252 27.041,224.108 31.640 M236.587 38.471 C 247.803 40.599,257.813 52.203,257.813 63.077 L 257.813 64.701 260.059 65.406 C 280.174 71.717,282.828 99.627,264.172 108.658 C 260.387 110.490,260.400 110.492,260.938 107.967 C 261.440 105.608,262.481 98.679,262.352 98.550 C 262.300 98.498,261.390 98.783,260.328 99.182 C 254.820 101.256,250.710 101.060,244.239 98.417 C 242.162 97.569,240.419 96.875,240.366 96.875 C 240.270 96.875,240.146 97.590,239.420 102.344 C 239.030 104.898,238.691 106.955,237.862 111.813 C 237.365 114.726,237.595 114.610,234.180 113.669 C 233.535 113.492,231.426 113.062,229.492 112.713 C 227.559 112.365,225.186 111.895,224.219 111.668 C 223.252 111.441,221.846 111.179,221.094 111.084 C 219.893 110.933,211.518 109.322,206.123 108.203 C 205.086 107.988,203.767 107.810,203.193 107.807 C 202.351 107.802,202.262 107.721,202.734 107.390 C 203.201 107.064,203.150 107.028,202.489 107.212 C 202.032 107.340,197.638 106.982,192.724 106.417 C 186.568 105.709,181.829 105.393,177.485 105.401 C 171.786 105.410,171.196 105.349,171.330 104.756 C 171.532 103.862,174.090 89.728,174.489 87.305 L 174.810 85.352 177.542 85.252 C 181.951 85.092,182.641 84.787,180.078 84.131 C 177.136 83.377,173.483 81.540,171.236 79.683 C 168.895 77.749,169.100 77.350,167.523 86.925 C 166.008 96.126,166.380 95.309,164.225 94.166 C 147.654 85.375,152.967 55.859,171.121 55.859 L 172.980 55.859 174.585 52.544 C 178.581 44.287,186.028 39.392,194.727 39.305 C 202.024 39.231,205.791 41.263,210.306 47.710 C 210.852 48.489,210.946 48.438,213.540 45.971 C 220.794 39.068,227.769 36.799,236.587 38.471 M194.255 88.181 C 195.714 88.256,197.999 88.255,199.333 88.179 C 200.666 88.103,199.473 88.042,196.680 88.042 C 193.887 88.043,192.795 88.105,194.255 88.181 M205.766 88.558 C 206.252 88.651,206.955 88.647,207.329 88.550 C 207.702 88.452,207.305 88.375,206.445 88.380 C 205.586 88.384,205.280 88.464,205.766 88.558 M189.648 113.844 C 216.052 118.348,238.905 123.033,243.119 124.807 C 254.518 129.603,255.618 133.965,252.138 160.547 C 249.733 178.910,243.420 186.242,231.353 184.683 C 224.587 183.809,202.671 180.490,189.258 178.307 C 186.035 177.783,178.376 176.572,172.239 175.616 C 159.423 173.620,157.580 173.046,154.284 170.024 C 148.894 165.079,148.877 161.304,154.123 133.594 C 156.144 122.919,157.000 120.907,161.023 117.366 C 167.321 111.822,173.403 111.073,189.648 113.844 M171.782 121.043 C 163.973 123.637,160.916 128.154,158.720 140.342 C 156.556 152.352,157.097 156.820,161.388 162.382 C 165.199 167.323,168.275 168.414,185.938 171.095 C 187.119 171.274,191.338 171.979,195.313 172.662 C 199.287 173.344,203.506 174.054,204.688 174.241 C 205.869 174.427,208.506 174.857,210.547 175.196 C 212.588 175.535,216.543 176.152,219.336 176.568 C 222.129 176.984,224.814 177.421,225.304 177.539 C 233.030 179.408,242.786 174.996,246.110 168.131 C 247.177 165.927,249.596 152.000,249.598 148.047 C 249.604 138.088,243.173 131.235,232.031 129.329 C 218.214 126.964,208.166 125.249,199.971 123.854 C 194.907 122.992,188.930 121.930,186.690 121.494 C 180.529 120.295,174.576 120.115,171.782 121.043 M209.082 121.363 C 209.458 121.461,210.073 121.461,210.449 121.363 C 210.825 121.265,210.518 121.184,209.766 121.184 C 209.014 121.184,208.706 121.265,209.082 121.363 M147.917 125.879 C 146.806 132.393,143.635 149.833,143.544 149.934 C 143.270 150.236,141.853 149.167,141.193 148.160 C 140.224 146.681,140.317 144.768,141.724 137.305 C 142.372 133.867,143.020 130.358,143.164 129.506 C 143.661 126.574,145.315 124.670,147.407 124.625 C 148.013 124.612,148.098 124.821,147.917 125.879 M181.555 137.871 C 182.354 139.043,183.119 140.162,183.255 140.360 C 183.391 140.557,184.446 140.017,185.599 139.158 C 186.752 138.299,188.394 137.163,189.248 136.633 L 190.801 135.669 192.293 137.798 C 194.010 140.249,194.267 139.775,189.551 142.851 C 186.151 145.068,186.189 144.609,189.063 148.728 C 192.032 152.984,192.098 152.563,188.052 155.163 C 187.785 155.334,186.526 153.948,184.800 151.583 L 181.984 147.724 178.315 150.229 C 173.934 153.220,174.325 153.181,172.754 150.779 C 171.105 148.257,170.921 148.612,175.362 145.749 L 179.229 143.257 177.387 140.867 C 175.549 138.482,174.219 136.514,174.219 136.179 C 174.219 136.082,175.142 135.463,176.270 134.804 L 178.320 133.605 179.211 134.674 C 179.701 135.261,180.756 136.700,181.555 137.871 M221.092 142.871 C 221.808 143.892,222.998 145.537,223.736 146.528 L 225.077 148.329 228.415 146.051 C 232.129 143.517,231.959 143.522,233.589 145.891 C 235.136 148.140,235.237 147.929,231.445 150.391 C 227.500 152.952,227.591 152.362,230.474 156.648 L 232.823 160.141 230.962 161.506 C 228.633 163.215,229.075 163.393,226.563 159.732 C 225.381 158.010,224.217 156.314,223.976 155.962 C 223.583 155.391,223.379 155.448,222.023 156.511 C 221.189 157.164,219.481 158.374,218.226 159.202 L 215.943 160.705 215.198 159.747 C 214.789 159.220,214.106 158.216,213.682 157.515 L 212.911 156.240 214.561 155.041 C 215.468 154.381,217.218 153.218,218.449 152.456 C 219.793 151.624,220.580 150.896,220.421 150.633 C 220.274 150.392,219.135 148.818,217.890 147.134 C 215.167 143.454,215.191 143.736,217.480 142.238 C 219.802 140.720,219.551 140.676,221.092 142.871 M265.531 147.754 C 267.283 149.625,267.300 150.294,265.805 158.732 C 264.016 168.832,263.888 169.280,262.463 170.479 C 261.056 171.663,259.614 171.844,259.901 170.801 C 260.005 170.425,260.940 164.888,261.978 158.497 C 263.918 146.565,264.048 146.171,265.531 147.754 M198.047 187.651 C 199.014 187.944,200.914 188.312,202.270 188.469 C 205.868 188.885,204.968 189.150,199.528 189.274 C 194.597 189.387,194.160 189.267,194.147 187.793 C 194.139 186.945,195.550 186.894,198.047 187.651 M94.824 190.484 C 95.737 190.812,96.484 191.232,96.484 191.417 C 96.484 191.925,92.610 195.640,90.728 196.937 L 89.072 198.078 87.896 197.208 C 85.418 195.376,86.946 191.357,90.685 189.874 C 91.677 189.480,92.279 189.569,94.824 190.484 M206.153 192.379 C 205.986 193.036,194.531 192.973,194.531 192.315 C 194.531 191.877,195.619 191.797,200.392 191.884 C 204.016 191.951,206.214 192.140,206.153 192.379 M309.416 196.342 C 312.018 198.100,312.565 201.180,310.542 202.676 L 309.365 203.546 307.710 202.406 C 305.828 201.108,301.953 197.393,301.953 196.886 C 301.953 196.600,303.482 195.931,305.859 195.177 C 306.718 194.905,307.826 195.268,309.416 196.342 M337.930 201.878 L 335.205 204.883 344.770 204.987 C 350.907 205.054,354.249 205.229,354.097 205.476 C 353.952 205.710,350.086 205.859,344.149 205.859 L 334.439 205.859 331.088 209.473 C 329.245 211.460,327.736 213.229,327.735 213.404 C 327.735 213.579,333.228 213.667,339.941 213.599 L 352.148 213.477 354.244 212.316 C 356.611 211.005,358.108 209.092,358.457 206.934 L 358.694 205.469 363.479 205.469 C 368.895 205.469,369.116 205.363,369.424 202.632 C 369.568 201.352,369.430 200.743,368.825 199.995 L 368.038 199.023 354.346 198.949 L 340.655 198.874 337.930 201.878 M188.493 200.020 C 226.090 201.119,231.295 201.387,233.281 202.325 C 236.488 203.840,236.625 204.577,233.864 205.459 C 232.502 205.895,232.436 205.979,233.083 206.452 C 233.756 206.944,233.794 209.067,233.902 251.629 C 234.028 301.623,234.156 298.444,231.944 299.909 L 230.333 300.977 219.561 301.081 C 213.636 301.139,199.473 301.051,188.086 300.886 L 167.383 300.586 165.234 299.471 C 158.524 295.987,158.260 294.665,159.524 270.898 C 160.502 252.506,160.866 244.885,161.715 225.000 C 162.703 201.876,162.567 202.572,166.498 200.613 C 168.884 199.424,168.484 199.435,188.493 200.020 M100.683 201.270 C 103.166 203.453,105.485 205.560,108.756 208.605 C 110.493 210.222,112.881 212.409,114.063 213.464 C 115.244 214.519,117.647 216.745,119.402 218.412 L 122.593 221.441 120.955 222.699 C 120.054 223.391,118.862 224.541,118.306 225.254 L 117.295 226.550 114.995 224.578 C 113.730 223.493,111.377 221.405,109.766 219.938 C 108.154 218.472,105.957 216.511,104.883 215.582 C 103.809 214.653,100.765 211.771,98.118 209.178 L 93.307 204.462 95.189 203.242 C 96.224 202.570,97.496 201.566,98.017 201.010 C 99.179 199.771,98.954 199.749,100.683 201.270 M179.191 205.360 C 179.884 205.446,181.114 205.448,181.925 205.363 C 182.735 205.279,182.168 205.208,180.664 205.206 C 179.160 205.205,178.497 205.274,179.191 205.360 M189.160 205.758 C 190.610 205.834,192.983 205.834,194.434 205.758 C 195.884 205.683,194.697 205.622,191.797 205.622 C 188.896 205.622,187.710 205.683,189.160 205.758 M300.420 206.479 C 300.941 207.035,302.214 208.039,303.249 208.710 L 305.131 209.931 300.319 214.647 C 297.673 217.240,294.629 220.122,293.555 221.051 C 292.480 221.980,290.283 223.940,288.672 225.407 C 287.061 226.874,284.707 228.962,283.442 230.046 L 281.142 232.019 280.132 230.722 C 279.576 230.009,278.384 228.860,277.483 228.168 L 275.844 226.910 279.035 223.881 C 280.791 222.214,283.193 219.988,284.375 218.933 C 285.557 217.877,287.934 215.691,289.658 214.074 C 291.381 212.456,293.994 210.078,295.464 208.789 C 296.934 207.500,298.336 206.232,298.580 205.972 C 299.207 205.303,299.357 205.344,300.420 206.479 M207.520 206.151 C 210.044 206.219,214.175 206.219,216.699 206.151 C 219.224 206.083,217.158 206.027,212.109 206.027 C 207.061 206.027,204.995 206.083,207.520 206.151 M155.225 211.816 C 155.024 217.397,154.796 219.531,154.403 219.531 C 153.344 219.531,150.795 217.725,149.870 216.319 C 147.276 212.377,149.922 206.687,154.366 206.650 L 155.412 206.641 155.225 211.816 M246.503 211.036 C 249.482 213.044,250.287 217.081,248.242 219.761 C 247.266 221.041,245.146 222.651,244.434 222.655 C 244.272 222.656,244.141 219.844,244.141 216.406 C 244.141 209.498,244.159 209.457,246.503 211.036 M143.513 218.652 C 143.892 219.458,144.840 221.051,145.620 222.192 C 146.795 223.911,146.940 224.329,146.468 224.628 C 145.417 225.293,145.049 225.013,143.028 222.009 C 140.834 218.748,140.671 218.208,141.699 217.609 C 142.705 217.023,142.762 217.056,143.513 218.652 M319.139 219.043 C 319.139 219.204,317.913 220.566,316.416 222.070 C 314.918 223.574,313.688 224.934,313.683 225.091 C 313.677 225.249,324.922 225.337,338.672 225.287 L 363.672 225.195 363.671 281.445 C 363.671 334.218,363.628 337.779,362.988 339.056 C 362.051 340.920,360.393 341.339,353.809 341.376 L 348.438 341.406 348.438 337.109 L 348.438 332.813 293.945 332.813 L 239.453 332.813 239.453 336.035 L 239.453 339.258 290.346 339.156 L 341.239 339.054 341.225 343.453 L 341.211 347.852 352.148 347.852 C 361.732 347.852,363.237 347.769,364.306 347.184 C 364.977 346.816,365.636 346.596,365.771 346.695 C 365.905 346.794,365.943 346.773,365.854 346.648 C 365.765 346.524,366.342 345.834,367.136 345.117 C 367.931 344.399,369.014 342.963,369.544 341.926 L 370.508 340.039 370.617 280.859 C 370.730 220.067,370.735 220.400,369.698 219.363 C 369.038 218.703,319.142 218.387,319.139 219.043 M140.118 220.780 C 140.827 221.466,141.406 222.188,141.406 222.384 C 141.406 222.579,141.946 223.420,142.605 224.253 C 143.791 225.751,143.842 226.563,142.750 226.563 C 142.441 226.563,142.188 226.738,142.188 226.953 C 142.188 227.168,142.012 227.344,141.797 227.344 C 141.582 227.344,141.406 227.086,141.406 226.770 C 141.406 226.455,141.178 226.284,140.899 226.391 C 140.600 226.506,140.035 225.953,139.527 225.049 C 139.052 224.203,138.241 223.105,137.725 222.608 L 136.787 221.705 137.561 220.618 C 138.526 219.262,138.554 219.263,140.118 220.780 M256.944 222.092 C 257.826 222.710,258.134 223.828,257.422 223.828 C 257.207 223.828,257.031 224.005,257.031 224.222 C 257.031 224.455,257.350 224.417,257.814 224.127 C 258.868 223.469,259.994 224.192,259.868 225.446 C 259.789 226.233,259.833 226.270,260.172 225.700 C 260.615 224.953,261.719 225.178,261.719 226.015 C 261.719 226.312,261.080 227.392,260.299 228.415 C 259.518 229.437,258.696 230.676,258.472 231.167 C 257.948 232.315,257.295 231.983,251.214 227.477 C 251.130 227.415,251.671 226.612,252.416 225.694 C 253.160 224.775,254.102 223.452,254.508 222.754 C 255.340 221.323,255.705 221.224,256.944 222.092 M132.031 226.660 C 135.696 229.161,135.528 233.622,131.671 236.221 C 126.462 239.732,119.691 233.172,123.511 228.316 C 125.580 225.685,129.490 224.926,132.031 226.660 M272.629 231.822 C 278.258 234.733,276.363 242.578,270.031 242.578 C 267.771 242.578,265.952 241.549,264.560 239.484 C 261.480 234.913,267.518 229.179,272.629 231.822 M345.064 231.935 L 340.713 232.056 337.353 235.200 C 334.475 237.893,331.112 241.734,332.841 240.354 C 333.259 240.021,335.803 239.910,341.808 239.964 L 350.192 240.039 350.194 248.921 C 350.195 255.957,350.087 257.844,349.675 258.003 C 349.389 258.113,341.475 258.203,332.089 258.203 L 315.024 258.203 311.320 261.941 L 307.617 265.679 309.375 265.562 L 311.133 265.445 311.234 283.504 L 311.336 301.563 294.588 301.563 L 277.840 301.563 277.572 296.387 C 277.189 288.967,277.354 277.588,277.838 278.072 C 278.097 278.332,278.803 277.681,279.945 276.130 C 281.931 273.431,284.984 271.246,285.810 271.931 C 286.217 272.269,287.039 271.657,289.552 269.146 C 291.324 267.377,292.441 266.040,292.035 266.176 C 291.411 266.386,291.372 266.332,291.786 265.834 C 292.055 265.509,292.427 265.337,292.613 265.451 C 292.798 265.565,293.789 264.913,294.814 264.001 C 297.683 261.453,300.781 258.449,300.781 258.216 C 300.782 258.102,295.640 258.008,289.356 258.008 L 277.930 258.008 277.803 256.903 C 277.716 256.145,277.505 255.864,277.129 256.008 C 276.828 256.123,275.093 256.426,273.273 256.681 L 269.964 257.144 270.210 258.357 C 270.346 259.024,270.468 273.105,270.482 289.648 L 270.508 319.727 254.980 319.829 L 239.453 319.931 239.453 323.248 L 239.453 326.565 298.340 326.466 L 357.227 326.367 357.227 279.102 L 357.227 231.836 353.320 231.825 C 351.172 231.819,347.456 231.869,345.064 231.935 M310.840 232.321 C 312.397 232.395,314.946 232.395,316.504 232.321 C 318.062 232.247,316.787 232.186,313.672 232.186 C 310.557 232.186,309.282 232.247,310.840 232.321 M77.734 239.221 C 77.734 239.299,78.174 239.651,78.711 240.003 C 79.248 240.355,79.688 240.491,79.688 240.306 C 79.688 240.121,79.248 239.769,78.711 239.524 C 78.174 239.279,77.734 239.143,77.734 239.221 M101.563 239.689 C 100.911 240.089,100.846 240.199,101.367 240.020 C 101.797 239.872,102.360 239.742,102.620 239.732 C 102.879 239.722,103.000 239.567,102.889 239.388 C 102.643 238.989,102.739 238.968,101.563 239.689 M103.548 239.203 C 104.008 239.600,105.901 239.837,105.674 239.469 C 105.536 239.245,104.964 239.063,104.404 239.063 C 103.844 239.063,103.459 239.126,103.548 239.203 M50.983 241.090 C 51.624 241.842,52.205 242.413,52.273 242.360 C 52.528 242.163,51.419 240.723,50.632 240.232 C 50.039 239.862,50.135 240.095,50.983 241.090 M175.027 244.629 C 175.012 245.220,175.176 245.703,175.391 245.703 C 175.849 245.703,175.849 245.403,175.391 244.336 C 175.093 243.644,175.052 243.677,175.027 244.629 M288.367 265.232 C 290.791 265.234,291.341 265.342,291.172 265.782 C 290.921 266.435,289.542 266.866,289.244 266.385 C 289.127 266.195,288.609 266.207,288.070 266.412 C 287.540 266.614,286.066 266.764,284.794 266.746 C 281.710 266.703,280.469 267.891,280.469 270.886 C 280.469 271.430,280.306 271.875,280.108 271.875 C 279.910 271.875,279.207 272.416,278.546 273.077 L 277.344 274.279 277.344 269.822 C 277.344 264.422,277.098 264.698,281.641 264.991 C 283.682 265.123,286.708 265.231,288.367 265.232 M350.000 283.398 L 350.000 301.563 334.180 301.563 L 318.359 301.563 318.359 289.453 L 318.359 277.344 319.261 277.344 C 319.881 277.344,320.537 276.812,321.361 275.642 C 322.021 274.706,323.226 273.434,324.038 272.814 L 325.516 271.687 332.484 271.542 C 341.848 271.348,343.528 271.921,346.193 276.219 C 346.879 277.326,348.535 277.871,349.199 277.208 C 350.088 276.318,349.639 274.715,348.145 273.451 C 345.272 271.020,345.021 270.701,344.775 269.157 C 344.363 266.587,343.645 266.406,333.827 266.406 C 323.886 266.406,322.489 266.884,322.226 270.372 C 322.204 270.661,321.325 271.670,320.273 272.614 L 318.359 274.329 318.359 269.782 L 318.359 265.234 334.180 265.234 L 350.000 265.234 350.000 283.398 M84.570 266.355 C 81.171 267.177,78.444 269.545,77.764 272.266 C 76.601 276.916,77.029 291.437,78.375 293.000 C 78.667 293.339,78.906 293.753,78.906 293.920 C 78.906 294.087,79.377 294.600,79.952 295.061 C 83.863 298.193,90.839 298.263,94.381 295.207 C 96.961 292.981,97.266 291.548,97.266 281.652 C 97.266 272.173,97.241 272.018,95.305 269.281 C 93.711 267.029,88.105 265.501,84.570 266.355 M65.160 267.090 C 64.600 267.742,61.957 271.608,61.133 272.980 C 60.743 273.628,58.173 277.116,57.425 278.011 C 57.209 278.270,57.031 278.579,57.031 278.698 C 57.031 278.816,56.548 279.594,55.957 280.426 C 55.366 281.258,54.619 282.328,54.297 282.803 C 53.975 283.278,53.315 284.212,52.832 284.878 C 52.125 285.852,51.953 286.610,51.953 288.748 L 51.953 291.406 58.789 291.406 L 65.625 291.406 65.625 294.336 L 65.625 297.266 68.750 297.266 L 71.875 297.266 71.875 294.336 L 71.875 291.406 73.633 291.406 L 75.391 291.406 75.391 288.867 L 75.391 286.328 73.633 286.328 L 71.875 286.328 71.875 276.367 L 71.875 266.406 68.811 266.406 C 66.376 266.406,65.626 266.547,65.160 267.090 M112.035 267.090 C 111.475 267.742,108.832 271.608,108.008 272.980 C 107.618 273.628,105.048 277.116,104.300 278.011 C 104.084 278.270,103.906 278.579,103.906 278.698 C 103.906 278.816,103.423 279.594,102.832 280.426 C 102.241 281.258,101.494 282.328,101.172 282.803 C 100.850 283.278,100.190 284.212,99.707 284.878 C 99.000 285.852,98.828 286.610,98.828 288.748 L 98.828 291.406 105.664 291.406 L 112.500 291.406 112.500 294.336 L 112.500 297.266 115.625 297.266 L 118.750 297.266 118.750 294.336 L 118.750 291.406 120.508 291.406 L 122.266 291.406 122.266 288.867 L 122.266 286.328 120.508 286.328 L 118.750 286.328 118.750 276.367 L 118.750 266.406 115.686 266.406 C 113.251 266.406,112.501 266.547,112.035 267.090 M303.385 269.883 C 300.968 272.387,299.772 274.082,301.571 272.453 C 302.704 271.428,304.633 272.425,306.476 274.991 C 307.949 277.041,308.872 277.401,309.933 276.339 C 310.985 275.287,310.126 273.064,308.329 272.190 C 307.508 271.791,307.179 271.230,306.818 269.617 C 306.197 266.843,306.330 266.833,303.385 269.883 M89.794 272.303 C 91.550 273.939,92.252 286.152,90.799 289.783 C 89.804 292.269,86.908 292.985,84.885 291.245 L 83.789 290.302 83.789 281.901 C 83.789 273.548,83.794 273.495,84.736 272.492 C 85.968 271.181,88.488 271.087,89.794 272.303 M65.625 281.055 L 65.625 286.328 61.940 286.328 L 58.256 286.328 61.790 281.055 C 63.733 278.154,65.391 275.781,65.474 275.781 C 65.557 275.781,65.625 278.154,65.625 281.055 M112.500 281.055 L 112.500 286.328 108.815 286.328 L 105.131 286.328 108.665 281.055 C 110.608 278.154,112.266 275.781,112.349 275.781 C 112.432 275.781,112.500 278.154,112.500 281.055 M143.698 304.075 C 144.293 304.382,145.820 305.832,147.091 307.297 C 148.362 308.762,149.526 310.053,149.678 310.165 C 149.829 310.277,150.467 311.514,151.095 312.914 C 158.608 329.660,147.183 349.434,126.953 354.699 C 121.674 356.073,111.363 355.690,108.484 354.013 C 100.927 349.611,107.801 328.662,121.279 315.024 C 130.243 305.953,139.030 301.661,143.698 304.075 M183.715 306.504 C 189.551 306.861,188.508 307.422,182.008 307.422 C 177.428 307.422,176.563 307.329,176.563 306.836 C 176.563 306.160,177.431 306.119,183.715 306.504 M221.680 306.979 L 225.195 307.235 220.252 307.541 C 215.387 307.841,213.281 307.675,213.281 306.989 C 213.281 306.599,216.411 306.596,221.680 306.979 M137.459 307.796 C 133.857 308.475,127.896 312.677,122.808 318.124 C 108.589 333.349,103.935 353.791,115.517 350.152 C 132.960 344.671,153.643 304.748,137.459 307.796 M206.547 327.414 L 206.648 347.210 205.016 349.093 C 203.042 351.371,201.034 354.471,200.525 356.024 C 200.156 357.149,200.130 357.122,198.702 354.115 C 197.905 352.437,196.684 350.253,195.990 349.262 L 194.727 347.461 194.831 327.431 L 194.936 307.401 200.691 307.509 L 206.445 307.617 206.547 327.414 M311.328 313.803 L 311.328 319.793 294.336 319.852 L 277.344 319.912 277.344 313.862 L 277.344 307.813 294.336 307.813 L 311.328 307.813 311.328 313.803 M350.391 313.867 L 350.391 319.922 334.375 319.922 L 318.359 319.922 318.276 316.113 C 318.230 314.019,318.178 311.294,318.159 310.059 L 318.125 307.813 334.258 307.813 L 350.391 307.813 350.391 313.867 M183.447 309.375 C 187.199 309.375,187.500 309.431,187.500 310.133 C 187.500 311.198,187.474 311.204,181.934 311.517 L 176.953 311.797 176.953 310.342 C 176.953 308.920,176.981 308.892,178.174 309.131 C 178.845 309.265,181.218 309.375,183.447 309.375 M223.139 309.908 C 223.346 310.229,223.427 310.220,223.432 309.876 C 223.435 309.614,223.701 309.501,224.023 309.624 C 226.063 310.407,224.606 311.783,221.874 311.653 C 220.370 311.582,219.139 311.663,219.140 311.834 C 219.140 312.004,217.868 312.092,216.313 312.029 C 213.378 311.910,212.829 311.507,213.439 309.917 C 213.721 309.182,222.663 309.174,223.139 309.908 M186.593 314.480 C 187.465 314.811,187.817 315.773,187.206 316.151 C 186.017 316.886,177.385 316.822,176.985 316.075 C 176.371 314.929,176.466 314.148,177.246 313.919 C 178.224 313.632,185.514 314.069,186.593 314.480 M223.633 314.933 C 224.139 315.047,224.459 315.490,224.542 316.190 C 224.633 316.966,224.534 317.187,224.189 316.974 C 223.925 316.811,222.857 316.707,221.815 316.744 C 220.108 316.805,219.922 316.727,219.922 315.958 C 219.922 315.488,219.792 315.234,219.634 315.392 C 219.475 315.551,219.344 315.975,219.341 316.336 C 219.337 316.884,218.835 317.011,216.309 317.106 L 213.281 317.220 213.281 315.807 L 213.281 314.394 218.066 314.576 C 220.698 314.676,223.203 314.837,223.633 314.933 M186.877 319.260 C 187.305 319.574,187.522 320.138,187.439 320.725 C 187.305 321.676,187.283 321.680,182.174 321.788 L 177.043 321.897 176.803 320.941 C 176.294 318.913,176.653 318.750,181.608 318.750 C 184.753 318.750,186.396 318.909,186.877 319.260 M218.750 319.531 C 218.750 319.746,218.936 319.922,219.164 319.922 C 219.391 319.922,219.469 319.746,219.336 319.531 C 218.914 318.849,223.300 319.059,223.996 319.754 C 225.740 321.499,224.265 322.176,218.578 322.241 L 213.694 322.296 213.446 321.305 C 212.988 319.480,213.419 319.141,216.199 319.141 C 217.639 319.141,218.750 319.311,218.750 319.531 M129.465 323.661 C 129.877 324.074,129.997 324.619,129.828 325.321 C 129.470 326.815,129.334 326.845,129.062 325.488 C 128.913 324.743,128.527 324.211,128.044 324.084 C 127.616 323.972,127.381 323.693,127.523 323.464 C 127.894 322.863,128.754 322.951,129.465 323.661 M186.816 324.603 C 187.550 324.610,187.810 326.325,187.140 326.739 C 186.942 326.861,184.593 327.068,181.921 327.199 L 177.061 327.437 176.812 326.445 C 176.262 324.252,176.633 324.091,181.605 324.355 C 184.095 324.488,186.440 324.599,186.816 324.603 M219.271 325.293 C 219.052 325.929,219.074 325.928,219.581 325.280 C 220.608 323.967,224.414 324.531,224.414 325.995 L 224.414 327.148 220.703 327.437 C 214.224 327.940,212.662 327.460,213.518 325.227 C 213.892 324.253,219.607 324.318,219.271 325.293 M125.416 326.967 C 127.036 327.834,125.662 332.143,123.601 332.660 C 120.874 333.345,120.142 329.964,122.506 327.600 C 123.631 326.476,124.247 326.341,125.416 326.967 M187.069 329.858 C 187.306 330.004,187.500 330.729,187.500 331.468 L 187.500 332.813 182.031 332.813 L 176.563 332.813 176.563 331.283 C 176.563 330.437,176.781 329.654,177.051 329.531 C 177.707 329.234,186.524 329.521,187.069 329.858 M218.750 330.301 C 218.750 330.851,218.812 330.853,219.344 330.321 C 219.734 329.931,220.441 329.779,221.395 329.880 C 222.196 329.964,223.247 330.043,223.730 330.056 C 224.634 330.079,224.913 331.177,224.372 332.585 C 223.904 333.804,219.680 333.431,219.204 332.129 L 218.812 331.055 218.781 332.129 C 218.750 333.196,218.731 333.203,216.016 333.203 L 213.281 333.203 213.281 331.706 C 213.281 329.749,213.373 329.688,216.276 329.688 C 218.265 329.688,218.750 329.808,218.750 330.301 M187.158 336.083 C 188.150 338.260,187.269 338.672,181.627 338.672 L 176.563 338.672 176.563 336.914 L 176.563 335.156 181.649 335.156 C 186.623 335.156,186.745 335.177,187.158 336.083 M221.777 335.544 C 223.080 335.546,223.447 335.694,223.483 336.230 C 223.526 336.876,223.538 336.876,223.708 336.226 C 224.012 335.057,224.609 335.900,224.609 337.499 C 224.609 338.672,224.455 339.020,223.926 339.039 C 223.550 339.053,222.495 339.170,221.582 339.300 C 220.357 339.474,219.922 339.402,219.922 339.025 C 219.922 338.629,219.818 338.620,219.453 338.984 C 218.963 339.474,215.674 339.613,214.160 339.207 C 213.421 339.009,213.281 338.704,213.281 337.286 C 213.281 335.290,213.650 335.126,217.578 335.378 C 218.975 335.468,220.864 335.543,221.777 335.544 M187.500 341.615 C 187.500 342.112,187.349 342.137,186.621 341.758 C 185.328 341.085,185.313 341.016,186.458 341.016 C 187.134 341.016,187.500 341.226,187.500 341.615 M217.773 341.797 C 217.908 342.014,217.614 342.188,217.113 342.189 C 216.617 342.190,215.635 342.541,214.932 342.970 C 213.293 343.970,213.281 343.967,213.281 342.578 C 213.281 341.363,217.096 340.700,217.773 341.797 M33.008 346.693 C 32.026 347.166,31.995 347.220,32.813 347.023 C 33.350 346.893,33.956 346.631,34.160 346.440 C 34.666 345.967,34.388 346.028,33.008 346.693 M179.248 346.662 C 180.134 346.975,180.859 347.141,180.859 347.030 C 180.859 346.663,185.393 349.239,186.825 350.419 C 188.584 351.869,191.716 356.530,192.049 358.193 C 192.186 358.880,192.537 359.534,192.829 359.646 C 193.121 359.758,193.359 360.087,193.359 360.378 C 193.359 360.814,190.354 360.911,176.172 360.929 C 156.298 360.955,158.046 361.470,160.535 356.323 C 164.437 348.254,172.281 344.204,179.248 346.662 M226.010 347.613 C 226.673 348.017,227.728 349.159,228.354 350.150 C 228.980 351.141,229.634 351.952,229.808 351.952 C 229.982 351.953,230.005 351.760,229.859 351.524 C 229.666 351.212,229.811 351.211,230.387 351.519 C 231.640 352.189,234.295 355.469,235.409 357.722 C 235.969 358.854,236.581 359.876,236.768 359.992 C 237.377 360.368,237.129 361.280,236.426 361.250 C 236.050 361.234,228.938 361.358,220.621 361.527 L 205.500 361.834 205.913 360.312 C 208.447 350.978,219.783 343.816,226.010 347.613 M197.563 369.808 C 198.049 369.901,198.752 369.897,199.126 369.800 C 199.499 369.702,199.102 369.625,198.242 369.630 C 197.383 369.634,197.077 369.714,197.563 369.808 "
            stroke="none" fill="#07466d" fill-rule="evenodd"></path>
        <path id="path2"
            d="M230.753 30.751 C 231.446 30.837,232.677 30.838,233.487 30.754 C 234.298 30.669,233.730 30.599,232.227 30.597 C 230.723 30.595,230.060 30.664,230.753 30.751 M243.945 41.468 C 252.398 47.932,255.736 56.282,253.679 65.820 L 253.427 66.992 254.569 65.663 C 255.484 64.597,255.919 64.373,256.761 64.534 C 258.117 64.794,258.196 62.966,257.029 58.363 C 255.134 50.889,250.860 45.253,244.141 41.363 L 242.773 40.572 243.945 41.468 M267.554 69.697 C 268.391 70.706,268.545 76.892,267.798 79.505 C 265.646 87.033,257.913 91.475,250.504 89.440 C 246.741 88.407,246.297 87.577,247.457 83.753 C 247.777 82.699,248.040 81.823,248.043 81.807 C 248.045 81.792,247.028 82.268,245.782 82.866 C 240.526 85.388,229.679 85.163,222.807 82.389 C 222.187 82.139,221.240 81.755,220.703 81.537 C 218.420 80.609,216.910 79.823,215.658 78.908 C 213.467 77.307,214.717 79.105,217.850 82.060 C 222.902 86.824,228.516 89.049,236.272 89.359 L 241.490 89.567 241.253 90.975 C 241.123 91.749,240.904 93.306,240.767 94.434 C 240.491 96.703,240.430 96.740,238.387 95.886 C 237.600 95.557,236.717 95.379,236.426 95.491 C 236.100 95.616,236.003 95.523,236.174 95.246 C 236.362 94.942,236.181 94.869,235.607 95.019 C 235.067 95.160,234.857 95.090,235.021 94.824 C 235.186 94.558,234.976 94.487,234.436 94.629 C 233.890 94.771,233.684 94.701,233.853 94.428 C 234.017 94.162,233.874 94.100,233.463 94.257 C 233.105 94.395,232.813 94.318,232.813 94.087 C 232.813 93.855,232.549 93.768,232.227 93.891 C 231.904 94.015,231.641 93.967,231.641 93.785 C 231.641 93.325,228.558 92.587,227.820 92.870 C 227.390 93.034,227.308 92.952,227.535 92.584 C 227.758 92.224,227.705 92.159,227.360 92.373 C 227.074 92.549,226.731 92.459,226.545 92.159 C 226.369 91.874,225.609 91.641,224.856 91.641 C 224.072 91.641,223.588 91.479,223.722 91.262 C 223.861 91.037,223.670 90.993,223.252 91.153 C 222.835 91.313,221.854 91.087,220.845 90.599 C 219.551 89.973,218.767 89.838,217.580 90.039 C 216.327 90.250,215.968 90.175,215.770 89.657 C 215.571 89.139,215.212 89.064,213.961 89.275 C 212.981 89.441,212.489 89.397,212.637 89.157 C 212.963 88.629,209.762 88.242,207.086 88.485 C 205.874 88.595,205.184 88.550,205.552 88.386 C 205.919 88.221,201.789 88.106,196.372 88.130 C 182.842 88.191,182.266 88.216,181.547 88.770 C 180.924 89.250,178.632 100.247,179.065 100.679 C 179.171 100.785,181.859 101.113,185.039 101.408 C 191.943 102.048,198.060 102.904,203.002 103.921 C 204.997 104.332,206.895 104.565,207.221 104.440 C 207.546 104.315,207.813 104.395,207.813 104.618 C 207.813 104.841,208.770 105.301,209.941 105.641 C 211.810 106.185,213.128 106.996,212.230 107.050 C 209.192 107.234,202.464 107.152,202.599 106.934 C 202.699 106.772,201.320 106.660,199.535 106.683 L 196.289 106.725 200.000 107.250 C 204.124 107.835,205.415 108.067,213.867 109.747 C 217.090 110.388,220.342 110.990,221.094 111.084 C 221.846 111.179,223.252 111.441,224.219 111.668 C 225.186 111.895,227.559 112.365,229.492 112.713 C 231.426 113.062,233.535 113.492,234.180 113.669 C 237.595 114.610,237.365 114.726,237.862 111.813 C 238.691 106.955,239.030 104.898,239.420 102.344 C 240.146 97.590,240.270 96.875,240.366 96.875 C 240.419 96.875,242.162 97.569,244.239 98.417 C 250.710 101.060,254.820 101.256,260.328 99.182 C 261.390 98.783,262.300 98.498,262.352 98.550 C 262.481 98.679,261.440 105.608,260.938 107.967 C 260.400 110.492,260.387 110.490,264.172 108.658 C 278.327 101.806,281.097 83.591,269.855 71.291 C 268.159 69.435,266.224 68.095,267.554 69.697 M146.192 75.586 C 146.197 76.445,146.277 76.751,146.370 76.265 C 146.463 75.779,146.460 75.076,146.362 74.702 C 146.264 74.329,146.188 74.727,146.192 75.586 M181.641 84.766 C 181.120 85.102,181.120 85.144,181.641 85.144 C 181.963 85.144,182.490 84.974,182.813 84.766 C 183.333 84.429,183.333 84.387,182.813 84.387 C 182.490 84.387,181.963 84.557,181.641 84.766 M174.855 85.465 C 174.750 85.635,175.311 85.710,176.102 85.632 C 178.263 85.419,178.521 85.222,176.683 85.187 C 175.783 85.170,174.960 85.295,174.855 85.465 M284.500 88.281 C 284.500 89.678,284.571 90.249,284.658 89.551 C 284.744 88.853,284.744 87.710,284.658 87.012 C 284.571 86.313,284.500 86.885,284.500 88.281 M196.006 87.787 C 196.925 87.869,198.331 87.868,199.131 87.784 C 199.931 87.700,199.180 87.632,197.461 87.634 C 195.742 87.635,195.088 87.704,196.006 87.787 M155.062 96.582 C 156.681 98.307,157.031 98.617,157.031 98.324 C 157.031 98.261,156.196 97.426,155.176 96.468 L 153.320 94.727 155.062 96.582 M174.322 105.358 C 174.916 105.448,175.794 105.446,176.275 105.353 C 176.755 105.260,176.270 105.187,175.195 105.190 C 174.121 105.193,173.728 105.269,174.322 105.358 M180.176 105.347 C 180.552 105.446,181.167 105.446,181.543 105.347 C 181.919 105.249,181.611 105.169,180.859 105.169 C 180.107 105.169,179.800 105.249,180.176 105.347 M187.715 118.719 C 187.567 118.958,187.298 119.062,187.118 118.950 C 186.657 118.666,185.510 119.155,185.745 119.536 C 185.851 119.708,185.559 119.750,185.096 119.629 C 184.463 119.463,184.333 119.538,184.573 119.927 C 184.799 120.293,184.721 120.379,184.306 120.220 C 183.983 120.096,183.491 120.134,183.214 120.306 C 182.416 120.799,184.631 121.263,200.977 124.031 C 208.194 125.253,214.172 126.273,232.031 129.329 C 243.173 131.235,249.604 138.088,249.598 148.047 C 249.596 152.000,247.177 165.927,246.110 168.131 C 242.786 174.996,233.030 179.408,225.304 177.539 C 224.814 177.421,222.129 176.984,219.336 176.568 C 216.543 176.152,212.588 175.535,210.547 175.196 C 208.506 174.857,205.869 174.427,204.688 174.241 C 203.506 174.054,199.287 173.344,195.313 172.662 C 191.338 171.979,187.119 171.273,185.938 171.091 C 173.124 169.123,169.180 168.276,166.898 167.000 C 165.973 166.483,165.301 166.198,165.405 166.367 C 165.509 166.535,164.477 166.657,163.111 166.637 C 161.691 166.617,160.820 166.463,161.076 166.278 C 161.337 166.089,161.077 166.026,160.449 166.126 C 159.858 166.221,159.375 166.127,159.375 165.919 C 159.375 165.707,158.931 165.652,158.366 165.794 C 157.711 165.958,157.445 165.904,157.608 165.641 C 157.857 165.238,157.117 165.073,155.719 165.221 C 155.320 165.263,155.094 165.134,155.218 164.933 C 155.493 164.489,153.608 163.569,153.086 163.891 C 152.882 164.017,152.763 163.976,152.821 163.799 C 152.956 163.388,150.701 160.547,150.240 160.547 C 148.560 160.547,151.523 167.491,154.284 170.024 C 157.580 173.046,159.423 173.620,172.239 175.616 C 178.376 176.572,186.035 177.783,189.258 178.307 C 202.671 180.490,224.587 183.809,231.353 184.683 C 243.420 186.242,249.733 178.910,252.138 160.547 C 255.013 138.592,254.821 134.859,250.560 129.784 C 248.568 127.410,241.333 123.473,239.944 124.006 C 239.636 124.124,235.137 123.749,229.946 123.173 C 224.755 122.597,219.515 122.113,218.301 122.098 C 217.086 122.083,216.185 121.920,216.298 121.736 C 216.411 121.553,215.619 121.465,214.538 121.541 C 213.458 121.617,212.665 121.533,212.776 121.353 C 212.887 121.174,211.948 121.131,210.688 121.258 C 208.995 121.429,208.602 121.385,209.180 121.089 C 209.809 120.767,209.676 120.723,208.496 120.867 C 207.619 120.973,207.031 120.880,207.031 120.634 C 207.031 120.364,206.260 120.311,204.785 120.480 C 203.079 120.676,202.680 120.632,203.125 120.298 C 203.576 119.960,203.322 119.913,202.022 120.095 C 201.062 120.229,200.426 120.180,200.549 119.981 C 200.755 119.648,196.609 119.097,192.383 118.895 C 191.309 118.844,189.879 118.685,189.206 118.543 C 188.459 118.385,187.879 118.453,187.715 118.719 M157.143 150.586 C 157.146 151.660,157.222 152.053,157.312 151.459 C 157.401 150.866,157.399 149.987,157.306 149.506 C 157.214 149.026,157.140 149.512,157.143 150.586 M274.325 151.563 C 274.325 152.529,274.401 152.925,274.494 152.441 C 274.588 151.958,274.588 151.167,274.494 150.684 C 274.401 150.200,274.325 150.596,274.325 151.563 M142.305 161.328 C 142.305 162.510,142.378 162.993,142.467 162.402 C 142.557 161.812,142.557 160.845,142.467 160.254 C 142.378 159.663,142.305 160.146,142.305 161.328 M103.633 187.109 C 103.633 188.291,103.706 188.774,103.795 188.184 C 103.885 187.593,103.885 186.626,103.795 186.035 C 103.706 185.444,103.633 185.928,103.633 187.109 M189.138 188.936 C 189.076 191.239,188.940 191.771,188.379 191.918 C 187.738 192.086,187.739 192.100,188.391 192.142 C 189.339 192.204,189.517 191.554,189.353 188.631 L 189.213 186.133 189.138 188.936 M198.047 188.404 C 198.047 188.735,197.751 189.062,197.390 189.132 C 197.029 189.201,198.433 189.246,200.510 189.231 C 204.796 189.200,205.694 188.900,202.650 188.515 C 201.515 188.371,200.015 188.153,199.316 188.029 C 198.337 187.855,198.047 187.941,198.047 188.404 M294.648 192.578 C 294.648 193.760,294.722 194.243,294.811 193.652 C 294.901 193.062,294.901 192.095,294.811 191.504 C 294.722 190.913,294.648 191.396,294.648 192.578 M179.994 192.085 C 181.129 192.164,182.887 192.164,183.900 192.083 C 184.913 192.003,183.984 191.939,181.836 191.940 C 179.688 191.941,178.858 192.006,179.994 192.085 M198.180 192.273 C 198.182 192.647,199.179 192.773,202.119 192.773 C 207.518 192.773,207.680 192.025,202.311 191.882 C 199.151 191.798,198.178 191.890,198.180 192.273 M214.746 193.251 C 215.444 193.338,216.587 193.338,217.285 193.251 C 217.983 193.165,217.412 193.094,216.016 193.094 C 214.619 193.094,214.048 193.165,214.746 193.251 M228.032 193.636 C 228.518 193.729,229.221 193.726,229.594 193.628 C 229.968 193.530,229.570 193.454,228.711 193.458 C 227.852 193.462,227.546 193.542,228.032 193.636 M176.862 199.892 C 177.565 199.979,178.619 199.978,179.206 199.888 C 179.793 199.799,179.219 199.728,177.930 199.730 C 176.641 199.733,176.160 199.806,176.862 199.892 M98.017 201.010 C 97.496 201.566,96.230 202.566,95.203 203.232 L 93.336 204.444 95.377 206.510 L 97.417 208.577 98.101 207.535 C 98.476 206.963,98.679 206.324,98.550 206.116 C 98.422 205.909,98.512 205.859,98.751 206.007 C 99.258 206.320,100.501 204.163,100.082 203.698 C 99.930 203.529,99.999 203.501,100.236 203.636 C 101.400 204.300,101.513 202.039,100.367 201.017 C 98.983 199.784,99.166 199.784,98.017 201.010 M191.706 200.283 C 192.408 200.370,193.463 200.368,194.050 200.279 C 194.637 200.190,194.063 200.119,192.773 200.121 C 191.484 200.123,191.004 200.196,191.706 200.283 M203.425 200.674 C 204.127 200.761,205.182 200.759,205.769 200.670 C 206.356 200.581,205.781 200.509,204.492 200.512 C 203.203 200.514,202.723 200.587,203.425 200.674 M216.313 201.058 C 216.799 201.151,217.502 201.147,217.876 201.050 C 218.249 200.952,217.852 200.875,216.992 200.880 C 216.133 200.884,215.827 200.964,216.313 201.058 M227.251 201.448 C 227.737 201.542,228.440 201.538,228.813 201.440 C 229.187 201.342,228.789 201.266,227.930 201.270 C 227.070 201.275,226.765 201.355,227.251 201.448 M145.483 203.613 L 144.336 204.883 145.605 203.736 C 146.789 202.666,147.055 202.344,146.753 202.344 C 146.686 202.344,146.114 202.915,145.483 203.613 M104.126 205.038 C 104.005 205.234,102.983 205.917,101.855 206.556 C 100.728 207.194,99.457 208.104,99.033 208.577 L 98.261 209.436 100.595 211.653 C 101.879 212.872,103.798 214.629,104.859 215.558 L 106.787 217.247 107.515 216.339 C 111.013 211.968,111.221 210.974,109.064 208.939 C 108.065 207.997,107.592 207.636,108.011 208.137 C 108.767 209.041,108.767 209.052,108.000 209.469 C 107.574 209.700,106.540 210.608,105.701 211.487 C 104.862 212.367,104.312 212.848,104.480 212.557 C 104.680 212.208,104.431 212.259,103.747 212.708 C 102.168 213.742,102.193 213.283,103.900 209.873 C 104.763 208.148,105.469 206.527,105.469 206.271 C 105.469 205.604,104.389 204.612,104.126 205.038 M169.727 205.148 C 169.297 205.392,168.682 205.715,168.359 205.864 C 167.889 206.083,167.714 207.481,167.473 212.932 C 167.308 216.669,166.735 229.570,166.199 241.602 C 165.664 253.633,164.973 269.277,164.665 276.367 C 164.356 283.457,164.005 291.379,163.885 293.973 L 163.667 298.687 165.525 299.633 L 167.383 300.579 188.086 300.882 C 199.473 301.049,213.636 301.139,219.561 301.081 L 230.333 300.977 231.944 299.909 C 234.156 298.444,234.028 301.623,233.902 251.629 C 233.791 207.783,233.775 206.958,233.023 206.408 C 232.380 205.938,229.896 205.874,217.593 206.011 C 209.213 206.104,204.185 206.041,205.859 205.864 C 207.714 205.668,204.703 205.595,197.656 205.664 C 191.533 205.724,187.490 205.646,188.672 205.489 C 190.719 205.219,190.660 205.202,187.402 205.142 C 184.897 205.095,183.983 205.209,183.978 205.566 C 183.975 205.869,183.863 205.906,183.685 205.664 C 183.528 205.449,182.168 205.231,180.664 205.179 C 179.160 205.127,176.260 204.999,174.219 204.895 C 171.827 204.772,170.230 204.863,169.727 205.148 M297.971 206.565 C 296.988 207.547,297.166 209.953,298.165 209.192 C 298.315 209.078,298.357 209.095,298.258 209.229 C 297.925 209.682,299.241 211.751,299.686 211.476 C 299.925 211.328,300.016 211.377,299.887 211.585 C 299.759 211.793,299.961 212.431,300.337 213.004 L 301.020 214.045 303.061 211.979 L 305.102 209.912 303.234 208.701 C 302.207 208.035,300.941 207.035,300.420 206.479 C 299.273 205.255,299.282 205.255,297.971 206.565 M337.402 205.744 C 337.886 205.838,338.677 205.838,339.160 205.744 C 339.644 205.651,339.248 205.575,338.281 205.575 C 337.314 205.575,336.919 205.651,337.402 205.744 M155.177 208.008 C 155.181 208.867,155.261 209.173,155.354 208.687 C 155.448 208.201,155.444 207.498,155.347 207.124 C 155.249 206.751,155.172 207.148,155.177 208.008 M190.234 210.739 C 208.745 211.327,222.004 212.391,211.793 212.469 C 209.205 212.489,207.853 212.640,208.009 212.892 C 208.164 213.144,207.509 213.219,206.176 213.102 C 205.035 213.001,199.004 213.082,192.773 213.281 C 186.543 213.481,180.719 213.657,179.832 213.673 C 177.370 213.717,176.933 214.458,176.684 219.008 L 176.474 222.852 177.653 221.599 C 181.113 217.921,187.223 221.207,186.135 226.161 C 185.882 227.313,183.956 229.291,183.075 229.303 C 182.749 229.307,182.758 229.398,183.105 229.619 C 183.387 229.797,182.767 229.941,181.646 229.958 C 180.451 229.976,179.790 229.838,179.937 229.600 C 180.082 229.365,179.863 229.313,179.379 229.466 C 178.922 229.611,178.458 229.520,178.293 229.252 C 178.099 228.938,178.184 228.880,178.553 229.073 C 178.855 229.231,178.608 228.906,178.006 228.352 C 177.403 227.797,176.785 227.344,176.632 227.344 C 176.480 227.344,175.862 232.485,175.259 238.770 C 173.816 253.818,173.754 254.353,173.503 254.102 C 173.385 253.983,173.190 244.624,173.070 233.303 C 172.806 208.419,172.320 210.009,180.078 210.364 C 182.119 210.457,186.689 210.626,190.234 210.739 M293.457 210.762 C 292.735 211.550,292.821 211.910,294.538 215.341 C 296.245 218.751,296.269 219.211,294.691 218.176 C 294.006 217.728,293.757 217.677,293.958 218.026 C 294.125 218.317,293.575 217.835,292.736 216.956 C 291.897 216.077,290.863 215.168,290.438 214.937 C 289.671 214.520,289.671 214.510,290.427 213.606 C 290.846 213.105,290.372 213.466,289.374 214.408 C 287.217 216.443,287.425 217.437,290.923 221.807 L 291.650 222.716 293.579 221.027 C 294.640 220.098,296.558 218.340,297.842 217.121 L 300.177 214.905 299.405 214.053 C 298.981 213.584,297.843 212.749,296.875 212.198 C 295.908 211.647,294.854 210.978,294.531 210.713 C 294.063 210.326,293.847 210.336,293.457 210.762 M162.208 212.695 C 162.212 213.555,162.292 213.860,162.386 213.374 C 162.479 212.888,162.476 212.185,162.378 211.812 C 162.280 211.438,162.204 211.836,162.208 212.695 M113.015 212.742 L 114.111 213.960 112.426 214.960 C 111.500 215.509,110.127 216.484,109.375 217.125 L 108.008 218.291 110.092 220.278 C 112.457 222.533,112.338 222.469,112.649 221.659 C 112.803 221.259,112.717 221.138,112.398 221.303 C 112.132 221.440,112.301 221.229,112.773 220.835 C 115.150 218.849,115.530 214.881,113.522 213.014 C 112.402 211.973,112.249 211.891,113.015 212.742 M91.016 213.477 C 91.744 214.229,92.429 214.844,92.536 214.844 C 92.643 214.844,92.135 214.229,91.406 213.477 C 90.677 212.725,89.993 212.109,89.886 212.109 C 89.778 212.109,90.287 212.725,91.016 213.477 M154.794 216.797 C 154.794 217.764,154.870 218.159,154.963 217.676 C 155.056 217.192,155.056 216.401,154.963 215.918 C 154.870 215.435,154.794 215.830,154.794 216.797 M96.484 218.555 C 97.213 219.307,97.897 219.922,98.005 219.922 C 98.112 219.922,97.604 219.307,96.875 218.555 C 96.146 217.803,95.462 217.188,95.355 217.188 C 95.247 217.188,95.756 217.803,96.484 218.555 M284.750 218.570 C 282.968 220.409,283.445 224.470,285.657 226.303 C 286.134 226.698,286.306 226.909,286.040 226.771 C 285.720 226.607,285.635 226.728,285.788 227.128 C 286.099 227.938,285.981 228.001,288.345 225.747 L 290.430 223.760 289.063 222.594 C 288.311 221.953,286.937 220.978,286.011 220.428 L 284.327 219.429 285.401 218.308 C 285.991 217.692,286.388 217.188,286.283 217.188 C 286.177 217.188,285.488 217.810,284.750 218.570 M307.010 219.043 L 305.664 220.508 307.129 219.162 C 308.492 217.909,308.773 217.578,308.475 217.578 C 308.410 217.578,307.751 218.237,307.010 219.043 M335.281 218.652 C 340.398 218.714,348.660 218.714,353.640 218.652 C 358.621 218.590,354.434 218.540,344.336 218.540 C 334.238 218.540,330.163 218.590,335.281 218.652 M117.004 219.964 C 116.151 220.379,115.272 220.917,115.051 221.159 C 114.762 221.474,114.804 221.510,115.197 221.286 C 115.568 221.075,115.654 221.121,115.463 221.430 C 115.308 221.682,115.006 221.780,114.792 221.648 C 114.579 221.516,114.074 221.707,113.670 222.072 C 112.961 222.713,113.010 222.801,115.102 224.631 L 117.268 226.527 118.302 225.275 C 118.871 224.587,119.731 223.703,120.214 223.312 C 121.142 222.560,120.845 220.992,119.813 221.195 C 119.550 221.247,119.382 221.005,119.439 220.658 C 119.637 219.438,118.657 219.159,117.004 219.964 M317.557 220.605 L 316.211 222.070 317.676 220.724 C 319.039 219.471,319.320 219.141,319.022 219.141 C 318.957 219.141,318.297 219.800,317.557 220.605 M161.830 222.070 C 161.833 223.145,161.909 223.538,161.999 222.944 C 162.089 222.350,162.086 221.471,161.994 220.991 C 161.901 220.510,161.828 220.996,161.830 222.070 M143.173 221.471 C 142.881 221.942,144.869 225.002,145.462 224.994 C 146.869 224.975,147.020 224.281,145.965 222.686 C 144.954 221.159,143.702 220.614,143.173 221.471 M301.541 224.121 L 300.195 225.586 301.660 224.240 C 302.466 223.499,303.125 222.840,303.125 222.775 C 303.125 222.477,302.794 222.758,301.541 224.121 M141.417 225.098 C 141.411 226.342,141.581 227.344,141.797 227.344 C 142.012 227.344,142.188 227.188,142.188 226.999 C 142.188 226.809,142.539 226.562,142.969 226.449 C 144.004 226.178,143.946 225.843,142.578 224.219 L 141.427 222.852 141.417 225.098 M225.740 224.316 C 225.921 224.800,225.981 228.212,225.872 231.899 L 225.675 238.604 223.824 238.735 L 221.973 238.867 221.903 232.539 C 221.807 223.962,221.921 223.438,223.881 223.438 C 225.108 223.438,225.475 223.611,225.740 224.316 M255.850 224.814 C 255.126 225.561,254.701 226.177,254.904 226.184 C 255.107 226.190,254.962 226.377,254.582 226.598 C 254.201 226.820,253.994 227.170,254.122 227.377 C 254.250 227.584,254.133 227.705,253.861 227.646 C 252.694 227.393,253.146 228.892,254.517 229.824 L 255.955 230.801 258.153 228.437 C 259.362 227.137,260.495 225.788,260.670 225.439 C 260.853 225.074,260.711 225.137,260.337 225.586 C 259.688 226.363,259.686 226.363,259.929 225.543 C 260.529 223.524,257.607 223.001,255.850 224.814 M279.307 225.183 C 279.072 225.467,278.929 225.937,278.990 226.228 C 279.051 226.520,278.887 226.716,278.625 226.664 C 277.593 226.461,277.295 228.029,278.224 228.781 C 278.707 229.172,279.567 230.055,280.135 230.744 L 281.169 231.995 283.335 230.100 C 285.427 228.269,285.476 228.182,284.767 227.541 C 284.364 227.175,283.859 226.985,283.645 227.117 C 283.432 227.249,283.130 227.151,282.974 226.899 C 282.788 226.598,282.879 226.535,283.240 226.716 C 283.542 226.866,283.363 226.674,282.841 226.288 C 281.131 225.021,279.789 224.602,279.307 225.183 M326.465 225.276 C 326.948 225.369,327.739 225.369,328.223 225.276 C 328.706 225.183,328.311 225.106,327.344 225.106 C 326.377 225.106,325.981 225.183,326.465 225.276 M358.691 225.280 C 359.282 225.369,360.249 225.369,360.840 225.280 C 361.431 225.190,360.947 225.117,359.766 225.117 C 358.584 225.117,358.101 225.190,358.691 225.280 M154.013 230.469 C 154.013 231.436,154.089 231.831,154.182 231.348 C 154.275 230.864,154.275 230.073,154.182 229.590 C 154.089 229.106,154.013 229.502,154.013 230.469 M161.440 231.445 C 161.443 232.520,161.519 232.913,161.608 232.319 C 161.698 231.725,161.696 230.846,161.603 230.366 C 161.510 229.885,161.437 230.371,161.440 231.445 M41.895 231.144 C 42.700 231.228,44.019 231.228,44.824 231.144 C 45.630 231.060,44.971 230.991,43.359 230.991 C 41.748 230.991,41.089 231.060,41.895 231.144 M58.301 231.144 C 59.106 231.228,60.425 231.228,61.230 231.144 C 62.036 231.060,61.377 230.991,59.766 230.991 C 58.154 230.991,57.495 231.060,58.301 231.144 M72.559 231.135 C 73.042 231.228,73.833 231.228,74.316 231.135 C 74.800 231.042,74.404 230.966,73.438 230.966 C 72.471 230.966,72.075 231.042,72.559 231.135 M97.559 231.135 C 98.042 231.228,98.833 231.228,99.316 231.135 C 99.800 231.042,99.404 230.966,98.438 230.966 C 97.471 230.966,97.075 231.042,97.559 231.135 M306.330 232.253 C 305.849 232.590,305.574 233.057,305.718 233.290 C 305.868 233.534,305.800 233.603,305.556 233.452 C 305.129 233.189,304.509 233.844,304.498 234.570 C 304.495 234.785,304.316 234.964,304.102 234.967 C 303.412 234.977,302.714 235.589,302.952 235.974 C 303.079 236.179,302.950 236.299,302.666 236.240 C 302.379 236.181,302.207 236.394,302.279 236.719 C 302.350 237.041,302.273 237.169,302.108 237.004 C 301.706 236.602,298.794 239.472,299.100 239.968 C 299.232 240.181,299.166 240.248,298.953 240.116 C 298.741 239.985,297.791 240.702,296.842 241.710 C 295.884 242.727,295.638 243.110,296.289 242.572 L 297.461 241.602 296.525 242.664 C 296.011 243.248,295.444 243.636,295.265 243.526 C 294.786 243.229,291.374 246.506,291.667 246.981 C 291.805 247.204,291.759 247.288,291.564 247.168 C 291.370 247.048,290.683 247.391,290.039 247.932 C 289.394 248.472,289.131 248.779,289.453 248.613 C 289.799 248.436,289.906 248.458,289.714 248.668 C 289.535 248.863,289.260 249.023,289.103 249.023 C 288.420 249.023,284.422 252.104,284.643 252.461 C 284.778 252.680,284.693 252.735,284.450 252.585 C 284.210 252.437,283.307 252.761,282.444 253.306 C 281.581 253.851,280.158 254.584,279.283 254.934 C 277.847 255.509,277.704 255.688,277.811 256.789 L 277.930 258.008 289.453 258.083 L 300.977 258.158 303.204 255.965 C 304.429 254.759,305.325 253.599,305.195 253.388 C 305.064 253.177,305.128 253.109,305.335 253.238 C 305.543 253.366,310.623 248.560,316.624 242.556 L 327.534 231.641 317.369 231.641 C 308.770 231.641,307.070 231.735,306.330 232.253 M339.814 232.715 L 338.867 233.789 339.854 232.924 C 340.720 232.165,341.364 232.044,345.127 231.933 L 349.414 231.807 345.088 231.724 C 340.813 231.642,340.750 231.653,339.814 232.715 M316.504 232.321 C 314.946 232.395,312.397 232.395,310.840 232.321 C 309.282 232.247,310.557 232.186,313.672 232.186 C 316.787 232.186,318.062 232.247,316.504 232.321 M102.734 233.716 C 102.734 233.783,103.306 234.354,104.004 234.986 L 105.273 236.133 104.126 234.863 C 103.057 233.680,102.734 233.414,102.734 233.716 M123.413 234.719 C 123.943 235.710,125.710 236.809,126.243 236.479 C 126.504 236.318,126.575 236.382,126.418 236.636 C 126.025 237.273,130.035 237.152,131.319 236.488 C 131.898 236.188,132.497 235.722,132.650 235.452 C 132.872 235.059,132.822 235.058,132.401 235.449 C 132.112 235.718,131.471 235.938,130.977 235.938 C 130.482 235.938,130.078 236.097,130.078 236.293 C 130.078 236.736,126.425 235.798,125.269 235.058 C 123.673 234.038,122.980 233.911,123.413 234.719 M45.410 237.791 C 47.720 237.861,51.499 237.861,53.809 237.791 C 56.118 237.722,54.229 237.666,49.609 237.666 C 44.990 237.666,43.101 237.722,45.410 237.791 M70.628 237.792 C 73.272 237.860,77.491 237.859,80.003 237.792 C 82.515 237.724,80.352 237.668,75.195 237.668 C 70.039 237.669,67.984 237.724,70.628 237.792 M94.058 237.790 C 95.409 237.866,97.519 237.865,98.746 237.788 C 99.973 237.711,98.867 237.648,96.289 237.649 C 93.711 237.650,92.707 237.713,94.058 237.790 M47.473 239.082 C 47.625 239.328,47.333 239.410,46.703 239.296 C 46.144 239.194,45.767 239.241,45.865 239.399 C 45.963 239.558,45.685 239.911,45.246 240.185 C 44.592 240.594,44.504 240.590,44.753 240.166 C 44.920 239.881,44.670 239.987,44.199 240.401 C 43.549 240.970,43.462 241.230,43.838 241.469 C 44.288 241.754,43.991 241.954,43.276 241.848 C 43.122 241.825,43.108 242.097,43.245 242.452 C 43.422 242.915,43.349 243.008,42.982 242.782 C 42.578 242.532,42.510 242.924,42.654 244.665 C 42.839 246.885,43.848 248.665,44.644 248.173 C 44.872 248.031,44.923 248.119,44.763 248.378 C 44.076 249.491,47.985 249.972,50.199 249.047 C 52.757 247.978,54.096 243.723,52.441 241.919 C 52.065 241.509,51.915 241.406,52.106 241.690 C 52.869 242.819,52.079 242.373,50.977 241.053 C 50.333 240.280,50.117 239.893,50.498 240.192 C 50.879 240.492,51.290 240.637,51.411 240.517 C 51.531 240.396,51.220 240.041,50.717 239.727 C 49.567 239.010,47.128 238.524,47.473 239.082 M75.174 239.089 C 73.931 239.450,71.768 241.406,72.611 241.406 C 72.876 241.406,72.983 241.585,72.848 241.803 C 72.713 242.022,72.457 242.110,72.280 242.001 C 72.102 241.891,71.845 242.094,71.707 242.451 C 71.570 242.809,71.684 243.245,71.959 243.420 C 72.357 243.672,72.349 243.739,71.921 243.744 C 71.515 243.749,71.435 244.147,71.596 245.351 C 71.830 247.090,73.273 248.975,74.123 248.649 C 74.413 248.538,74.554 248.602,74.437 248.792 C 74.161 249.238,75.146 249.609,76.607 249.609 C 79.713 249.609,82.027 247.308,82.030 244.215 C 82.031 243.205,81.877 242.627,81.645 242.771 C 81.424 242.907,81.358 242.751,81.491 242.405 C 81.754 241.719,79.309 239.046,78.457 239.089 C 78.167 239.103,78.325 239.306,78.809 239.539 C 79.292 239.772,79.688 240.133,79.688 240.340 C 79.688 240.548,79.084 240.257,78.346 239.695 C 76.885 238.580,76.909 238.585,75.174 239.089 M102.851 239.193 C 102.961 239.479,102.848 239.741,102.599 239.775 C 102.351 239.809,101.709 239.896,101.172 239.968 C 97.812 240.420,97.648 246.862,100.945 248.873 C 102.818 250.015,108.019 249.330,107.226 248.045 C 107.087 247.821,107.206 247.685,107.490 247.744 C 107.775 247.803,107.960 247.619,107.900 247.334 C 107.841 247.050,107.974 246.928,108.194 247.065 C 109.531 247.891,109.666 243.516,108.365 241.558 C 107.106 239.666,104.615 237.756,105.705 239.520 C 105.898 239.831,105.771 239.893,105.306 239.715 C 104.930 239.571,104.330 239.436,103.972 239.414 C 103.578 239.391,103.706 239.252,104.297 239.063 C 105.209 238.770,105.187 238.747,103.962 238.711 C 103.020 238.683,102.707 238.818,102.851 239.193 M153.614 240.039 C 153.618 240.898,153.698 241.204,153.792 240.718 C 153.885 240.232,153.882 239.529,153.784 239.156 C 153.686 238.782,153.610 239.180,153.614 240.039 M161.044 240.234 C 161.044 241.201,161.120 241.597,161.213 241.113 C 161.306 240.630,161.306 239.839,161.213 239.355 C 161.120 238.872,161.044 239.268,161.044 240.234 M181.521 238.922 C 181.384 239.059,181.932 239.498,182.738 239.897 C 186.238 241.628,186.537 247.184,183.187 248.247 C 182.760 248.383,182.523 248.676,182.660 248.898 C 182.815 249.148,182.630 249.214,182.178 249.071 C 181.775 248.944,180.610 248.809,179.588 248.771 C 178.567 248.732,177.820 248.612,177.929 248.503 C 178.267 248.165,176.872 246.879,176.450 247.140 C 176.231 247.275,176.167 247.199,176.308 246.971 C 176.707 246.326,176.172 245.337,175.554 245.574 C 175.152 245.728,175.008 245.480,175.027 244.671 C 175.052 243.675,175.094 243.639,175.421 244.336 C 175.719 244.972,175.763 244.881,175.657 243.848 C 175.585 243.149,175.643 242.578,175.786 242.578 C 175.929 242.578,176.238 242.158,176.472 241.645 C 176.713 241.114,177.794 240.278,178.976 239.706 C 180.992 238.731,182.033 238.410,181.521 238.922 M273.627 240.292 C 271.737 241.310,268.359 242.252,268.359 241.762 C 268.359 241.566,267.955 241.406,267.461 241.406 C 266.967 241.406,266.326 241.187,266.036 240.918 C 265.615 240.527,265.566 240.528,265.788 240.921 C 265.940 241.191,266.539 241.657,267.119 241.957 C 268.403 242.621,272.413 242.742,272.019 242.105 C 271.862 241.851,271.934 241.787,272.194 241.948 C 272.730 242.279,274.495 241.177,275.030 240.179 C 275.514 239.275,275.515 239.275,273.627 240.292 M330.916 241.544 C 329.799 242.675,328.983 243.696,329.101 243.814 C 329.219 243.933,329.004 244.274,328.623 244.573 C 327.984 245.075,327.971 245.056,328.462 244.336 C 328.754 243.906,328.332 244.258,327.524 245.117 C 326.715 245.977,326.193 246.416,326.363 246.094 C 326.533 245.771,325.666 246.475,324.436 247.656 C 320.286 251.643,322.128 256.227,328.375 257.458 C 330.754 257.927,347.943 258.413,349.378 258.051 C 350.178 257.850,350.195 257.652,350.194 248.942 L 350.192 240.039 341.892 239.964 C 337.326 239.922,333.446 239.798,333.268 239.689 C 333.091 239.579,332.032 240.414,330.916 241.544 M29.486 288.867 C 29.486 315.508,29.533 326.349,29.590 312.958 C 29.647 299.567,29.647 277.770,29.590 264.521 C 29.533 251.271,29.486 262.227,29.486 288.867 M36.474 246.680 C 36.475 249.043,36.539 249.959,36.617 248.716 C 36.695 247.473,36.694 245.539,36.616 244.419 C 36.537 243.299,36.473 244.316,36.474 246.680 M145.430 246.484 C 145.430 247.666,145.503 248.149,145.592 247.559 C 145.682 246.968,145.682 246.001,145.592 245.410 C 145.503 244.819,145.430 245.303,145.430 246.484 M153.216 248.047 C 153.216 248.799,153.296 249.106,153.394 248.730 C 153.493 248.354,153.493 247.739,153.394 247.363 C 153.296 246.987,153.216 247.295,153.216 248.047 M160.645 248.242 C 160.650 249.102,160.730 249.407,160.823 248.921 C 160.917 248.435,160.913 247.732,160.815 247.359 C 160.717 246.985,160.641 247.383,160.645 248.242 M224.902 247.492 C 225.779 247.671,225.781 247.695,225.781 255.498 L 225.781 263.324 223.926 263.205 L 222.070 263.086 221.994 255.039 L 221.918 246.992 222.971 247.152 C 223.550 247.241,224.419 247.394,224.902 247.492 M138.380 249.805 C 138.384 250.664,138.464 250.970,138.558 250.484 C 138.651 249.998,138.647 249.295,138.550 248.921 C 138.452 248.548,138.375 248.945,138.380 249.805 M252.344 253.333 L 252.344 258.229 253.809 259.095 C 254.614 259.570,255.418 259.912,255.595 259.853 C 255.773 259.794,255.809 259.922,255.676 260.137 C 255.543 260.351,256.168 261.191,257.063 262.002 C 260.200 264.843,260.890 265.664,261.346 267.104 C 261.946 268.997,262.836 270.393,263.271 270.123 C 263.462 270.005,263.745 270.115,263.901 270.366 C 264.091 270.675,264.005 270.723,263.635 270.513 C 263.333 270.342,263.400 270.535,263.783 270.941 C 264.533 271.736,268.276 271.992,269.626 271.341 C 270.269 271.031,270.314 272.363,270.437 295.174 C 270.509 308.463,270.505 305.537,270.429 288.672 C 270.354 271.807,270.259 257.700,270.218 257.324 C 270.131 256.510,267.763 256.343,267.446 257.129 C 267.329 257.421,267.237 257.342,267.218 256.934 C 267.188 256.265,265.978 256.000,263.871 256.200 C 263.443 256.241,262.916 256.041,262.699 255.755 C 262.346 255.290,258.746 253.125,258.326 253.125 C 258.233 253.125,258.282 253.328,258.436 253.576 C 258.610 253.858,258.543 253.921,258.257 253.744 C 258.006 253.589,257.889 253.318,257.997 253.142 C 258.299 252.655,257.129 251.847,256.597 252.175 C 256.316 252.349,256.231 252.299,256.385 252.050 C 256.611 251.684,253.194 248.438,252.583 248.438 C 252.451 248.438,252.344 250.641,252.344 253.333 M244.682 254.688 C 244.682 257.373,244.744 258.472,244.820 257.129 C 244.897 255.786,244.897 253.589,244.820 252.246 C 244.744 250.903,244.682 252.002,244.682 254.688 M50.684 251.057 C 51.167 251.150,51.958 251.150,52.441 251.057 C 52.925 250.964,52.529 250.888,51.563 250.888 C 50.596 250.888,50.200 250.964,50.684 251.057 M58.301 251.071 C 59.751 251.146,62.124 251.146,63.574 251.071 C 65.024 250.996,63.838 250.934,60.938 250.934 C 58.037 250.934,56.851 250.996,58.301 251.071 M69.831 251.064 C 70.533 251.151,71.588 251.149,72.175 251.060 C 72.762 250.971,72.188 250.900,70.898 250.902 C 69.609 250.904,69.129 250.977,69.831 251.064 M152.825 256.250 C 152.825 257.002,152.905 257.310,153.004 256.934 C 153.102 256.558,153.102 255.942,153.004 255.566 C 152.905 255.190,152.825 255.498,152.825 256.250 M160.247 256.641 C 160.247 257.393,160.327 257.700,160.426 257.324 C 160.524 256.948,160.524 256.333,160.426 255.957 C 160.327 255.581,160.247 255.889,160.247 256.641 M36.508 257.910 C 36.405 258.179,36.368 272.813,36.425 290.430 L 36.528 322.461 36.623 290.138 L 36.719 257.816 85.840 257.715 L 134.961 257.614 85.828 257.518 C 46.810 257.442,36.656 257.522,36.508 257.910 M136.041 257.702 C 136.634 257.792,137.513 257.790,137.994 257.697 C 138.474 257.604,137.988 257.531,136.914 257.534 C 135.840 257.537,135.447 257.612,136.041 257.702 M145.066 261.719 C 145.066 263.975,145.131 264.897,145.210 263.770 C 145.289 262.642,145.289 260.796,145.210 259.668 C 145.131 258.540,145.066 259.463,145.066 261.719 M138.457 271.484 C 138.457 278.896,138.509 281.929,138.574 278.223 C 138.638 274.517,138.638 268.452,138.574 264.746 C 138.509 261.040,138.457 264.072,138.457 271.484 M182.794 258.983 C 184.250 260.479,184.563 261.165,184.767 263.299 C 184.886 264.545,184.847 265.480,184.679 265.376 C 184.394 265.200,184.213 265.812,184.338 266.533 C 184.369 266.710,184.241 266.760,184.053 266.644 C 183.866 266.528,183.353 266.768,182.913 267.177 C 182.474 267.587,182.023 267.830,181.911 267.718 C 181.799 267.606,181.328 267.718,180.864 267.966 C 178.291 269.343,174.393 264.895,175.356 261.681 C 176.257 258.672,180.865 257.000,182.794 258.983 M312.098 260.840 L 309.570 263.477 312.207 260.949 C 313.657 259.559,314.844 258.372,314.844 258.312 C 314.844 258.025,314.446 258.391,312.098 260.840 M152.442 263.477 C 152.447 264.336,152.527 264.642,152.620 264.156 C 152.713 263.670,152.710 262.967,152.612 262.593 C 152.514 262.220,152.438 262.617,152.442 263.477 M159.872 264.063 C 159.872 265.029,159.948 265.425,160.041 264.941 C 160.134 264.458,160.134 263.667,160.041 263.184 C 159.948 262.700,159.872 263.096,159.872 264.063 M295.093 263.770 L 293.945 265.039 295.215 263.892 C 295.913 263.261,296.484 262.689,296.484 262.622 C 296.484 262.320,296.162 262.586,295.093 263.770 M277.523 265.330 C 277.396 265.662,277.362 266.611,277.447 267.439 C 277.595 268.870,277.606 268.852,277.669 267.090 L 277.734 265.234 280.273 265.234 C 283.011 265.234,283.172 265.348,282.129 266.540 C 281.753 266.970,281.679 267.185,281.964 267.018 C 282.249 266.851,283.522 266.728,284.794 266.746 C 286.066 266.764,287.540 266.614,288.070 266.412 C 288.609 266.207,289.127 266.195,289.244 266.385 C 289.542 266.866,290.921 266.435,291.172 265.782 C 291.341 265.342,290.791 265.234,288.367 265.232 C 286.708 265.231,283.642 265.117,281.553 264.979 C 278.333 264.766,277.719 264.819,277.523 265.330 M291.787 265.832 C 291.499 266.180,291.650 266.251,292.379 266.112 C 292.918 266.009,293.359 265.799,293.359 265.645 C 293.359 265.188,292.207 265.326,291.787 265.832 M308.918 265.547 C 306.400 265.710,306.070 266.219,306.668 269.024 C 307.294 271.960,307.615 272.278,309.668 271.998 L 311.328 271.772 311.328 268.722 C 311.328 265.290,311.401 265.387,308.918 265.547 M318.359 269.782 L 318.359 274.329 320.273 272.614 C 321.325 271.670,322.204 270.661,322.226 270.372 C 322.489 266.884,323.886 266.406,333.827 266.406 C 343.645 266.406,344.363 266.587,344.775 269.157 C 345.021 270.701,345.272 271.020,348.145 273.451 C 349.639 274.715,350.088 276.318,349.199 277.208 C 348.535 277.871,346.879 277.326,346.193 276.219 C 343.528 271.921,341.848 271.348,332.484 271.542 L 325.516 271.687 324.038 272.814 C 323.226 273.434,322.021 274.706,321.361 275.642 C 320.537 276.812,319.881 277.344,319.261 277.344 L 318.359 277.344 318.359 289.453 L 318.359 301.563 334.180 301.563 L 350.000 301.563 350.000 283.398 L 350.000 265.234 334.180 265.234 L 318.359 265.234 318.359 269.782 M290.802 268.066 L 289.258 269.727 290.918 268.182 C 292.462 266.746,292.758 266.406,292.462 266.406 C 292.398 266.406,291.651 267.153,290.802 268.066 M152.052 271.680 C 152.056 272.539,152.136 272.845,152.229 272.359 C 152.323 271.873,152.319 271.170,152.222 270.796 C 152.124 270.423,152.047 270.820,152.052 271.680 M159.466 271.875 C 159.466 272.627,159.546 272.935,159.644 272.559 C 159.743 272.183,159.743 271.567,159.644 271.191 C 159.546 270.815,159.466 271.123,159.466 271.875 M225.163 271.721 C 225.700 271.927,225.781 273.055,225.781 280.308 L 225.781 288.657 224.844 288.892 C 224.329 289.021,223.494 289.069,222.989 288.997 L 222.070 288.867 221.965 280.497 C 221.883 274.061,221.974 272.053,222.355 271.811 C 222.947 271.436,224.305 271.392,225.163 271.721 M283.475 272.648 C 282.477 273.280,280.889 274.847,279.945 276.130 C 278.667 277.865,278.115 278.349,277.786 278.020 C 277.457 277.691,277.344 277.840,277.344 278.601 C 277.344 280.914,277.707 280.948,279.911 278.845 C 281.065 277.743,281.913 276.687,281.796 276.497 C 281.678 276.308,281.807 276.201,282.082 276.260 C 282.357 276.319,282.590 276.147,282.599 275.879 C 282.609 275.610,282.731 275.435,282.869 275.488 C 283.278 275.647,284.742 274.165,284.652 273.684 C 284.607 273.441,284.769 273.279,285.012 273.324 C 285.255 273.370,285.781 273.018,286.180 272.543 C 286.579 272.068,286.748 271.810,286.555 271.969 C 286.362 272.129,285.998 272.088,285.746 271.878 C 285.433 271.619,284.712 271.863,283.475 272.648 M300.614 272.221 C 300.325 272.688,301.171 275.047,301.544 274.816 C 301.707 274.715,301.757 275.067,301.656 275.598 C 301.491 276.459,301.277 276.563,299.651 276.563 C 297.738 276.563,295.892 277.483,296.343 278.212 C 296.487 278.445,296.432 278.530,296.221 278.399 C 295.725 278.093,291.287 282.563,291.689 282.965 C 291.856 283.132,291.729 283.210,291.406 283.138 C 291.082 283.066,290.868 283.239,290.928 283.525 C 290.987 283.810,290.856 283.932,290.638 283.797 C 290.089 283.458,288.174 285.448,288.516 286.001 C 288.675 286.259,288.621 286.343,288.387 286.198 C 288.015 285.968,286.842 288.251,286.129 290.598 C 285.095 293.997,282.863 295.616,279.638 295.308 C 277.775 295.130,277.363 295.191,277.529 295.622 C 277.642 295.917,277.734 297.374,277.734 298.860 L 277.734 301.563 294.238 301.563 L 310.742 301.563 310.634 288.655 C 310.537 277.014,310.467 275.805,309.923 276.350 C 308.872 277.401,307.945 277.035,306.476 274.991 C 304.621 272.409,302.705 271.427,301.554 272.468 C 300.853 273.103,300.781 273.112,301.002 272.537 C 301.266 271.847,300.986 271.619,300.614 272.221 M91.178 281.641 C 91.178 285.615,91.236 287.241,91.307 285.254 C 91.378 283.267,91.378 280.015,91.307 278.027 C 91.236 276.040,91.178 277.666,91.178 281.641 M77.098 278.906 C 77.098 281.162,77.162 282.085,77.241 280.957 C 77.320 279.829,77.320 277.983,77.241 276.855 C 77.162 275.728,77.098 276.650,77.098 278.906 M181.656 277.742 C 182.507 278.176,183.203 278.714,183.203 278.937 C 183.203 279.160,183.383 279.232,183.603 279.096 C 183.824 278.960,183.970 278.993,183.928 279.170 C 183.887 279.347,183.990 280.150,184.157 280.954 C 184.641 283.283,184.124 284.456,181.786 286.328 C 181.032 286.932,177.733 287.156,177.734 286.604 C 177.734 286.433,177.431 286.346,177.060 286.409 C 176.672 286.475,176.381 286.274,176.376 285.938 C 176.371 285.615,176.121 285.352,175.820 285.352 C 174.602 285.352,174.417 280.204,175.588 278.892 C 177.303 276.969,179.372 276.577,181.656 277.742 M342.773 284.375 C 342.773 295.584,342.933 295.408,332.809 295.331 C 329.147 295.303,325.863 295.170,325.512 295.035 C 325.060 294.861,324.962 294.935,325.178 295.285 C 325.420 295.677,325.310 295.688,324.657 295.338 C 323.653 294.801,323.570 294.475,324.512 294.771 C 325.110 294.959,325.103 294.910,324.454 294.380 C 324.047 294.047,323.598 293.846,323.457 293.933 C 323.316 294.021,323.182 293.449,323.160 292.663 C 323.138 291.878,322.971 291.186,322.790 291.126 C 322.609 291.066,322.513 287.849,322.576 283.978 L 322.690 276.940 332.732 277.044 L 342.773 277.148 342.773 284.375 M151.653 279.297 C 151.653 280.049,151.734 280.356,151.832 279.980 C 151.930 279.604,151.930 278.989,151.832 278.613 C 151.734 278.237,151.653 278.545,151.653 279.297 M159.075 279.297 C 159.075 280.049,159.155 280.356,159.254 279.980 C 159.352 279.604,159.352 278.989,159.254 278.613 C 159.155 278.237,159.075 278.545,159.075 279.297 M245.071 288.867 C 245.072 291.445,245.135 292.449,245.211 291.098 C 245.288 289.747,245.287 287.637,245.210 286.410 C 245.133 285.184,245.070 286.289,245.071 288.867 M158.692 286.914 C 158.697 287.773,158.777 288.079,158.870 287.593 C 158.963 287.107,158.960 286.404,158.862 286.031 C 158.764 285.657,158.688 286.055,158.692 286.914 M146.459 307.227 C 146.872 308.590,147.296 315.395,146.946 315.045 C 146.816 314.915,146.301 316.436,145.800 318.426 C 145.300 320.415,144.440 323.047,143.889 324.274 C 143.334 325.510,143.020 326.720,143.184 326.985 C 143.360 327.271,143.318 327.364,143.079 327.217 C 142.858 327.080,142.112 328.032,141.412 329.344 C 140.716 330.651,139.370 332.853,138.422 334.239 C 137.473 335.625,136.817 336.952,136.964 337.189 C 137.114 337.433,137.053 337.511,136.823 337.369 C 136.599 337.231,135.744 337.951,134.924 338.969 C 134.103 339.987,132.134 342.167,130.548 343.814 C 128.962 345.460,127.685 346.943,127.710 347.110 C 127.735 347.276,127.468 347.454,127.117 347.506 C 126.320 347.623,124.570 349.230,124.813 349.622 C 124.911 349.781,124.686 349.888,124.312 349.858 C 123.896 349.825,123.683 350.031,123.763 350.391 C 123.835 350.713,123.768 350.852,123.616 350.699 C 123.187 350.271,121.028 351.531,121.337 352.030 C 121.492 352.282,121.428 352.355,121.184 352.204 C 120.602 351.845,117.908 353.492,118.229 354.011 C 118.391 354.273,118.249 354.338,117.849 354.185 C 117.497 354.050,116.546 354.175,115.734 354.462 L 114.258 354.985 115.820 355.324 C 127.499 357.864,144.738 348.341,150.563 336.133 C 155.025 326.781,154.186 315.037,148.626 309.028 C 147.851 308.191,146.967 307.179,146.661 306.780 C 146.157 306.123,146.138 306.165,146.459 307.227 M182.030 306.934 C 182.031 307.277,182.834 307.422,184.743 307.422 C 188.450 307.422,188.629 306.735,184.964 306.574 C 182.808 306.479,182.030 306.575,182.030 306.934 M220.801 307.316 C 221.606 307.400,222.925 307.400,223.730 307.316 C 224.536 307.232,223.877 307.163,222.266 307.163 C 220.654 307.163,219.995 307.232,220.801 307.316 M205.563 307.668 C 206.196 307.854,206.250 309.232,206.349 327.469 L 206.456 347.070 206.451 327.349 C 206.445 307.917,206.434 307.627,205.664 307.547 C 205.064 307.485,205.040 307.513,205.563 307.668 M215.527 307.704 C 216.226 307.791,217.368 307.791,218.066 307.704 C 218.765 307.618,218.193 307.547,216.797 307.547 C 215.400 307.547,214.829 307.618,215.527 307.704 M283.678 312.207 C 283.792 315.198,284.066 317.124,284.534 318.237 L 285.221 319.872 297.322 319.827 C 311.658 319.773,310.241 320.509,310.476 312.988 L 310.637 307.813 297.073 307.813 L 283.509 307.813 283.678 312.207 M231.430 326.172 C 231.430 336.162,231.481 340.249,231.543 335.254 C 231.604 330.259,231.604 322.085,231.543 317.090 C 231.481 312.095,231.430 316.182,231.430 326.172 M181.571 310.449 L 181.412 311.523 184.358 311.328 C 187.047 311.150,187.316 311.056,187.430 310.254 C 187.549 309.410,187.439 309.375,184.642 309.375 C 181.763 309.375,181.727 309.388,181.571 310.449 M218.781 310.811 C 218.798 311.632,218.885 312.129,218.975 311.914 C 219.070 311.688,220.292 311.578,221.874 311.653 C 224.606 311.783,226.063 310.407,224.023 309.624 C 223.701 309.501,223.435 309.614,223.432 309.876 C 223.427 310.197,223.332 310.216,223.139 309.934 C 222.981 309.704,221.929 309.471,220.801 309.417 L 218.750 309.317 218.781 310.811 M318.075 310.938 C 318.075 311.904,318.151 312.300,318.244 311.816 C 318.338 311.333,318.338 310.542,318.244 310.059 C 318.151 309.575,318.075 309.971,318.075 310.938 M178.223 313.941 C 178.599 314.039,179.214 314.039,179.590 313.941 C 179.966 313.843,179.658 313.763,178.906 313.763 C 178.154 313.763,177.847 313.843,178.223 313.941 M181.445 315.211 L 181.445 316.603 183.984 316.494 C 189.240 316.268,188.952 314.426,183.594 313.993 L 181.445 313.819 181.445 315.211 M218.750 315.864 C 218.750 316.736,218.902 317.140,219.167 316.976 C 219.397 316.834,219.492 316.478,219.380 316.184 C 219.267 315.890,219.343 315.546,219.548 315.419 C 219.754 315.292,219.922 315.553,219.922 316.000 C 219.922 316.719,220.137 316.804,221.815 316.744 C 222.857 316.707,223.925 316.811,224.189 316.974 C 224.534 317.187,224.633 316.966,224.542 316.190 C 224.401 315.001,224.062 314.860,220.801 314.635 L 218.750 314.494 218.750 315.864 M169.702 325.977 C 169.702 331.777,169.756 334.205,169.823 331.371 C 169.890 328.537,169.890 323.791,169.823 320.824 C 169.757 317.857,169.702 320.176,169.702 325.977 M178.032 316.683 C 178.518 316.776,179.221 316.772,179.594 316.675 C 179.968 316.577,179.570 316.500,178.711 316.505 C 177.852 316.509,177.546 316.589,178.032 316.683 M181.641 320.330 L 181.641 321.909 184.473 321.794 C 189.203 321.603,188.675 318.750,183.910 318.750 L 181.641 318.750 181.641 320.330 M357.168 321.875 C 357.168 323.701,357.235 324.448,357.317 323.535 C 357.400 322.622,357.400 321.128,357.317 320.215 C 357.235 319.302,357.168 320.049,357.168 321.875 M219.336 319.531 C 219.469 319.746,219.391 319.922,219.164 319.922 C 218.936 319.922,218.750 320.455,218.750 321.106 L 218.750 322.289 221.125 322.218 C 224.218 322.125,225.374 321.133,223.996 319.754 C 223.300 319.059,218.914 318.849,219.336 319.531 M239.323 319.792 C 238.963 320.151,238.993 326.473,239.355 326.699 C 239.517 326.799,239.592 325.324,239.524 323.422 L 239.399 319.962 241.672 319.821 L 243.945 319.679 241.764 319.605 C 240.565 319.564,239.466 319.648,239.323 319.792 M251.465 319.823 C 254.097 319.891,258.403 319.891,261.035 319.823 C 263.667 319.755,261.514 319.700,256.250 319.700 C 250.986 319.700,248.833 319.755,251.465 319.823 M332.910 319.818 C 333.931 319.899,335.601 319.899,336.621 319.818 C 337.642 319.738,336.807 319.672,334.766 319.672 C 332.725 319.672,331.890 319.738,332.910 319.818 M340.925 319.814 C 341.627 319.901,342.682 319.899,343.269 319.810 C 343.856 319.721,343.281 319.650,341.992 319.652 C 340.703 319.654,340.223 319.727,340.925 319.814 M181.815 324.817 C 182.405 325.264,182.471 325.498,182.108 325.861 C 180.903 327.066,184.380 327.705,187.012 326.762 C 188.507 326.226,187.501 324.609,185.645 324.566 C 184.624 324.542,183.174 324.459,182.422 324.381 C 181.144 324.249,181.104 324.277,181.815 324.817 M218.750 325.955 C 218.750 327.254,218.692 327.306,217.090 327.453 C 216.177 327.536,217.275 327.533,219.531 327.444 C 224.593 327.246,224.692 327.216,224.538 325.898 C 224.377 324.521,220.548 324.043,219.581 325.280 C 219.074 325.928,219.052 325.929,219.271 325.293 C 219.401 324.917,219.336 324.609,219.128 324.609 C 218.920 324.609,218.750 325.215,218.750 325.955 M162.230 327.148 C 162.233 328.438,162.306 328.918,162.392 328.216 C 162.479 327.514,162.478 326.459,162.388 325.872 C 162.299 325.285,162.228 325.859,162.230 327.148 M36.469 332.813 C 36.469 334.854,36.535 335.688,36.615 334.668 C 36.696 333.647,36.696 331.978,36.615 330.957 C 36.535 329.937,36.469 330.771,36.469 332.813 M39.906 332.223 C 40.027 334.621,40.213 335.309,40.936 336.032 L 41.818 336.914 66.319 337.000 C 79.795 337.048,91.008 336.960,91.237 336.805 C 92.024 336.272,94.192 332.040,93.911 331.585 C 93.754 331.332,93.798 331.233,94.009 331.364 C 94.217 331.493,94.694 331.080,95.068 330.448 L 95.747 329.297 67.753 329.297 L 39.758 329.297 39.906 332.223 M179.590 329.565 L 181.641 329.726 181.641 331.269 L 181.641 332.813 184.570 332.813 L 187.500 332.813 187.500 331.468 C 187.500 329.667,187.331 329.606,182.089 329.498 C 179.586 329.446,178.462 329.477,179.590 329.565 M213.437 330.236 C 213.321 330.538,213.298 331.373,213.387 332.092 C 213.533 333.287,213.552 333.259,213.609 331.762 C 213.670 330.172,213.714 330.121,215.137 329.972 L 216.602 329.819 215.124 329.753 C 214.168 329.711,213.573 329.881,213.437 330.236 M219.367 330.298 C 218.919 330.746,218.883 331.124,219.201 332.037 C 219.684 333.423,223.880 333.868,224.372 332.585 C 224.913 331.177,224.634 330.079,223.730 330.056 C 223.247 330.043,222.196 329.964,221.395 329.880 C 220.461 329.781,219.734 329.932,219.367 330.298 M239.323 332.682 C 238.330 333.675,239.090 340.719,240.299 341.734 C 240.979 342.306,242.271 343.430,243.169 344.233 C 244.067 345.036,244.945 345.563,245.120 345.405 C 245.295 345.247,245.319 345.325,245.173 345.578 C 244.932 345.999,245.526 346.659,246.159 346.674 C 246.302 346.677,246.566 346.840,246.745 347.035 C 246.934 347.242,246.866 347.273,246.582 347.110 C 246.313 346.955,246.094 347.000,246.094 347.210 C 246.094 347.420,246.248 347.650,246.437 347.721 C 247.784 348.233,251.698 356.516,252.700 360.977 L 253.042 362.500 249.167 362.500 L 245.292 362.500 245.888 363.652 C 247.813 367.375,250.816 367.085,210.510 367.066 C 149.053 367.036,142.723 366.597,139.876 362.160 C 139.169 361.058,138.553 360.156,138.507 360.156 C 138.461 360.156,137.541 360.418,136.464 360.738 C 127.193 363.491,113.513 363.321,106.839 360.370 C 102.765 358.568,100.759 356.037,99.447 351.040 L 98.609 347.852 68.347 347.852 L 38.086 347.852 36.308 346.806 C 34.764 345.898,34.480 345.840,34.153 346.359 C 33.945 346.688,33.163 347.007,32.415 347.069 C 30.606 347.217,30.583 347.226,31.185 347.608 C 31.602 347.872,31.579 347.987,31.067 348.183 C 30.653 348.342,30.523 348.275,30.698 347.992 C 31.242 347.112,29.915 347.922,29.163 348.928 C 28.146 350.291,28.909 351.545,31.580 352.899 C 34.086 354.169,39.730 355.976,40.228 355.668 C 40.446 355.533,40.625 355.588,40.625 355.790 C 40.625 356.238,42.003 356.592,51.639 358.615 C 55.786 359.486,59.570 360.127,60.047 360.039 C 60.524 359.951,60.835 360.007,60.738 360.163 C 60.018 361.328,123.441 368.266,127.577 367.475 C 128.078 367.379,128.538 367.446,128.600 367.623 C 128.661 367.801,131.566 367.995,135.055 368.055 C 138.544 368.115,141.401 368.305,141.403 368.478 C 141.405 368.651,143.780 368.739,146.680 368.673 C 149.581 368.608,151.998 368.673,152.052 368.817 C 152.105 368.962,156.616 369.189,162.076 369.322 C 167.536 369.455,172.115 369.633,172.251 369.718 C 172.692 369.990,229.202 369.793,238.281 369.487 C 252.164 369.020,262.025 368.473,284.070 366.946 C 286.158 366.802,287.793 366.565,287.704 366.420 C 287.614 366.275,288.025 366.228,288.617 366.315 C 291.298 366.708,322.067 363.293,335.547 361.105 C 341.180 360.191,352.901 357.776,353.124 357.485 C 353.232 357.343,353.990 357.187,354.808 357.138 C 359.071 356.884,369.703 352.856,370.889 351.045 C 371.913 349.483,369.420 346.492,367.658 347.169 C 367.231 347.333,367.152 347.249,367.383 346.875 C 367.617 346.497,367.533 346.418,367.082 346.591 C 366.738 346.723,366.396 346.648,366.321 346.425 C 366.244 346.192,365.526 346.410,364.636 346.936 C 363.109 347.838,362.921 347.852,352.148 347.852 L 341.211 347.852 341.215 343.359 C 341.217 340.889,341.163 339.244,341.095 339.705 C 340.970 340.557,338.713 341.283,338.280 340.611 C 338.009 340.188,329.086 339.343,328.124 339.649 C 327.673 339.792,327.344 339.718,327.344 339.474 C 327.344 339.174,314.671 339.082,283.398 339.155 L 239.453 339.258 239.453 336.064 C 239.453 333.350,239.556 332.843,240.137 332.691 C 240.684 332.548,240.697 332.503,240.202 332.467 C 239.862 332.442,239.466 332.539,239.323 332.682 M242.285 332.691 C 242.661 332.789,243.276 332.789,243.652 332.691 C 244.028 332.593,243.721 332.513,242.969 332.513 C 242.217 332.513,241.909 332.593,242.285 332.691 M267.871 332.714 C 270.933 332.780,275.942 332.780,279.004 332.714 C 282.065 332.648,279.561 332.594,273.438 332.594 C 267.314 332.594,264.810 332.648,267.871 332.714 M313.184 332.698 C 313.667 332.791,314.458 332.791,314.941 332.698 C 315.425 332.604,315.029 332.528,314.063 332.528 C 313.096 332.528,312.700 332.604,313.184 332.698 M328.418 332.714 C 332.124 332.778,338.188 332.778,341.895 332.714 C 345.601 332.650,342.568 332.597,335.156 332.597 C 327.744 332.597,324.712 332.650,328.418 332.714 M176.674 336.914 C 176.677 337.988,176.753 338.381,176.843 337.788 C 176.933 337.194,176.930 336.315,176.837 335.834 C 176.745 335.354,176.671 335.840,176.674 336.914 M181.579 336.914 L 181.719 338.672 184.205 338.672 C 187.066 338.672,187.975 337.876,187.158 336.083 C 186.774 335.240,186.495 335.156,184.088 335.156 L 181.440 335.156 181.579 336.914 M215.728 335.437 C 216.322 335.526,217.201 335.524,217.681 335.431 C 218.162 335.339,217.676 335.265,216.602 335.268 C 215.527 335.271,215.134 335.347,215.728 335.437 M213.393 337.305 C 213.396 338.379,213.472 338.772,213.562 338.178 C 213.651 337.584,213.649 336.706,213.556 336.225 C 213.464 335.745,213.390 336.230,213.393 337.305 M218.750 337.548 C 218.750 339.282,218.828 339.484,219.336 339.063 C 219.795 338.681,219.922 338.680,219.922 339.056 C 219.922 339.396,220.403 339.467,221.582 339.300 C 222.495 339.170,223.550 339.053,223.926 339.039 C 224.455 339.020,224.609 338.672,224.609 337.499 C 224.609 335.900,224.012 335.057,223.708 336.226 C 223.538 336.876,223.526 336.876,223.483 336.230 C 223.445 335.660,223.048 335.547,221.094 335.547 L 218.750 335.547 218.750 337.548 M214.941 339.332 C 215.317 339.430,215.933 339.430,216.309 339.332 C 216.685 339.234,216.377 339.153,215.625 339.153 C 214.873 339.153,214.565 339.234,214.941 339.332 M127.527 341.895 L 125.195 344.336 127.637 342.004 C 128.979 340.722,130.078 339.623,130.078 339.563 C 130.078 339.274,129.693 339.627,127.527 341.895 M185.579 341.158 C 186.438 341.910,187.500 342.162,187.500 341.615 C 187.500 341.226,187.134 341.016,186.458 341.016 C 185.885 341.016,185.490 341.080,185.579 341.158 M351.074 341.306 C 352.632 341.380,355.181 341.380,356.738 341.306 C 358.296 341.232,357.021 341.171,353.906 341.171 C 350.791 341.171,349.517 341.232,351.074 341.306 M213.327 342.480 C 213.302 343.179,213.413 343.744,213.574 343.738 C 214.070 343.717,215.412 342.578,214.941 342.578 C 214.698 342.578,214.361 342.798,214.191 343.066 C 213.987 343.391,213.798 343.161,213.629 342.383 L 213.374 341.211 213.327 342.480 M31.641 343.091 C 31.641 343.158,32.212 343.729,32.910 344.361 L 34.180 345.508 33.032 344.238 C 31.963 343.055,31.641 342.789,31.641 343.091 M162.088 344.824 L 160.742 346.289 162.207 344.943 C 163.570 343.690,163.851 343.359,163.553 343.359 C 163.488 343.359,162.829 344.019,162.088 344.824 M108.700 345.313 C 108.700 346.279,108.776 346.675,108.869 346.191 C 108.963 345.708,108.963 344.917,108.869 344.434 C 108.776 343.950,108.700 344.346,108.700 345.313 M179.134 347.315 C 179.582 347.825,180.329 348.671,180.794 349.195 C 182.023 350.577,182.007 350.584,177.662 350.604 C 174.910 350.616,173.638 350.767,173.528 351.094 C 173.442 351.355,173.216 351.472,173.027 351.355 C 172.469 351.010,169.471 352.711,169.773 353.200 C 169.926 353.447,169.867 353.528,169.638 353.386 C 169.185 353.106,167.188 354.528,167.188 355.130 C 167.188 355.341,167.407 355.386,167.676 355.229 C 167.944 355.072,167.829 355.326,167.420 355.792 C 166.589 356.740,166.034 356.973,166.797 356.055 C 167.064 355.732,167.171 355.469,167.034 355.469 C 166.752 355.469,165.238 357.853,165.236 358.301 C 165.235 358.462,166.860 358.596,168.848 358.599 C 173.092 358.605,186.634 359.245,190.117 359.603 L 192.539 359.852 192.127 358.344 C 190.899 353.850,184.888 347.846,180.834 347.065 C 180.384 346.979,179.634 346.791,179.168 346.648 L 178.320 346.387 179.134 347.315 M237.109 348.950 C 237.109 349.018,237.681 349.589,238.379 350.220 L 239.648 351.367 238.501 350.098 C 237.432 348.914,237.109 348.649,237.109 348.950 M228.274 350.475 C 228.936 351.585,229.208 353.425,228.559 352.400 C 228.374 352.108,227.670 351.826,226.994 351.773 C 226.318 351.720,225.652 351.563,225.513 351.424 C 225.129 351.040,222.342 351.123,222.093 351.526 C 221.973 351.721,221.523 351.788,221.093 351.676 C 220.640 351.557,220.313 351.664,220.313 351.931 C 220.313 352.183,220.153 352.291,219.957 352.170 C 219.455 351.860,218.320 352.354,218.577 352.771 C 218.695 352.961,218.489 353.000,218.120 352.859 C 217.629 352.671,217.536 352.740,217.770 353.119 C 217.982 353.463,217.939 353.543,217.638 353.358 C 216.951 352.933,216.200 353.528,216.853 353.981 C 217.230 354.242,217.145 354.282,216.558 354.118 C 215.761 353.896,212.500 357.382,212.500 358.457 C 212.500 358.680,217.009 359.018,223.535 359.284 C 229.604 359.531,235.163 359.910,235.888 360.127 C 237.105 360.490,237.165 360.469,236.670 359.850 C 236.374 359.481,235.735 358.389,235.250 357.422 C 234.232 355.397,231.550 352.141,230.387 351.519 C 229.811 351.211,229.666 351.212,229.859 351.524 C 230.005 351.760,229.938 351.953,229.711 351.953 C 229.483 351.953,229.293 351.821,229.288 351.660 C 229.283 351.499,228.911 350.928,228.461 350.391 L 227.642 349.414 228.274 350.475 M183.887 360.837 C 185.444 360.911,187.993 360.911,189.551 360.837 C 191.108 360.763,189.834 360.702,186.719 360.702 C 183.604 360.702,182.329 360.763,183.887 360.837 M231.152 361.224 C 232.065 361.306,233.560 361.306,234.473 361.224 C 235.386 361.141,234.639 361.074,232.813 361.074 C 230.986 361.074,230.239 361.141,231.152 361.224 M212.598 361.619 C 214.478 361.691,217.554 361.691,219.434 361.619 C 221.313 361.547,219.775 361.489,216.016 361.489 C 212.256 361.489,210.718 361.547,212.598 361.619 "
            stroke="none" fill="#32a3d8" fill-rule="evenodd"></path>
    </g>
</svg>
