<svg id="svg" version="1.1" xmlns="http://www.w3.org/2000/svg" xmlns:xlink="http://www.w3.org/1999/xlink" width="400"
    height="400" viewBox="0, 0, 400,400">
    <g id="svgg">
        <path id="path0"
            d="M224.108 31.640 C 220.486 32.558,215.595 34.745,213.612 36.333 L 212.185 37.476 211.200 36.702 C 199.495 27.495,179.054 32.047,169.847 45.910 C 168.040 48.631,167.998 48.663,165.164 49.506 C 142.349 56.293,140.008 89.646,161.523 101.376 C 163.027 102.196,164.320 102.914,164.396 102.971 C 165.378 103.714,163.810 107.186,162.165 107.910 C 158.208 109.651,154.486 112.763,152.660 115.859 C 151.955 117.053,151.835 117.096,148.720 117.268 C 140.137 117.741,137.205 121.416,134.732 134.798 C 132.203 148.485,133.601 153.487,140.849 156.694 L 142.578 157.458 142.578 160.915 C 142.578 168.662,146.909 175.556,154.050 179.174 C 157.491 180.918,159.273 181.287,180.061 184.562 C 190.185 186.156,189.525 185.821,189.375 189.297 L 189.258 191.992 177.930 191.992 C 163.924 191.992,161.580 192.681,157.531 197.991 C 156.310 199.592,156.140 199.678,153.917 199.820 C 149.129 200.126,143.937 204.001,142.923 208.026 C 142.583 209.377,142.175 209.945,141.068 210.607 C 140.287 211.074,137.495 212.854,134.863 214.562 L 130.077 217.668 128.417 216.192 C 127.505 215.381,124.648 212.680,122.070 210.190 C 119.492 207.701,115.134 203.649,112.386 201.185 C 105.856 195.332,105.858 195.189,112.435 194.922 L 117.253 194.727 118.437 193.401 C 119.949 191.708,119.845 189.196,118.194 187.552 C 117.173 186.535,117.105 186.525,112.179 186.636 L 107.197 186.749 105.944 183.706 C 103.002 176.560,96.328 170.711,88.428 168.355 L 86.817 167.875 86.631 165.282 C 85.679 151.976,66.350 152.336,64.682 165.691 L 64.408 167.881 62.039 168.744 C 54.685 171.426,47.896 177.879,45.083 184.862 L 44.336 186.716 40.820 186.797 C 38.887 186.842,36.162 186.894,34.766 186.911 C 29.825 186.975,27.367 191.099,30.439 194.171 C 31.658 195.389,31.654 195.389,36.729 195.317 L 40.059 195.269 40.492 198.911 C 41.318 205.851,44.142 211.615,49.238 216.763 L 51.980 219.531 42.053 219.531 C 34.578 219.531,32.032 219.652,31.742 220.020 C 30.452 221.657,31.175 225.172,32.884 225.577 C 33.382 225.695,47.611 225.833,64.505 225.884 L 95.220 225.977 92.952 223.438 C 90.685 220.899,84.713 215.020,86.129 216.720 L 86.878 217.621 74.787 217.502 C 62.933 217.385,62.661 217.365,60.938 216.457 C 53.478 212.527,46.875 202.478,46.875 195.055 L 46.875 193.750 61.230 193.751 L 75.586 193.752 76.758 195.996 C 79.001 200.292,85.653 205.469,88.931 205.469 C 89.408 205.469,89.888 205.615,89.999 205.794 C 90.109 205.973,90.751 206.039,91.425 205.940 L 92.651 205.760 92.373 208.352 L 92.096 210.944 95.560 214.528 C 100.006 219.127,100.482 219.603,108.659 227.635 C 114.020 232.901,115.665 234.757,116.192 236.138 C 119.812 245.617,133.859 247.162,139.143 238.662 C 140.215 236.938,150.475 229.899,153.744 228.644 C 154.271 228.442,154.317 228.938,154.112 232.664 C 152.784 256.920,151.526 286.160,151.669 289.453 C 152.089 299.133,157.991 305.676,167.064 306.523 C 168.421 306.650,169.537 306.772,169.545 306.795 C 169.764 307.445,169.934 332.937,169.739 336.026 L 169.462 340.430 167.251 341.391 C 165.776 342.032,164.066 343.302,162.121 345.200 C 159.250 348.001,159.170 348.047,157.159 348.047 L 155.115 348.047 156.604 345.801 C 165.845 331.860,163.182 312.529,150.443 301.095 C 137.043 289.067,109.414 310.496,99.853 340.332 C 99.486 341.478,41.024 341.375,39.137 340.225 C 37.175 339.028,36.347 336.809,36.337 332.715 L 36.328 329.297 65.947 329.297 L 95.566 329.297 97.565 325.979 L 99.565 322.661 68.044 322.561 L 36.523 322.461 36.523 290.039 L 36.523 257.617 87.598 257.518 L 138.672 257.419 138.672 271.273 L 138.672 285.127 141.065 286.802 C 142.381 287.723,143.759 288.699,144.127 288.971 C 144.755 289.435,144.810 288.129,145.035 267.276 C 145.166 255.073,145.393 244.776,145.539 244.394 C 145.713 243.943,144.569 244.493,142.262 245.972 C 138.847 248.159,138.717 248.296,138.695 249.708 L 138.672 251.175 87.598 251.076 L 36.523 250.977 36.400 247.852 C 36.199 242.750,36.584 240.760,38.090 239.118 L 39.394 237.695 65.498 237.647 C 79.855 237.621,94.909 237.577,98.952 237.550 L 106.303 237.500 103.468 234.375 L 100.632 231.250 69.294 231.250 C 33.989 231.250,36.114 231.074,32.921 234.266 C 29.603 237.584,29.896 232.537,29.781 288.460 C 29.689 332.995,29.742 338.244,30.302 339.929 C 31.068 342.237,34.065 345.610,36.427 346.825 L 38.152 347.713 68.381 347.782 L 98.609 347.852 99.447 351.040 C 100.471 354.940,101.488 356.645,103.949 358.590 C 109.560 363.026,123.976 364.070,135.734 360.893 C 137.234 360.488,138.490 360.156,138.526 360.156 C 138.561 360.156,139.136 361.007,139.804 362.047 C 141.689 364.986,144.398 365.716,156.055 366.428 C 162.288 366.808,225.572 367.140,239.981 366.868 L 246.564 366.743 246.377 365.501 C 246.182 364.202,244.093 359.120,242.272 355.514 C 240.941 352.878,236.714 348.295,233.723 346.246 L 231.445 344.686 231.344 326.434 C 231.264 312.018,231.346 308.153,231.734 308.047 C 239.125 306.027,242.370 303.185,244.214 297.113 C 245.032 294.421,245.035 294.220,244.750 263.174 C 244.511 237.157,244.551 231.994,244.986 232.247 C 245.273 232.415,247.939 234.115,250.911 236.027 C 253.883 237.938,256.520 239.581,256.770 239.678 C 257.021 239.775,257.827 241.013,258.560 242.430 C 263.225 251.438,277.693 251.593,281.755 242.678 C 281.980 242.184,284.383 239.807,287.096 237.394 C 289.808 234.982,296.385 228.965,301.710 224.023 L 311.394 215.039 311.163 212.402 C 310.932 209.769,310.933 209.766,311.940 209.766 C 323.687 209.766,332.201 194.333,326.613 183.169 C 325.017 179.981,325.070 179.928,319.744 189.939 C 318.516 192.247,317.356 194.232,317.166 194.349 C 316.332 194.865,305.357 187.986,305.614 187.109 C 305.708 186.787,306.923 183.755,308.313 180.371 C 311.141 173.488,311.176 173.655,307.205 175.012 C 298.353 178.037,293.236 187.806,295.348 197.651 C 295.763 199.586,295.746 199.659,294.669 200.502 C 292.973 201.830,290.099 204.399,284.961 209.179 C 282.383 211.578,277.859 215.784,274.909 218.527 L 269.544 223.514 268.073 222.360 C 267.264 221.725,264.316 219.661,261.523 217.773 L 256.445 214.340 255.640 211.869 C 254.176 207.376,249.979 203.722,245.655 203.179 C 243.794 202.945,243.645 202.841,243.172 201.463 C 241.036 195.238,236.031 193.452,220.508 193.379 C 217.500 193.364,214.116 193.242,212.988 193.106 L 210.938 192.860 210.938 191.157 C 210.938 190.220,211.011 189.453,211.101 189.453 C 211.191 189.453,217.036 190.419,224.089 191.600 C 237.086 193.775,240.396 194.065,244.185 193.357 C 250.577 192.164,256.313 186.946,258.211 180.598 C 258.688 179.003,259.322 178.534,261.021 178.521 C 263.952 178.498,268.717 175.182,270.260 172.092 C 271.371 169.868,274.219 154.973,274.219 151.389 C 274.219 145.770,270.301 140.709,265.137 139.657 C 264.316 139.490,264.063 139.212,264.063 138.478 C 264.063 136.090,261.558 131.026,258.554 127.343 L 257.120 125.584 257.825 121.917 C 258.546 118.164,258.894 117.595,260.478 117.584 C 267.088 117.541,277.300 109.754,281.414 101.621 C 288.907 86.808,280.950 65.127,265.924 59.414 C 265.239 59.154,264.782 58.628,264.630 57.924 C 260.499 38.876,242.252 27.041,224.108 31.640 M236.587 38.471 C 247.803 40.599,257.813 52.203,257.813 63.077 L 257.813 64.701 260.059 65.406 C 280.082 71.688,282.844 99.620,264.328 108.582 C 260.374 110.496,260.399 110.500,260.938 107.967 C 261.440 105.608,262.481 98.679,262.352 98.550 C 262.300 98.498,261.390 98.783,260.328 99.182 C 254.820 101.256,250.710 101.060,244.239 98.417 C 242.162 97.569,240.422 96.875,240.372 96.875 C 240.323 96.875,240.166 97.710,240.024 98.730 C 239.581 101.918,237.483 114.209,237.362 114.331 C 237.299 114.394,236.293 114.208,235.127 113.916 C 233.962 113.625,231.865 113.174,230.469 112.915 C 229.072 112.655,226.699 112.203,225.195 111.909 C 223.691 111.615,219.121 110.748,215.039 109.983 C 210.957 109.217,206.868 108.416,205.951 108.202 C 205.035 107.988,203.805 107.810,203.217 107.807 C 202.358 107.802,202.264 107.720,202.734 107.390 C 203.201 107.064,203.150 107.028,202.489 107.212 C 202.032 107.340,197.638 106.982,192.724 106.417 C 186.568 105.709,181.829 105.393,177.485 105.401 C 171.786 105.410,171.196 105.349,171.330 104.756 C 171.532 103.862,174.090 89.728,174.489 87.305 L 174.810 85.352 177.542 85.252 C 181.951 85.092,182.641 84.787,180.078 84.131 C 177.136 83.377,173.483 81.540,171.236 79.683 C 168.895 77.749,169.100 77.350,167.523 86.925 C 166.008 96.126,166.380 95.309,164.225 94.166 C 147.654 85.375,152.967 55.859,171.121 55.859 L 172.980 55.859 174.585 52.544 C 178.581 44.287,186.028 39.392,194.727 39.305 C 202.024 39.231,205.791 41.263,210.306 47.710 C 210.852 48.489,210.946 48.438,213.540 45.971 C 220.794 39.068,227.769 36.799,236.587 38.471 M332.910 85.426 C 333.286 85.524,333.901 85.524,334.277 85.426 C 334.653 85.327,334.346 85.247,333.594 85.247 C 332.842 85.247,332.534 85.327,332.910 85.426 M189.648 113.844 C 208.694 117.093,229.110 121.061,237.047 123.056 C 250.330 126.395,255.030 132.082,254.146 143.743 C 253.736 149.149,251.211 168.045,250.570 170.508 C 248.635 177.933,242.758 183.827,236.423 184.693 C 233.104 185.147,221.169 183.523,188.086 178.114 C 184.219 177.482,177.539 176.437,173.242 175.791 C 168.945 175.145,164.463 174.456,163.281 174.259 C 155.251 172.920,150.063 167.452,150.041 160.305 C 150.029 156.690,154.301 130.790,155.869 124.966 C 156.819 121.437,160.799 116.888,164.881 114.666 C 170.369 111.679,175.881 111.496,189.648 113.844 M171.782 121.043 C 163.973 123.637,160.916 128.154,158.720 140.342 C 155.363 158.970,159.882 166.827,175.391 169.331 C 177.432 169.661,180.596 170.189,182.422 170.506 C 184.248 170.822,190.049 171.789,195.313 172.655 C 200.576 173.520,205.850 174.395,207.031 174.598 C 209.462 175.017,214.253 175.790,221.656 176.958 C 233.770 178.870,239.589 177.116,245.007 169.922 C 247.740 166.294,250.402 149.530,249.176 143.672 C 247.539 135.845,241.211 130.818,230.859 129.121 C 229.033 128.821,224.463 128.043,220.703 127.391 C 216.943 126.738,209.033 125.395,203.125 124.406 C 197.217 123.416,190.191 122.177,187.513 121.652 C 180.641 120.304,174.697 120.074,171.782 121.043 M147.917 125.879 C 146.806 132.393,143.635 149.833,143.544 149.934 C 143.270 150.236,141.853 149.167,141.193 148.160 C 140.224 146.681,140.317 144.768,141.724 137.305 C 142.372 133.867,143.020 130.358,143.164 129.506 C 143.661 126.574,145.315 124.670,147.407 124.625 C 148.013 124.612,148.098 124.821,147.917 125.879 M181.555 137.871 C 182.354 139.043,183.119 140.162,183.255 140.360 C 183.391 140.557,184.446 140.017,185.599 139.158 C 186.752 138.299,188.394 137.163,189.248 136.633 L 190.801 135.669 192.293 137.798 C 194.010 140.249,194.267 139.775,189.551 142.851 C 186.151 145.068,186.189 144.609,189.063 148.728 C 192.032 152.984,192.098 152.563,188.052 155.163 C 187.785 155.334,186.526 153.948,184.800 151.583 L 181.984 147.724 178.315 150.229 C 173.934 153.220,174.325 153.181,172.754 150.779 C 171.105 148.257,170.921 148.612,175.362 145.749 L 179.229 143.257 177.387 140.867 C 175.549 138.482,174.219 136.514,174.219 136.179 C 174.219 136.082,175.142 135.463,176.270 134.804 L 178.320 133.605 179.211 134.674 C 179.701 135.261,180.756 136.700,181.555 137.871 M221.092 142.871 C 221.808 143.892,222.998 145.537,223.736 146.528 L 225.077 148.329 228.415 146.051 C 232.129 143.517,231.959 143.522,233.589 145.891 C 235.136 148.140,235.237 147.929,231.445 150.391 C 227.500 152.952,227.591 152.362,230.474 156.648 L 232.823 160.141 230.962 161.506 C 228.633 163.215,229.075 163.393,226.563 159.732 C 225.381 158.010,224.217 156.314,223.976 155.962 C 223.583 155.391,223.379 155.448,222.023 156.511 C 221.189 157.164,219.481 158.374,218.226 159.202 L 215.943 160.705 215.198 159.747 C 214.789 159.220,214.106 158.216,213.682 157.515 L 212.911 156.240 214.561 155.041 C 215.468 154.381,217.218 153.218,218.449 152.456 C 219.793 151.624,220.580 150.896,220.421 150.633 C 220.274 150.392,219.135 148.818,217.890 147.134 C 215.167 143.454,215.191 143.736,217.480 142.238 C 219.802 140.720,219.551 140.676,221.092 142.871 M265.531 147.754 C 267.283 149.625,267.300 150.294,265.805 158.732 C 264.016 168.832,263.888 169.280,262.463 170.479 C 261.056 171.663,259.614 171.844,259.901 170.801 C 260.005 170.425,260.940 164.888,261.978 158.497 C 263.918 146.565,264.048 146.171,265.531 147.754 M77.123 162.881 C 78.099 163.252,79.683 165.355,79.686 166.283 C 79.687 166.604,78.420 166.785,75.585 166.869 C 71.504 166.992,71.483 166.987,71.484 166.074 C 71.486 163.809,74.730 161.971,77.123 162.881 M81.786 173.305 C 88.076 174.867,93.861 179.744,95.904 185.208 C 96.152 185.873,95.436 185.897,59.082 186.438 C 55.316 186.494,52.344 186.385,52.344 186.190 C 52.344 185.998,53.132 184.737,54.095 183.388 C 60.289 174.707,71.295 170.699,81.786 173.305 M198.047 187.651 C 199.014 187.944,200.914 188.312,202.270 188.469 C 205.872 188.886,204.958 189.158,199.528 189.285 C 194.597 189.401,194.160 189.280,194.147 187.793 C 194.139 186.945,195.550 186.894,198.047 187.651 M206.251 192.383 C 206.250 192.623,203.995 192.797,200.391 192.835 C 195.535 192.886,194.531 192.800,194.531 192.336 C 194.531 191.870,195.514 191.795,200.392 191.884 C 203.967 191.950,206.251 192.144,206.251 192.383 M100.781 193.202 C 100.781 194.408,96.340 199.012,95.428 198.751 C 95.257 198.702,94.689 198.899,94.166 199.188 C 93.288 199.674,93.130 199.620,92.115 198.484 C 90.508 196.685,91.010 193.831,93.087 192.959 C 94.295 192.452,100.781 192.657,100.781 193.202 M309.416 196.342 C 312.018 198.100,312.565 201.180,310.542 202.676 L 309.365 203.546 307.710 202.406 C 305.828 201.108,301.953 197.393,301.953 196.886 C 301.953 196.600,303.482 195.931,305.859 195.177 C 306.718 194.905,307.826 195.268,309.416 196.342 M337.930 201.878 L 335.205 204.883 344.770 204.987 C 350.907 205.054,354.249 205.229,354.097 205.476 C 353.952 205.710,350.086 205.859,344.149 205.859 L 334.439 205.859 331.088 209.473 C 329.245 211.460,327.736 213.229,327.735 213.404 C 327.735 213.579,333.228 213.667,339.941 213.599 L 352.148 213.477 354.244 212.316 C 356.611 211.005,358.108 209.092,358.457 206.934 L 358.694 205.469 363.479 205.469 C 368.895 205.469,369.116 205.363,369.424 202.632 C 369.568 201.352,369.430 200.743,368.825 199.995 L 368.038 199.023 354.346 198.949 L 340.655 198.874 337.930 201.878 M188.493 200.020 C 226.090 201.119,231.295 201.387,233.281 202.325 C 236.471 203.832,236.622 204.578,233.909 205.444 C 232.482 205.900,232.475 205.913,233.226 206.663 C 234.367 207.805,234.685 295.903,233.556 298.240 C 232.126 301.200,227.037 301.448,181.250 300.786 L 167.383 300.586 165.234 299.471 C 158.524 295.987,158.260 294.665,159.524 270.898 C 160.502 252.506,160.866 244.885,161.715 225.000 C 162.703 201.876,162.567 202.572,166.498 200.613 C 168.884 199.424,168.484 199.435,188.493 200.020 M105.816 203.980 C 106.807 204.881,110.518 208.369,114.063 211.732 C 117.607 215.095,121.186 218.452,122.014 219.193 L 123.520 220.540 121.881 221.675 C 120.980 222.300,119.553 223.595,118.709 224.553 L 117.175 226.296 116.193 225.374 C 115.653 224.867,115.298 224.226,115.404 223.949 C 115.510 223.673,115.471 223.466,115.318 223.488 C 114.422 223.622,114.004 223.373,114.212 222.831 C 114.343 222.488,114.279 222.327,114.063 222.461 C 113.505 222.806,109.693 219.112,109.941 218.466 C 110.054 218.170,109.979 218.032,109.774 218.159 C 109.568 218.286,106.666 215.714,103.325 212.442 L 97.250 206.495 98.831 205.770 C 99.701 205.372,100.564 205.139,100.750 205.254 C 100.935 205.369,101.677 204.776,102.399 203.936 C 104.021 202.049,103.685 202.045,105.816 203.980 M179.191 205.360 C 179.884 205.446,181.114 205.448,181.925 205.363 C 182.735 205.279,182.168 205.208,180.664 205.206 C 179.160 205.205,178.497 205.274,179.191 205.360 M190.344 205.756 C 191.371 205.837,192.953 205.836,193.859 205.754 C 194.766 205.672,193.926 205.606,191.992 205.607 C 190.059 205.609,189.317 205.676,190.344 205.756 M300.398 206.453 C 300.906 206.994,302.167 207.979,303.199 208.641 C 304.344 209.376,304.968 210.020,304.801 210.294 C 304.422 210.913,297.181 217.809,291.994 222.491 C 287.581 226.473,287.354 226.674,283.442 230.040 L 281.142 232.019 280.132 230.722 C 279.576 230.009,278.384 228.860,277.483 228.168 L 275.844 226.910 279.035 223.881 C 280.791 222.214,283.193 219.988,284.375 218.933 C 285.557 217.877,287.934 215.691,289.658 214.074 C 291.381 212.456,293.994 210.078,295.464 208.789 C 296.934 207.500,298.336 206.232,298.580 205.972 C 299.205 205.305,299.357 205.345,300.398 206.453 M210.274 206.151 C 212.380 206.221,215.720 206.221,217.696 206.150 C 219.672 206.079,217.949 206.022,213.867 206.022 C 209.785 206.023,208.168 206.080,210.274 206.151 M155.225 211.816 C 155.024 217.397,154.796 219.531,154.403 219.531 C 153.344 219.531,150.795 217.725,149.870 216.319 C 147.276 212.377,149.922 206.687,154.366 206.650 L 155.412 206.641 155.225 211.816 M246.503 211.036 C 249.482 213.044,250.287 217.081,248.242 219.761 C 247.266 221.041,245.146 222.651,244.434 222.655 C 244.272 222.656,244.141 219.844,244.141 216.406 C 244.141 209.498,244.159 209.457,246.503 211.036 M143.513 218.652 C 143.892 219.458,144.840 221.051,145.620 222.192 C 146.795 223.911,146.940 224.329,146.468 224.628 C 145.417 225.293,145.049 225.013,143.028 222.009 C 140.834 218.748,140.671 218.208,141.699 217.609 C 142.705 217.023,142.762 217.056,143.513 218.652 M319.139 219.043 C 319.139 219.204,317.913 220.566,316.416 222.070 C 314.918 223.574,313.688 224.934,313.683 225.091 C 313.677 225.249,324.922 225.337,338.672 225.287 L 363.672 225.195 363.671 281.445 C 363.671 334.218,363.628 337.779,362.988 339.056 C 362.051 340.920,360.393 341.339,353.809 341.376 L 348.438 341.406 348.438 337.109 L 348.438 332.813 293.945 332.813 L 239.453 332.813 239.453 336.035 L 239.453 339.258 290.361 339.157 L 341.270 339.057 341.093 343.337 L 340.917 347.617 341.944 347.874 C 344.243 348.451,363.014 347.858,364.306 347.167 C 364.977 346.809,365.636 346.596,365.771 346.695 C 365.905 346.794,365.943 346.773,365.854 346.648 C 365.765 346.524,366.342 345.834,367.136 345.117 C 367.931 344.399,369.014 342.963,369.544 341.926 L 370.508 340.039 370.617 280.859 C 370.730 220.067,370.735 220.400,369.698 219.363 C 369.038 218.703,319.142 218.387,319.139 219.043 M140.412 220.997 C 141.047 222.017,142.077 223.497,142.700 224.287 C 143.821 225.707,143.840 226.563,142.750 226.563 C 142.441 226.563,142.188 226.738,142.188 226.953 C 142.188 227.706,141.489 227.335,141.269 226.465 C 141.147 225.981,140.235 224.471,139.243 223.109 C 137.493 220.706,137.460 220.610,138.153 219.909 C 139.132 218.919,139.113 218.910,140.412 220.997 M256.944 222.092 C 257.902 222.763,258.082 223.652,257.324 223.964 C 257.056 224.075,257.385 224.072,258.056 223.958 C 259.031 223.792,259.406 223.935,259.919 224.668 C 260.273 225.173,260.646 225.542,260.750 225.488 C 262.176 224.747,261.942 226.263,260.299 228.415 C 259.518 229.437,258.696 230.676,258.472 231.167 C 257.948 232.315,257.295 231.983,251.214 227.477 C 251.130 227.415,251.671 226.612,252.416 225.694 C 253.160 224.775,254.102 223.452,254.508 222.754 C 255.340 221.323,255.705 221.224,256.944 222.092 M131.905 226.663 C 134.931 228.734,135.320 233.222,132.700 235.841 C 128.081 240.460,119.740 234.890,122.516 229.041 C 124.152 225.594,128.670 224.449,131.905 226.663 M272.629 231.822 C 278.258 234.733,276.363 242.578,270.031 242.578 C 267.771 242.578,265.952 241.549,264.560 239.484 C 261.480 234.913,267.518 229.179,272.629 231.822 M345.064 231.935 L 340.713 232.056 337.353 235.200 C 334.475 237.893,331.112 241.734,332.841 240.354 C 333.259 240.021,335.803 239.910,341.808 239.964 L 350.192 240.039 350.194 248.921 C 350.195 255.957,350.087 257.844,349.675 258.003 C 349.389 258.113,341.475 258.203,332.089 258.203 L 315.024 258.203 311.320 261.941 L 307.617 265.679 309.375 265.562 L 311.133 265.445 311.234 283.504 L 311.336 301.563 294.574 301.563 L 277.813 301.563 277.656 299.707 C 277.187 294.186,277.371 277.769,277.899 277.972 C 278.233 278.100,278.895 277.520,279.627 276.455 C 281.813 273.278,285.260 270.778,285.939 271.877 C 286.194 272.290,287.055 271.641,289.524 269.174 C 291.311 267.389,292.422 266.053,291.992 266.206 C 291.563 266.358,289.221 266.551,286.788 266.634 C 281.434 266.818,280.469 267.467,280.469 270.886 C 280.469 271.430,280.306 271.875,280.108 271.875 C 279.910 271.875,279.201 272.422,278.533 273.090 L 277.318 274.304 277.429 269.672 L 277.539 265.039 280.273 265.052 C 281.777 265.059,285.336 265.139,288.182 265.230 L 293.356 265.396 295.018 263.854 C 298.900 260.252,300.781 258.412,300.781 258.216 C 300.782 258.102,295.640 258.008,289.356 258.008 L 277.930 258.008 277.803 256.903 C 277.716 256.145,277.505 255.864,277.129 256.008 C 276.828 256.123,275.076 256.429,273.234 256.686 C 270.418 257.080,269.928 257.254,270.152 257.777 C 270.299 258.119,270.439 272.197,270.463 289.063 L 270.508 319.727 254.980 319.829 L 239.453 319.931 239.453 323.248 L 239.453 326.565 298.340 326.466 L 357.227 326.367 357.227 279.102 L 357.227 231.836 353.320 231.825 C 351.172 231.819,347.456 231.869,345.064 231.935 M175.027 244.629 C 175.012 245.220,175.176 245.703,175.391 245.703 C 175.849 245.703,175.849 245.403,175.391 244.336 C 175.093 243.644,175.052 243.677,175.027 244.629 M350.000 283.398 L 350.000 301.563 334.180 301.563 L 318.359 301.563 318.359 289.453 L 318.359 277.344 319.326 277.344 C 319.996 277.344,320.471 276.998,320.875 276.217 C 322.903 272.295,325.165 271.484,334.072 271.484 C 342.293 271.484,343.407 271.924,346.202 276.270 C 347.064 277.610,349.025 277.788,349.414 276.563 C 349.808 275.322,349.298 274.346,347.537 272.971 C 345.532 271.405,344.950 270.707,344.934 269.843 C 344.878 266.810,343.518 266.406,333.362 266.406 C 324.008 266.406,323.578 266.530,322.543 269.534 C 322.283 270.287,321.235 271.672,320.215 272.611 L 318.359 274.318 318.359 269.776 L 318.359 265.234 334.180 265.234 L 350.000 265.234 350.000 283.398 M84.570 266.355 C 81.171 267.177,78.444 269.545,77.764 272.266 C 76.601 276.916,77.029 291.437,78.375 293.000 C 78.667 293.339,78.906 293.753,78.906 293.920 C 78.906 294.087,79.377 294.600,79.952 295.061 C 83.863 298.193,90.839 298.263,94.381 295.207 C 96.961 292.981,97.266 291.548,97.266 281.652 C 97.266 272.173,97.241 272.018,95.305 269.281 C 93.711 267.029,88.105 265.501,84.570 266.355 M65.160 267.090 C 64.600 267.742,61.957 271.608,61.133 272.980 C 60.743 273.628,58.173 277.116,57.425 278.011 C 57.209 278.270,57.031 278.579,57.031 278.698 C 57.031 278.816,56.548 279.594,55.957 280.426 C 55.366 281.258,54.619 282.328,54.297 282.803 C 53.975 283.278,53.315 284.212,52.832 284.878 C 52.125 285.852,51.953 286.610,51.953 288.748 L 51.953 291.406 58.789 291.406 L 65.625 291.406 65.625 294.336 L 65.625 297.266 68.750 297.266 L 71.875 297.266 71.875 294.336 L 71.875 291.406 73.633 291.406 L 75.391 291.406 75.391 288.867 L 75.391 286.328 73.633 286.328 L 71.875 286.328 71.875 276.367 L 71.875 266.406 68.811 266.406 C 66.376 266.406,65.626 266.547,65.160 267.090 M112.035 267.090 C 111.475 267.742,108.832 271.608,108.008 272.980 C 107.618 273.628,105.048 277.116,104.300 278.011 C 104.084 278.270,103.906 278.579,103.906 278.698 C 103.906 278.816,103.423 279.594,102.832 280.426 C 102.241 281.258,101.494 282.328,101.172 282.803 C 100.850 283.278,100.190 284.212,99.707 284.878 C 99.000 285.852,98.828 286.610,98.828 288.748 L 98.828 291.406 105.664 291.406 L 112.500 291.406 112.500 294.336 L 112.500 297.266 115.625 297.266 L 118.750 297.266 118.750 294.336 L 118.750 291.406 120.508 291.406 L 122.266 291.406 122.266 288.867 L 122.266 286.328 120.508 286.328 L 118.750 286.328 118.750 276.367 L 118.750 266.406 115.686 266.406 C 113.251 266.406,112.501 266.547,112.035 267.090 M303.494 269.778 C 301.803 271.504,301.259 272.264,301.836 272.091 C 303.129 271.705,304.926 272.834,306.494 275.016 C 307.949 277.041,308.875 277.397,309.933 276.339 C 310.985 275.287,310.126 273.064,308.329 272.190 C 307.508 271.791,307.179 271.230,306.818 269.617 C 306.203 266.867,306.353 266.860,303.494 269.778 M89.794 272.303 C 91.550 273.939,92.252 286.152,90.799 289.783 C 89.804 292.269,86.908 292.985,84.885 291.245 L 83.789 290.302 83.789 281.901 C 83.789 273.548,83.794 273.495,84.736 272.492 C 85.968 271.181,88.488 271.087,89.794 272.303 M65.625 281.055 L 65.625 286.328 61.940 286.328 L 58.256 286.328 61.790 281.055 C 63.733 278.154,65.391 275.781,65.474 275.781 C 65.557 275.781,65.625 278.154,65.625 281.055 M112.500 281.055 L 112.500 286.328 108.815 286.328 L 105.131 286.328 108.665 281.055 C 110.608 278.154,112.266 275.781,112.349 275.781 C 112.432 275.781,112.500 278.154,112.500 281.055 M143.672 304.063 C 145.475 304.998,149.961 310.353,151.163 313.004 C 158.665 329.549,147.614 348.802,127.255 354.658 C 122.281 356.089,111.406 355.715,108.484 354.013 C 100.927 349.611,107.801 328.662,121.279 315.024 C 130.222 305.974,139.038 301.659,143.672 304.063 M183.715 306.504 C 189.551 306.861,188.508 307.422,182.008 307.422 C 177.428 307.422,176.563 307.329,176.563 306.836 C 176.563 306.160,177.431 306.119,183.715 306.504 M221.680 306.979 L 225.195 307.235 220.252 307.541 C 215.387 307.841,213.281 307.675,213.281 306.989 C 213.281 306.599,216.411 306.596,221.680 306.979 M137.459 307.796 C 133.857 308.475,127.896 312.677,122.808 318.124 C 108.589 333.349,103.935 353.791,115.517 350.152 C 132.960 344.671,153.643 304.748,137.459 307.796 M206.547 327.414 L 206.648 347.210 205.016 349.093 C 203.042 351.371,201.034 354.471,200.525 356.024 C 200.156 357.149,200.130 357.122,198.702 354.115 C 197.905 352.437,196.684 350.253,195.990 349.262 L 194.727 347.461 194.831 327.431 L 194.936 307.401 200.691 307.509 L 206.445 307.617 206.547 327.414 M311.328 313.804 L 311.328 319.796 294.336 319.854 L 277.344 319.912 277.344 313.862 L 277.344 307.813 294.336 307.813 L 311.328 307.813 311.328 313.804 M350.391 313.867 L 350.391 319.922 334.375 319.922 L 318.359 319.922 318.276 316.113 C 318.230 314.019,318.178 311.294,318.159 310.059 L 318.125 307.813 334.258 307.813 L 350.391 307.813 350.391 313.867 M183.447 309.375 C 187.199 309.375,187.500 309.431,187.500 310.133 C 187.500 311.198,187.474 311.204,181.934 311.517 L 176.953 311.797 176.953 310.342 C 176.953 308.920,176.981 308.892,178.174 309.131 C 178.845 309.265,181.218 309.375,183.447 309.375 M223.991 309.612 C 226.058 310.405,224.627 311.784,221.874 311.653 C 220.370 311.582,219.139 311.663,219.140 311.834 C 219.140 312.004,217.868 312.092,216.313 312.029 C 213.388 311.910,212.830 311.505,213.431 309.938 C 213.656 309.353,222.597 309.077,223.991 309.612 M187.063 314.229 C 188.310 315.000,187.526 316.406,185.840 316.423 C 184.927 316.432,182.697 316.539,180.884 316.660 C 177.391 316.893,176.563 316.536,176.563 314.798 C 176.563 313.788,185.560 313.300,187.063 314.229 M223.903 314.884 C 224.291 315.092,224.609 315.651,224.608 316.127 C 224.607 316.975,224.494 316.994,218.944 317.107 L 213.281 317.221 213.281 315.839 L 213.281 314.456 218.239 314.481 C 220.965 314.494,223.514 314.676,223.903 314.884 M186.877 319.260 C 187.305 319.574,187.522 320.138,187.439 320.725 C 187.305 321.676,187.283 321.680,182.174 321.788 L 177.043 321.897 176.803 320.941 C 176.294 318.913,176.653 318.750,181.608 318.750 C 184.753 318.750,186.396 318.909,186.877 319.260 M218.781 319.629 C 218.806 320.020,218.851 320.020,219.009 319.629 C 219.647 318.048,224.787 319.428,224.549 321.116 C 224.414 322.068,224.401 322.071,219.058 322.197 L 213.701 322.324 213.449 321.319 C 212.987 319.479,213.415 319.141,216.199 319.141 C 217.963 319.141,218.760 319.291,218.781 319.629 M129.465 323.661 C 129.877 324.074,129.997 324.619,129.828 325.321 C 129.470 326.815,129.334 326.845,129.062 325.488 C 128.913 324.743,128.527 324.211,128.044 324.084 C 127.616 323.972,127.381 323.693,127.523 323.464 C 127.894 322.863,128.754 322.951,129.465 323.661 M187.402 324.584 C 187.679 324.656,187.449 326.548,187.140 326.739 C 186.942 326.861,184.593 327.068,181.921 327.199 L 177.061 327.437 176.812 326.445 C 176.265 324.264,176.572 324.145,182.181 324.361 C 184.999 324.469,187.349 324.570,187.402 324.584 M219.284 325.098 C 219.074 325.447,219.173 325.438,219.633 325.065 C 220.992 323.963,224.396 324.622,224.532 326.013 L 224.650 327.222 220.403 327.465 C 215.202 327.763,213.281 327.514,213.281 326.543 C 213.281 324.813,213.638 324.609,216.666 324.609 C 218.891 324.609,219.508 324.724,219.284 325.098 M125.416 326.967 C 127.036 327.834,125.662 332.143,123.601 332.660 C 120.874 333.345,120.142 329.964,122.506 327.600 C 123.631 326.476,124.247 326.341,125.416 326.967 M187.069 329.858 C 187.306 330.004,187.500 330.729,187.500 331.468 L 187.500 332.813 182.031 332.813 L 176.563 332.813 176.563 331.283 C 176.563 330.437,176.781 329.654,177.051 329.531 C 177.707 329.234,186.524 329.521,187.069 329.858 M218.750 330.301 C 218.750 330.851,218.812 330.853,219.344 330.321 C 219.734 329.931,220.441 329.779,221.395 329.880 C 222.196 329.964,223.247 330.043,223.730 330.056 C 224.492 330.075,224.609 330.287,224.609 331.641 L 224.609 333.203 221.875 333.203 C 219.167 333.203,219.140 333.193,219.082 332.129 L 219.024 331.055 218.861 332.129 C 218.701 333.182,218.644 333.203,215.990 333.203 L 213.281 333.203 213.281 331.706 C 213.281 329.749,213.373 329.688,216.276 329.688 C 218.265 329.688,218.750 329.808,218.750 330.301 M187.263 335.774 C 187.393 336.114,187.500 336.905,187.500 337.532 L 187.500 338.672 182.031 338.672 L 176.563 338.672 176.563 336.914 L 176.563 335.156 181.794 335.156 C 186.204 335.156,187.063 335.253,187.263 335.774 M224.121 335.761 C 224.403 335.849,224.609 336.562,224.609 337.451 L 224.609 338.989 222.754 339.190 C 219.986 339.490,215.636 339.518,214.384 339.243 C 212.871 338.910,212.684 335.721,214.160 335.425 C 215.110 335.234,223.319 335.511,224.121 335.761 M187.500 341.615 C 187.500 342.112,187.349 342.137,186.621 341.758 C 185.328 341.085,185.313 341.016,186.458 341.016 C 187.134 341.016,187.500 341.226,187.500 341.615 M217.773 341.797 C 217.908 342.014,217.614 342.188,217.113 342.189 C 216.617 342.190,215.635 342.541,214.932 342.970 C 213.293 343.970,213.281 343.967,213.281 342.578 C 213.281 341.363,217.096 340.700,217.773 341.797 M179.248 346.662 C 180.134 346.975,180.859 347.141,180.859 347.030 C 180.859 346.355,186.101 349.762,187.891 351.601 C 189.981 353.747,192.188 357.416,192.188 358.743 C 192.188 359.104,192.451 359.501,192.773 359.624 C 193.096 359.748,193.359 360.087,193.359 360.378 C 193.359 360.814,190.354 360.911,176.172 360.929 C 156.298 360.955,158.046 361.470,160.535 356.323 C 164.437 348.254,172.281 344.204,179.248 346.662 M226.010 347.613 C 226.673 348.017,227.728 349.159,228.354 350.150 C 228.980 351.141,229.634 351.952,229.808 351.952 C 229.982 351.953,230.005 351.760,229.859 351.524 C 229.666 351.212,229.811 351.211,230.387 351.519 C 231.640 352.189,234.295 355.469,235.409 357.722 C 235.969 358.854,236.581 359.876,236.768 359.992 C 237.377 360.368,237.129 361.280,236.426 361.250 C 236.050 361.234,228.938 361.358,220.621 361.527 L 205.500 361.834 205.913 360.312 C 208.447 350.978,219.783 343.816,226.010 347.613 M197.563 369.808 C 198.049 369.901,198.752 369.897,199.126 369.800 C 199.499 369.702,199.102 369.625,198.242 369.630 C 197.383 369.634,197.077 369.714,197.563 369.808 "
            stroke="none" fill="#074971" fill-rule="evenodd"></path>
        <path id="path1"
            d="M230.762 30.751 C 231.460 30.838,232.603 30.838,233.301 30.751 C 233.999 30.665,233.428 30.594,232.031 30.594 C 230.635 30.594,230.063 30.665,230.762 30.751 M243.750 41.253 C 251.925 46.951,255.722 56.345,253.679 65.820 L 253.427 66.992 254.569 65.663 C 255.484 64.597,255.919 64.373,256.761 64.534 C 258.117 64.794,258.196 62.966,257.029 58.363 C 255.134 50.889,250.858 45.250,244.141 41.364 C 243.389 40.929,243.213 40.879,243.750 41.253 M310.938 53.894 C 310.938 54.102,310.706 54.184,310.424 54.075 C 309.782 53.829,307.682 55.722,308.009 56.252 C 308.141 56.466,308.044 56.641,307.794 56.641 C 307.543 56.641,307.439 56.904,307.563 57.227 C 307.687 57.549,307.618 57.813,307.410 57.813 C 307.202 57.813,307.031 58.044,307.031 58.328 C 307.031 59.308,308.241 62.913,308.515 62.746 C 308.666 62.653,308.852 77.018,308.928 94.668 C 309.005 112.317,309.180 126.956,309.319 127.199 C 309.895 128.210,314.521 132.875,314.735 132.661 C 314.863 132.533,315.041 117.002,315.130 98.148 L 315.291 63.867 316.260 61.370 C 316.812 59.946,317.109 58.604,316.951 58.245 C 316.798 57.900,316.708 57.463,316.751 57.275 C 316.794 57.087,316.478 56.686,316.048 56.385 C 315.557 56.041,315.359 55.599,315.514 55.195 C 315.698 54.714,315.599 54.614,315.119 54.798 C 314.767 54.933,314.357 54.849,314.210 54.610 C 314.036 54.329,314.122 54.288,314.453 54.492 C 314.784 54.697,314.870 54.655,314.696 54.374 C 314.549 54.136,314.170 54.039,313.855 54.160 C 313.539 54.281,313.281 54.186,313.281 53.948 C 313.281 53.710,312.754 53.516,312.109 53.516 C 311.465 53.516,310.938 53.686,310.938 53.894 M111.539 55.443 C 111.380 55.701,111.355 56.017,111.484 56.146 C 111.613 56.275,111.719 56.175,111.719 55.924 C 111.719 55.674,111.938 55.475,112.207 55.482 C 112.476 55.489,112.286 55.836,111.787 56.252 C 111.287 56.669,110.980 57.175,111.105 57.378 C 111.231 57.580,111.174 57.805,110.981 57.877 C 110.787 57.949,109.266 61.260,107.600 65.234 L 104.572 72.461 105.658 74.414 C 106.256 75.488,107.890 78.084,109.290 80.182 L 111.836 83.998 112.851 83.351 C 114.823 82.097,117.578 79.914,117.578 79.606 C 117.578 79.068,115.391 75.754,115.178 75.968 C 115.066 76.080,114.974 75.947,114.974 75.672 C 114.974 75.040,113.685 73.047,113.276 73.047 C 112.584 73.047,113.291 70.254,114.996 66.250 C 115.993 63.908,116.727 61.909,116.626 61.809 C 116.526 61.708,116.662 61.407,116.929 61.140 C 117.726 60.343,118.959 56.303,118.535 55.879 C 117.922 55.266,111.881 54.890,111.539 55.443 M313.999 59.027 C 313.951 59.851,313.829 60.444,313.730 60.344 C 313.630 60.245,313.315 60.357,313.029 60.594 C 311.724 61.677,309.601 59.894,310.068 58.107 C 310.729 55.581,314.155 56.383,313.999 59.027 M267.554 69.697 C 268.391 70.706,268.545 76.892,267.798 79.505 C 265.646 87.033,257.913 91.475,250.504 89.440 C 246.692 88.393,246.449 87.879,247.509 83.107 L 247.747 82.034 245.548 83.006 C 240.169 85.385,229.513 85.096,222.807 82.389 C 222.187 82.139,221.240 81.755,220.703 81.537 C 218.420 80.609,216.910 79.823,215.658 78.908 C 213.467 77.307,214.717 79.105,217.850 82.060 C 222.902 86.824,228.516 89.049,236.272 89.359 L 241.490 89.567 241.253 90.975 C 241.123 91.749,240.904 93.306,240.767 94.434 C 240.491 96.703,240.430 96.740,238.387 95.886 C 237.600 95.557,236.717 95.379,236.426 95.491 C 236.135 95.603,235.987 95.549,236.096 95.372 C 236.340 94.978,228.595 92.483,228.093 92.793 C 227.896 92.915,227.734 92.818,227.734 92.578 C 227.734 92.338,227.539 92.262,227.300 92.410 C 227.061 92.557,226.728 92.456,226.560 92.184 C 226.392 91.912,225.709 91.669,225.042 91.645 C 224.375 91.621,223.830 91.458,223.829 91.282 C 223.829 91.107,223.455 91.082,222.998 91.226 C 222.415 91.411,222.252 91.353,222.451 91.031 C 222.621 90.756,222.524 90.615,222.207 90.678 C 221.917 90.736,221.007 90.554,220.186 90.274 C 219.364 89.993,218.271 89.844,217.756 89.943 C 217.186 90.052,216.916 89.967,217.065 89.726 C 217.215 89.483,216.984 89.415,216.467 89.550 C 216.004 89.671,215.625 89.589,215.625 89.368 C 215.625 89.133,215.160 89.058,214.510 89.188 C 213.897 89.310,213.198 89.213,212.957 88.972 C 212.710 88.726,211.145 88.522,209.384 88.508 C 207.660 88.493,206.250 88.339,206.250 88.166 C 206.250 87.992,204.852 87.918,203.142 88.000 C 201.395 88.085,200.128 87.999,200.249 87.804 C 200.368 87.611,198.973 87.491,197.096 87.532 C 195.245 87.573,193.629 87.771,193.505 87.972 C 193.381 88.172,192.588 88.220,191.743 88.077 C 189.667 87.726,182.196 88.264,181.484 88.815 C 180.919 89.254,178.670 100.284,179.065 100.679 C 179.171 100.785,181.859 101.116,185.039 101.414 C 195.356 102.380,204.755 103.952,209.665 105.532 C 211.823 106.226,213.124 106.996,212.230 107.050 C 209.192 107.234,202.464 107.152,202.599 106.934 C 202.699 106.772,201.320 106.659,199.535 106.682 L 196.289 106.723 200.781 107.424 C 207.180 108.424,209.307 108.798,215.039 109.934 C 219.974 110.911,225.883 112.051,230.664 112.947 C 231.953 113.189,233.962 113.625,235.127 113.916 C 236.293 114.208,237.299 114.394,237.362 114.331 C 237.483 114.209,239.581 101.918,240.024 98.730 C 240.166 97.710,240.323 96.875,240.372 96.875 C 240.422 96.875,242.162 97.569,244.239 98.417 C 250.710 101.060,254.820 101.256,260.328 99.182 C 261.390 98.783,262.300 98.498,262.352 98.550 C 262.481 98.679,261.440 105.608,260.938 107.967 C 260.399 110.500,260.374 110.496,264.328 108.582 C 278.314 101.813,281.041 83.530,269.886 71.324 C 268.168 69.445,266.211 68.079,267.554 69.697 M75.442 70.837 C 75.203 71.125,75.094 71.448,75.201 71.555 C 75.308 71.662,75.002 72.085,74.521 72.496 C 73.656 73.234,73.653 73.234,74.225 72.472 C 74.544 72.048,73.885 72.469,72.760 73.406 C 71.187 74.719,70.762 75.301,70.915 75.935 C 71.024 76.387,71.241 77.809,71.397 79.093 L 71.681 81.428 74.024 81.923 C 88.838 85.055,88.675 85.007,88.577 86.192 C 88.536 86.696,88.392 87.109,88.259 87.109 C 87.771 87.109,83.202 94.994,83.454 95.402 C 83.598 95.636,83.534 95.712,83.309 95.573 C 82.120 94.839,81.925 97.651,82.966 100.505 L 84.000 103.342 83.005 105.792 C 82.457 107.139,82.130 108.453,82.278 108.711 C 82.426 108.969,82.396 109.042,82.211 108.874 C 81.819 108.517,79.592 113.202,79.910 113.716 C 80.028 113.907,79.965 114.063,79.770 114.063 C 79.576 114.063,78.485 116.081,77.347 118.548 L 75.277 123.033 76.171 128.509 C 76.695 131.720,77.243 133.984,77.497 133.983 C 78.270 133.980,84.846 132.863,85.001 132.708 C 85.084 132.625,84.716 130.901,84.185 128.876 C 82.888 123.941,82.878 124.023,85.499 118.609 C 86.762 116.001,88.184 112.988,88.659 111.914 C 89.274 110.524,90.403 109.173,92.577 107.227 C 94.257 105.723,95.647 104.313,95.667 104.093 C 95.729 103.405,93.318 100.761,92.877 101.033 C 92.634 101.183,92.570 101.110,92.726 100.859 C 92.875 100.617,92.539 100.127,91.966 99.752 C 89.982 98.452,90.099 97.921,93.665 92.011 L 96.976 86.523 95.703 82.707 C 94.279 78.433,94.392 78.578,92.327 78.368 C 91.499 78.284,90.557 78.119,90.234 78.001 C 88.870 77.501,85.450 76.967,85.080 77.196 C 84.859 77.332,84.543 77.226,84.378 76.959 C 84.208 76.683,83.225 76.461,82.101 76.444 C 81.014 76.427,80.212 76.272,80.319 76.098 C 80.427 75.924,80.178 75.781,79.767 75.781 C 79.223 75.781,78.713 75.097,77.904 73.286 C 77.110 71.506,76.628 70.853,76.222 71.008 C 75.856 71.149,75.754 71.064,75.936 70.770 C 76.322 70.145,75.977 70.192,75.442 70.837 M331.689 85.041 C 331.393 85.158,330.690 85.724,330.127 86.298 C 329.134 87.309,329.126 87.310,329.871 86.347 C 330.420 85.637,330.251 85.719,329.285 86.631 L 327.930 87.910 327.945 96.592 C 327.954 101.367,328.288 111.614,328.689 119.363 C 329.531 135.658,329.630 134.842,326.548 137.023 C 325.128 138.027,324.295 138.869,324.458 139.134 C 324.609 139.379,324.556 139.467,324.339 139.332 C 323.792 138.994,322.036 140.925,321.310 142.663 C 320.275 145.141,320.431 161.692,321.511 163.922 C 323.369 167.760,325.659 168.745,332.737 168.748 C 340.145 168.751,342.690 167.697,344.483 163.883 C 346.396 159.813,345.320 139.044,343.278 140.625 C 343.139 140.732,342.474 140.059,341.800 139.128 C 340.998 138.022,340.373 137.513,339.993 137.659 C 339.674 137.781,339.508 137.728,339.624 137.540 C 339.740 137.352,339.540 136.958,339.179 136.665 C 338.727 136.299,338.614 136.285,338.815 136.621 C 339.521 137.795,338.590 136.969,337.711 135.640 L 336.738 134.171 337.102 126.363 C 338.218 102.392,338.541 91.614,338.214 89.212 C 338.013 87.736,336.827 85.824,336.311 86.143 C 336.106 86.270,335.938 86.178,335.938 85.938 C 335.938 85.697,335.762 85.609,335.547 85.742 C 335.332 85.875,335.156 85.833,335.156 85.648 C 335.156 85.464,334.497 85.357,333.691 85.411 C 332.287 85.504,332.275 85.495,333.398 85.183 L 334.570 84.858 333.398 84.843 C 332.754 84.834,331.985 84.923,331.689 85.041 M174.855 85.465 C 174.750 85.635,175.311 85.710,176.102 85.632 C 178.263 85.419,178.521 85.222,176.683 85.187 C 175.783 85.170,174.960 85.295,174.855 85.465 M284.496 88.477 C 284.498 89.766,284.571 90.246,284.658 89.544 C 284.745 88.842,284.743 87.787,284.654 87.200 C 284.565 86.613,284.494 87.188,284.496 88.477 M334.361 91.381 C 335.067 92.699,334.868 97.007,334.072 97.667 C 333.269 98.332,332.031 98.522,332.031 97.980 C 332.031 97.777,331.893 97.696,331.723 97.800 C 331.359 98.026,331.112 96.598,331.081 94.082 C 331.046 91.278,333.309 89.414,334.361 91.381 M71.330 94.034 C 71.184 94.181,70.591 94.364,70.012 94.441 C 69.433 94.519,68.887 94.654,68.799 94.742 C 68.584 94.957,69.582 99.609,69.843 99.609 C 70.845 99.609,74.219 98.182,74.219 97.758 C 74.219 95.058,72.510 92.855,71.330 94.034 M105.285 95.931 C 104.956 96.717,104.688 97.426,104.688 97.506 C 104.688 97.586,103.016 101.358,100.973 105.888 C 98.930 110.418,97.376 114.330,97.520 114.582 C 97.664 114.833,97.633 114.904,97.452 114.740 C 97.089 114.410,96.082 116.509,96.114 117.525 C 96.127 117.930,98.788 119.739,103.372 122.459 C 112.309 127.761,111.936 127.305,108.821 129.127 C 107.403 129.957,106.394 130.792,106.528 131.027 C 106.659 131.257,106.628 131.320,106.458 131.168 C 106.035 130.786,103.826 131.976,104.109 132.434 C 104.235 132.637,104.082 132.706,103.771 132.586 C 103.459 132.466,103.071 132.584,102.909 132.846 C 102.708 133.172,102.776 133.223,103.125 133.008 C 103.466 132.797,103.542 132.844,103.354 133.149 C 103.198 133.401,102.908 133.506,102.708 133.382 C 102.306 133.134,100.672 134.136,100.979 134.443 C 101.085 134.549,100.952 134.639,100.684 134.644 C 99.964 134.657,97.266 136.344,97.266 136.780 C 97.266 136.987,97.090 137.047,96.875 136.914 C 96.176 136.482,100.117 149.076,100.938 149.896 C 101.035 149.993,102.533 149.148,104.268 148.018 C 107.830 145.698,107.865 145.606,106.468 142.168 L 105.514 139.819 108.740 137.781 C 110.514 136.660,112.306 135.533,112.721 135.278 C 113.137 135.023,114.854 133.969,116.538 132.935 C 119.556 131.081,119.596 131.036,119.392 129.688 C 119.278 128.936,119.068 127.079,118.924 125.562 L 118.664 122.804 116.862 121.851 C 115.872 121.327,114.924 120.942,114.757 120.996 C 114.590 121.050,114.453 120.938,114.453 120.748 C 114.453 120.388,109.514 117.323,108.596 117.112 C 108.308 117.046,107.791 116.729,107.446 116.406 C 107.101 116.084,106.388 115.538,105.862 115.194 L 104.905 114.568 107.737 108.618 C 109.294 105.346,110.608 102.468,110.655 102.223 C 110.703 101.977,111.146 101.445,111.640 101.040 C 112.453 100.374,112.525 100.039,112.401 97.515 L 112.263 94.727 109.073 94.613 L 105.883 94.500 105.285 95.931 M155.273 96.875 C 156.113 97.734,156.887 98.438,156.994 98.438 C 157.102 98.438,156.503 97.734,155.664 96.875 C 154.825 96.016,154.050 95.313,153.943 95.313 C 153.836 95.313,154.434 96.016,155.273 96.875 M174.322 105.358 C 174.916 105.448,175.794 105.446,176.275 105.353 C 176.755 105.260,176.270 105.187,175.195 105.190 C 174.121 105.193,173.728 105.269,174.322 105.358 M180.176 105.347 C 180.552 105.446,181.167 105.446,181.543 105.347 C 181.919 105.249,181.611 105.169,180.859 105.169 C 180.107 105.169,179.800 105.249,180.176 105.347 M120.153 107.079 C 120.058 107.375,119.874 108.414,119.744 109.389 L 119.509 111.160 121.343 111.651 C 123.504 112.229,123.626 112.117,123.964 109.260 C 124.245 106.892,124.317 106.990,122.097 106.740 C 120.802 106.594,120.280 106.685,120.153 107.079 M60.352 115.311 C 59.922 115.554,59.463 115.915,59.331 116.113 C 59.200 116.311,58.936 116.444,58.745 116.409 C 57.957 116.265,55.469 117.352,55.469 117.841 C 55.469 118.131,56.815 121.048,58.459 124.321 C 61.006 129.389,62.250 132.796,61.352 132.241 C 60.909 131.968,58.191 138.967,58.464 139.678 C 58.643 140.145,58.581 140.273,58.270 140.080 C 58.018 139.925,57.813 139.984,57.813 140.211 C 57.813 140.439,57.999 140.625,58.226 140.625 C 58.454 140.625,58.537 140.791,58.412 140.994 C 58.137 141.438,59.327 146.874,59.699 146.877 C 59.843 146.878,59.988 147.600,60.022 148.481 C 60.107 150.697,60.290 150.771,64.200 150.182 C 68.466 149.539,68.166 150.139,66.830 144.920 L 65.696 140.487 66.634 138.366 C 67.150 137.199,67.475 136.087,67.357 135.895 C 67.238 135.704,67.301 135.547,67.496 135.547 C 67.692 135.547,68.332 134.417,68.919 133.036 L 69.986 130.526 65.950 122.690 C 63.730 118.381,61.738 114.858,61.523 114.861 C 61.309 114.865,60.781 115.067,60.352 115.311 M186.230 119.009 C 185.210 119.359,184.375 119.806,184.375 120.002 C 184.375 120.198,184.235 120.272,184.063 120.166 C 183.892 120.060,183.517 120.118,183.231 120.296 C 182.369 120.828,185.927 121.537,207.813 125.198 C 215.010 126.401,222.744 127.716,225.000 128.119 C 227.256 128.522,229.893 128.964,230.859 129.102 C 240.716 130.504,247.561 135.949,249.176 143.672 C 250.402 149.530,247.740 166.294,245.007 169.922 C 239.589 177.116,233.770 178.870,221.656 176.958 C 214.253 175.790,209.462 175.017,207.031 174.598 C 205.850 174.395,200.576 173.520,195.313 172.655 C 190.049 171.789,184.248 170.819,182.422 170.499 C 180.596 170.178,177.871 169.733,176.367 169.510 C 171.868 168.841,168.680 167.996,166.898 167.000 C 165.973 166.483,165.323 166.234,165.455 166.447 C 165.609 166.697,164.958 166.727,163.608 166.533 C 162.462 166.369,161.040 166.229,160.449 166.223 C 159.858 166.216,159.375 166.099,159.375 165.961 C 159.375 165.674,156.685 165.063,155.957 165.186 C 155.688 165.232,155.469 165.106,155.469 164.908 C 155.469 164.710,154.934 164.327,154.281 164.056 C 153.628 163.785,152.513 162.885,151.802 162.055 C 150.251 160.243,150.000 160.194,150.000 161.704 C 150.000 165.772,154.231 171.199,158.795 172.985 C 161.346 173.984,161.780 174.068,173.242 175.791 C 177.539 176.437,184.219 177.482,188.086 178.114 C 221.169 183.523,233.104 185.147,236.423 184.693 C 242.758 183.827,248.635 177.933,250.570 170.508 C 251.211 168.045,253.736 149.149,254.146 143.743 C 254.582 137.995,253.308 132.994,250.584 129.756 C 248.592 127.389,241.326 123.475,239.923 124.014 C 239.443 124.198,231.711 123.443,216.406 121.717 C 210.609 121.064,210.382 121.042,208.496 120.983 C 207.690 120.957,207.031 120.773,207.031 120.574 C 207.031 120.364,206.194 120.323,205.044 120.475 C 203.607 120.666,203.132 120.616,203.330 120.296 C 203.515 119.998,203.240 119.892,202.485 119.971 C 201.870 120.036,201.191 119.986,200.976 119.860 C 200.574 119.625,196.073 119.100,192.969 118.926 C 192.002 118.872,190.508 118.725,189.648 118.600 C 188.664 118.457,187.399 118.608,186.230 119.009 M328.990 153.693 L 329.102 162.855 328.177 163.276 C 326.400 164.085,326.198 163.150,326.184 154.036 C 326.170 144.735,326.204 144.531,327.762 144.531 L 328.879 144.531 328.990 153.693 M334.513 147.520 C 335.249 156.229,334.639 163.033,333.105 163.210 L 332.031 163.333 332.031 153.932 L 332.031 144.531 333.146 144.531 C 334.252 144.531,334.262 144.553,334.513 147.520 M340.144 152.982 C 340.259 161.957,340.035 163.418,338.574 163.211 C 337.696 163.086,337.695 163.076,337.590 154.306 C 337.471 144.430,337.471 144.431,338.963 144.603 L 340.039 144.727 340.144 152.982 M157.138 150.781 C 157.138 151.748,157.214 152.144,157.307 151.660 C 157.400 151.177,157.400 150.386,157.307 149.902 C 157.214 149.419,157.138 149.814,157.138 150.781 M274.309 151.563 C 274.309 152.314,274.390 152.622,274.488 152.246 C 274.586 151.870,274.586 151.255,274.488 150.879 C 274.390 150.503,274.309 150.811,274.309 151.563 M142.305 161.328 C 142.305 162.510,142.378 162.993,142.467 162.402 C 142.557 161.812,142.557 160.845,142.467 160.254 C 142.378 159.663,142.305 160.146,142.305 161.328 M75.777 164.770 L 74.023 166.602 76.706 166.718 C 79.842 166.854,79.944 166.798,79.314 165.275 C 78.297 162.820,77.723 162.738,75.777 164.770 M75.000 172.798 C 75.000 172.877,75.718 173.438,76.596 174.047 C 78.040 175.047,77.657 176.504,76.189 175.597 C 75.723 175.308,71.094 176.213,71.094 176.592 C 71.094 176.777,70.858 176.838,70.570 176.728 C 69.861 176.456,64.233 179.426,64.355 180.007 C 64.409 180.261,64.318 180.425,64.153 180.371 C 63.428 180.136,58.984 184.970,58.984 185.994 C 58.984 186.394,69.524 186.424,84.915 186.070 C 97.562 185.778,96.608 186.137,94.415 182.491 C 91.609 177.827,87.334 174.717,81.730 173.265 C 79.669 172.731,75.000 172.407,75.000 172.798 M108.301 186.613 C 109.106 186.697,110.425 186.697,111.230 186.613 C 112.036 186.528,111.377 186.459,109.766 186.459 C 108.154 186.459,107.495 186.528,108.301 186.613 M189.138 188.936 C 189.076 191.239,188.940 191.771,188.379 191.918 C 187.738 192.086,187.739 192.100,188.391 192.142 C 189.339 192.204,189.517 191.554,189.353 188.631 L 189.213 186.133 189.138 188.936 M35.059 186.994 C 35.542 187.088,36.333 187.088,36.816 186.994 C 37.300 186.901,36.904 186.825,35.938 186.825 C 34.971 186.825,34.575 186.901,35.059 186.994 M198.047 188.401 C 198.047 188.729,197.871 189.056,197.656 189.128 C 197.441 189.199,198.841 189.249,200.768 189.238 C 204.801 189.216,205.641 188.893,202.650 188.515 C 201.515 188.371,200.015 188.153,199.316 188.029 C 198.340 187.856,198.047 187.941,198.047 188.401 M294.643 192.773 C 294.646 193.848,294.722 194.241,294.812 193.647 C 294.901 193.053,294.899 192.174,294.806 191.694 C 294.714 191.213,294.640 191.699,294.643 192.773 M179.590 192.083 C 180.503 192.165,181.997 192.165,182.910 192.083 C 183.823 192.001,183.076 191.933,181.250 191.933 C 179.424 191.933,178.677 192.001,179.590 192.083 M198.177 192.278 C 198.177 192.659,199.148 192.783,202.116 192.779 C 207.515 192.771,207.677 192.025,202.311 191.882 C 199.130 191.797,198.177 191.888,198.177 192.278 M100.030 193.360 C 99.759 193.897,98.543 195.242,97.327 196.349 C 94.767 198.681,94.842 199.628,97.419 197.516 C 99.309 195.968,100.941 193.645,100.684 192.871 C 100.589 192.587,100.317 192.790,100.030 193.360 M214.551 193.249 C 215.142 193.338,216.108 193.338,216.699 193.249 C 217.290 193.159,216.807 193.086,215.625 193.086 C 214.443 193.086,213.960 193.159,214.551 193.249 M228.032 193.636 C 228.518 193.729,229.221 193.726,229.594 193.628 C 229.968 193.530,229.570 193.454,228.711 193.458 C 227.852 193.462,227.546 193.542,228.032 193.636 M34.675 195.596 C 35.377 195.683,36.432 195.681,37.019 195.592 C 37.606 195.502,37.031 195.431,35.742 195.434 C 34.453 195.436,33.973 195.509,34.675 195.596 M76.172 195.603 C 76.172 196.009,62.607 196.578,55.371 196.475 L 51.172 196.415 51.177 197.524 C 51.185 199.050,51.588 200.421,51.961 200.190 C 52.131 200.085,52.179 200.351,52.066 200.781 C 51.948 201.235,52.054 201.563,52.321 201.563 C 52.574 201.563,52.675 201.733,52.546 201.942 C 52.241 202.435,54.500 207.857,55.597 209.264 L 56.444 210.352 55.273 209.616 C 54.629 209.212,53.574 208.496,52.930 208.026 C 50.783 206.460,50.652 206.507,51.940 208.380 C 54.128 211.560,57.660 214.730,60.938 216.457 C 63.381 217.744,87.344 218.178,86.289 216.916 C 85.965 216.528,84.784 215.129,83.664 213.807 L 81.628 211.403 85.990 208.972 C 88.389 207.635,90.809 206.389,91.367 206.202 L 92.383 205.863 91.299 206.004 C 90.703 206.082,90.122 205.993,90.007 205.807 C 89.892 205.621,89.413 205.469,88.942 205.468 C 86.109 205.467,80.265 201.353,77.753 197.591 C 76.883 196.289,76.172 195.394,76.172 195.603 M177.447 199.890 C 178.041 199.979,178.919 199.977,179.400 199.884 C 179.880 199.792,179.395 199.718,178.320 199.721 C 177.246 199.724,176.853 199.800,177.447 199.890 M191.895 200.280 C 192.485 200.369,193.452 200.369,194.043 200.280 C 194.634 200.190,194.150 200.117,192.969 200.117 C 191.787 200.117,191.304 200.190,191.895 200.280 M204.009 200.671 C 204.603 200.761,205.482 200.758,205.962 200.666 C 206.443 200.573,205.957 200.499,204.883 200.502 C 203.809 200.505,203.416 200.581,204.009 200.671 M216.313 201.058 C 216.799 201.151,217.502 201.147,217.876 201.050 C 218.249 200.952,217.852 200.875,216.992 200.880 C 216.133 200.884,215.827 200.964,216.313 201.058 M227.441 201.441 C 227.817 201.539,228.433 201.539,228.809 201.441 C 229.185 201.343,228.877 201.263,228.125 201.263 C 227.373 201.263,227.065 201.343,227.441 201.441 M145.483 203.613 L 144.336 204.883 145.605 203.736 C 146.789 202.666,147.055 202.344,146.753 202.344 C 146.686 202.344,146.114 202.915,145.483 203.613 M101.363 205.084 C 101.228 205.303,100.959 205.383,100.765 205.263 C 99.831 204.686,97.212 206.471,97.977 207.163 C 98.676 207.796,98.793 207.753,100.430 206.273 C 101.375 205.419,102.027 204.712,101.879 204.704 C 101.730 204.695,101.498 204.866,101.363 205.084 M103.416 207.379 L 100.855 210.070 102.299 211.480 C 104.147 213.284,104.028 213.311,107.108 210.385 C 108.546 209.018,109.787 207.924,109.866 207.954 C 109.945 207.984,109.262 207.261,108.348 206.348 C 106.241 204.243,106.439 204.202,103.416 207.379 M168.498 205.604 C 167.724 206.382,167.641 206.993,167.400 213.672 C 167.257 217.646,166.712 230.391,166.191 241.992 C 165.669 253.594,164.984 269.063,164.668 276.367 C 164.353 283.672,163.996 291.681,163.876 294.166 L 163.658 298.683 165.520 299.634 C 167.659 300.727,176.938 300.992,212.695 300.982 C 232.261 300.976,232.233 300.980,233.556 298.240 C 234.722 295.826,234.361 207.799,233.181 206.618 C 232.393 205.831,232.114 205.819,219.411 206.017 C 211.211 206.145,206.876 206.087,207.617 205.859 C 208.377 205.625,205.218 205.547,198.633 205.639 C 192.897 205.718,188.987 205.640,189.648 205.458 C 190.393 205.253,188.468 205.130,184.375 205.121 C 180.830 205.114,175.996 205.030,173.633 204.935 C 169.632 204.775,169.278 204.821,168.498 205.604 M297.971 206.565 C 297.041 207.494,296.975 207.721,297.405 208.508 C 297.673 208.998,298.030 209.262,298.197 209.094 C 298.365 208.926,298.467 208.965,298.424 209.180 C 298.268 209.951,298.456 210.381,299.738 212.183 L 301.038 214.012 303.058 212.136 C 305.501 209.866,305.491 210.112,303.200 208.642 C 302.167 207.979,300.906 206.994,300.398 206.453 C 299.275 205.258,299.280 205.257,297.971 206.565 M337.207 205.738 C 337.583 205.836,338.198 205.836,338.574 205.738 C 338.950 205.640,338.643 205.559,337.891 205.559 C 337.139 205.559,336.831 205.640,337.207 205.738 M155.177 208.008 C 155.181 208.867,155.261 209.173,155.354 208.687 C 155.448 208.201,155.444 207.498,155.347 207.124 C 155.249 206.751,155.172 207.148,155.177 208.008 M109.553 212.610 C 106.503 215.736,106.517 215.460,109.269 218.244 C 110.500 219.489,111.175 220.111,110.768 219.625 L 110.029 218.743 112.534 216.061 C 114.010 214.480,115.275 213.448,115.613 213.546 C 115.929 213.638,116.105 213.646,116.004 213.564 C 115.903 213.482,114.978 212.652,113.948 211.720 L 112.075 210.025 109.553 212.610 M190.234 210.740 C 219.626 211.636,221.537 212.474,195.508 213.053 C 189.277 213.191,183.213 213.416,182.031 213.552 C 180.850 213.688,179.522 213.763,179.081 213.718 C 177.506 213.557,176.911 214.872,176.684 219.008 L 176.474 222.852 177.653 221.599 C 181.113 217.921,187.223 221.207,186.135 226.161 C 185.892 227.269,183.961 229.297,183.150 229.297 C 182.939 229.297,182.848 229.429,182.948 229.591 C 183.048 229.753,182.353 229.915,181.404 229.952 C 180.280 229.996,179.767 229.875,179.932 229.607 C 180.072 229.381,179.964 229.270,179.691 229.361 C 179.419 229.452,178.704 229.035,178.104 228.435 C 177.504 227.835,176.865 227.344,176.684 227.344 C 176.503 227.344,175.862 232.485,175.259 238.770 C 173.816 253.818,173.754 254.353,173.503 254.102 C 173.385 253.983,173.190 244.624,173.070 233.303 C 172.807 208.479,172.357 209.993,179.883 210.360 C 181.816 210.454,186.475 210.625,190.234 210.740 M293.436 210.795 C 292.737 211.544,292.830 211.930,294.538 215.341 C 296.245 218.751,296.269 219.211,294.691 218.176 C 294.006 217.728,293.757 217.677,293.958 218.026 C 294.125 218.317,293.575 217.835,292.736 216.956 C 291.897 216.077,290.868 215.171,290.448 214.943 C 289.776 214.578,289.750 214.443,290.234 213.807 C 290.536 213.411,290.058 213.768,289.171 214.602 C 287.233 216.423,287.505 217.530,290.946 221.838 L 291.697 222.778 295.751 219.070 C 300.352 214.861,300.404 214.733,298.166 213.106 C 294.848 210.693,293.944 210.251,293.436 210.795 M162.208 212.695 C 162.212 213.555,162.292 213.860,162.386 213.374 C 162.479 212.888,162.476 212.185,162.378 211.812 C 162.280 211.438,162.204 211.836,162.208 212.695 M95.508 214.844 C 97.216 216.563,98.702 217.969,98.810 217.969 C 98.917 217.969,97.607 216.563,95.898 214.844 C 94.190 213.125,92.704 211.719,92.596 211.719 C 92.489 211.719,93.799 213.125,95.508 214.844 M114.834 218.226 L 111.919 221.166 112.836 221.909 C 113.340 222.318,113.909 222.556,114.099 222.439 C 114.289 222.321,114.339 222.498,114.212 222.831 C 114.004 223.373,114.422 223.622,115.318 223.488 C 115.471 223.466,115.509 223.676,115.402 223.955 C 115.295 224.235,115.609 224.804,116.100 225.220 C 116.990 225.975,116.991 225.975,116.326 225.183 C 115.682 224.417,115.738 224.308,117.997 221.941 C 119.300 220.576,120.217 219.301,120.068 219.061 C 119.921 218.824,119.969 218.733,120.173 218.859 C 121.461 219.655,121.001 218.279,119.525 216.920 L 117.750 215.285 114.834 218.226 M154.786 216.992 C 154.790 217.852,154.870 218.157,154.964 217.671 C 155.057 217.185,155.054 216.482,154.956 216.109 C 154.858 215.735,154.782 216.133,154.786 216.992 M284.750 218.570 C 282.968 220.409,283.445 224.470,285.657 226.303 C 286.134 226.698,286.306 226.909,286.040 226.771 C 285.720 226.607,285.635 226.728,285.788 227.128 C 286.100 227.939,285.989 227.998,288.348 225.763 L 290.430 223.792 289.063 222.610 C 288.311 221.960,286.937 220.978,286.011 220.428 L 284.327 219.429 285.401 218.308 C 285.991 217.692,286.388 217.188,286.283 217.188 C 286.177 217.188,285.488 217.810,284.750 218.570 M307.202 218.848 L 306.055 220.117 307.324 218.970 C 308.022 218.339,308.594 217.768,308.594 217.700 C 308.594 217.399,308.271 217.664,307.202 218.848 M333.666 218.652 C 337.251 218.716,343.228 218.716,346.948 218.652 C 350.667 218.588,347.734 218.535,340.430 218.535 C 333.125 218.535,330.082 218.587,333.666 218.652 M161.825 221.875 C 161.825 222.842,161.901 223.237,161.994 222.754 C 162.088 222.271,162.088 221.479,161.994 220.996 C 161.901 220.513,161.825 220.908,161.825 221.875 M105.078 224.414 C 107.111 226.455,108.862 228.125,108.969 228.125 C 109.076 228.125,107.501 226.455,105.469 224.414 C 103.436 222.373,101.685 220.703,101.578 220.703 C 101.471 220.703,103.046 222.373,105.078 224.414 M143.173 221.471 C 142.881 221.942,144.869 225.002,145.462 224.994 C 146.869 224.975,147.020 224.281,145.965 222.686 C 144.954 221.159,143.702 220.614,143.173 221.471 M301.733 223.926 L 300.586 225.195 301.855 224.048 C 302.554 223.417,303.125 222.846,303.125 222.778 C 303.125 222.477,302.803 222.742,301.733 223.926 M141.043 223.600 C 140.597 224.138,140.593 224.500,141.020 225.794 C 141.476 227.176,142.188 227.910,142.188 226.999 C 142.188 226.809,142.539 226.562,142.969 226.449 C 144.008 226.178,143.956 225.803,142.664 224.256 C 141.678 223.074,141.529 223.014,141.043 223.600 M92.969 223.560 C 92.969 223.627,93.540 224.198,94.238 224.829 L 95.508 225.977 94.361 224.707 C 93.291 223.524,92.969 223.258,92.969 223.560 M225.740 224.316 C 225.921 224.800,225.981 228.212,225.872 231.899 L 225.675 238.604 223.824 238.735 L 221.973 238.867 221.903 232.539 C 221.807 223.962,221.921 223.438,223.881 223.438 C 225.108 223.438,225.475 223.611,225.740 224.316 M255.850 224.814 C 255.126 225.561,254.680 226.172,254.859 226.172 C 255.037 226.172,254.720 226.536,254.154 226.981 C 252.772 228.068,252.857 228.696,254.540 229.840 L 255.955 230.801 258.153 228.437 C 259.979 226.475,261.806 224.114,260.751 225.081 C 260.586 225.233,260.164 225.032,259.815 224.634 C 258.606 223.257,257.302 223.317,255.850 224.814 M279.307 225.183 C 279.072 225.467,278.929 225.937,278.990 226.228 C 279.051 226.520,278.887 226.716,278.625 226.664 C 277.593 226.461,277.295 228.029,278.224 228.781 C 278.707 229.172,279.567 230.055,280.135 230.744 L 281.169 231.995 283.335 230.100 C 285.427 228.269,285.476 228.182,284.767 227.541 C 284.364 227.175,283.859 226.985,283.645 227.117 C 283.432 227.249,283.130 227.151,282.974 226.899 C 282.788 226.598,282.879 226.535,283.240 226.716 C 283.542 226.866,283.363 226.674,282.841 226.288 C 281.131 225.021,279.789 224.602,279.307 225.183 M326.465 225.276 C 326.948 225.369,327.739 225.369,328.223 225.276 C 328.706 225.183,328.311 225.106,327.344 225.106 C 326.377 225.106,325.981 225.183,326.465 225.276 M358.691 225.280 C 359.282 225.369,360.249 225.369,360.840 225.280 C 361.431 225.190,360.947 225.117,359.766 225.117 C 358.584 225.117,358.101 225.190,358.691 225.280 M127.441 225.660 C 127.817 225.758,128.433 225.758,128.809 225.660 C 129.185 225.562,128.877 225.481,128.125 225.481 C 127.373 225.481,127.065 225.562,127.441 225.660 M36.612 226.063 C 37.306 226.149,38.536 226.151,39.347 226.066 C 40.157 225.982,39.590 225.911,38.086 225.909 C 36.582 225.908,35.919 225.977,36.612 226.063 M56.348 226.074 C 63.384 226.134,74.897 226.134,81.934 226.074 C 88.970 226.014,83.213 225.966,69.141 225.966 C 55.068 225.966,49.312 226.014,56.348 226.074 M109.375 228.638 C 109.375 228.705,109.946 229.276,110.645 229.907 L 111.914 231.055 110.767 229.785 C 109.697 228.602,109.375 228.336,109.375 228.638 M154.005 230.664 C 154.009 231.523,154.089 231.829,154.183 231.343 C 154.276 230.857,154.272 230.154,154.175 229.781 C 154.077 229.407,154.000 229.805,154.005 230.664 M161.435 231.250 C 161.435 232.217,161.511 232.612,161.604 232.129 C 161.697 231.646,161.697 230.854,161.604 230.371 C 161.511 229.888,161.435 230.283,161.435 231.250 M41.504 231.139 C 42.095 231.229,43.062 231.229,43.652 231.139 C 44.243 231.050,43.760 230.976,42.578 230.976 C 41.396 230.976,40.913 231.050,41.504 231.139 M305.679 232.852 C 304.920 233.518,304.414 234.248,304.554 234.475 C 304.694 234.701,304.636 234.780,304.426 234.650 C 303.930 234.344,297.927 240.374,298.328 240.776 C 298.496 240.944,298.441 241.022,298.206 240.951 C 297.972 240.879,295.686 242.727,293.128 245.057 C 288.325 249.432,282.313 253.735,279.374 254.903 C 277.842 255.511,277.703 255.678,277.811 256.789 L 277.930 258.008 289.453 258.086 L 300.977 258.164 313.161 246.001 C 319.863 239.311,325.266 233.707,325.167 233.548 C 325.068 233.388,325.193 233.130,325.445 232.974 C 325.755 232.783,325.799 232.868,325.583 233.240 C 325.408 233.542,325.732 233.363,326.304 232.842 C 326.876 232.321,327.344 231.838,327.344 231.768 C 327.344 231.698,322.780 231.641,317.201 231.641 L 307.058 231.641 305.679 232.852 M339.814 232.715 L 338.867 233.789 339.854 232.924 C 340.720 232.165,341.364 232.044,345.127 231.933 L 349.414 231.807 345.088 231.724 C 340.813 231.642,340.750 231.653,339.814 232.715 M133.984 232.717 C 133.984 234.476,130.386 236.404,127.148 236.380 C 124.964 236.363,124.858 236.403,125.586 236.962 C 128.261 239.014,136.463 234.771,134.199 232.506 C 134.081 232.388,133.984 232.483,133.984 232.717 M102.734 233.716 C 102.734 233.783,103.306 234.354,104.004 234.986 L 105.273 236.133 104.126 234.863 C 103.057 233.680,102.734 233.414,102.734 233.716 M45.410 237.791 C 47.720 237.861,51.499 237.861,53.809 237.791 C 56.118 237.722,54.229 237.666,49.609 237.666 C 44.990 237.666,43.101 237.722,45.410 237.791 M68.457 237.790 C 69.907 237.865,72.280 237.865,73.730 237.790 C 75.181 237.715,73.994 237.653,71.094 237.653 C 68.193 237.653,67.007 237.715,68.457 237.790 M78.418 237.788 C 79.546 237.867,81.392 237.867,82.520 237.788 C 83.647 237.709,82.725 237.645,80.469 237.645 C 78.213 237.645,77.290 237.709,78.418 237.788 M93.848 237.789 C 95.083 237.866,97.104 237.866,98.340 237.789 C 99.575 237.711,98.564 237.648,96.094 237.648 C 93.623 237.648,92.612 237.711,93.848 237.789 M46.875 239.062 C 46.573 239.249,46.159 239.298,45.954 239.172 C 45.750 239.045,45.686 239.110,45.813 239.315 C 45.940 239.520,45.685 239.911,45.246 240.185 C 44.592 240.594,44.504 240.590,44.753 240.166 C 44.920 239.881,44.679 239.980,44.217 240.384 C 43.755 240.789,43.462 241.256,43.565 241.423 C 43.875 241.924,43.309 242.983,42.875 242.715 C 41.794 242.048,42.837 246.923,44.030 248.116 C 48.113 252.199,56.323 246.151,52.441 241.919 C 52.065 241.509,51.934 241.446,52.148 241.778 C 52.492 242.310,52.454 242.316,51.838 241.832 C 51.452 241.529,51.227 241.046,51.337 240.759 C 51.733 239.727,48.059 238.330,46.875 239.062 M75.242 239.076 C 73.711 239.534,72.265 240.950,72.556 241.707 C 72.699 242.080,72.628 242.216,72.373 242.059 C 71.771 241.686,71.523 242.620,71.627 244.875 C 71.724 246.994,73.083 249.048,74.123 248.649 C 74.413 248.538,74.554 248.602,74.437 248.792 C 74.161 249.238,75.146 249.609,76.607 249.609 C 79.713 249.609,82.027 247.308,82.030 244.215 C 82.031 243.205,81.877 242.627,81.645 242.771 C 81.424 242.907,81.358 242.751,81.491 242.405 C 81.795 241.613,79.118 238.898,78.331 239.200 C 78.017 239.320,77.656 239.251,77.529 239.045 C 77.258 238.608,76.782 238.615,75.242 239.076 M102.519 239.317 C 102.295 239.672,101.739 239.990,101.284 240.024 C 100.170 240.106,99.135 241.014,99.392 241.684 C 99.507 241.983,99.445 242.132,99.255 242.015 C 98.779 241.721,98.436 242.756,98.443 244.466 C 98.448 245.579,98.541 245.768,98.860 245.313 C 99.181 244.854,99.216 244.918,99.023 245.606 C 98.701 246.747,99.976 248.561,101.560 249.218 C 103.734 250.118,108.246 248.733,107.900 247.271 C 107.841 247.021,107.974 246.928,108.194 247.065 C 108.415 247.201,108.771 246.851,108.985 246.287 C 110.168 243.177,107.676 238.873,104.932 239.285 C 103.949 239.432,103.863 239.396,104.492 239.097 C 105.181 238.770,105.135 238.724,104.100 238.699 C 103.409 238.683,102.758 238.937,102.519 239.317 M161.036 240.039 C 161.040 240.898,161.120 241.204,161.214 240.718 C 161.307 240.232,161.304 239.529,161.206 239.156 C 161.108 238.782,161.032 239.180,161.036 240.039 M181.521 238.922 C 181.384 239.059,181.932 239.498,182.738 239.897 C 185.671 241.348,186.561 245.215,184.419 247.198 C 182.819 248.679,182.135 249.192,181.975 249.035 C 181.899 248.960,181.045 248.845,180.078 248.779 C 178.412 248.666,176.172 246.878,176.172 245.662 C 176.172 245.483,175.908 245.438,175.586 245.562 C 175.146 245.731,175.007 245.508,175.027 244.671 C 175.052 243.675,175.094 243.639,175.421 244.336 C 175.719 244.972,175.763 244.881,175.657 243.848 C 175.585 243.149,175.643 242.578,175.786 242.578 C 175.929 242.578,176.238 242.158,176.472 241.645 C 176.713 241.114,177.794 240.278,178.976 239.706 C 180.992 238.731,182.033 238.410,181.521 238.922 M153.606 240.234 C 153.606 240.986,153.687 241.294,153.785 240.918 C 153.883 240.542,153.883 239.927,153.785 239.551 C 153.687 239.175,153.606 239.482,153.606 240.234 M117.969 239.575 C 117.969 239.643,118.540 240.214,119.238 240.845 L 120.508 241.992 119.361 240.723 C 118.291 239.539,117.969 239.274,117.969 239.575 M273.627 240.292 C 271.819 241.266,268.359 242.260,268.359 241.806 C 268.359 241.635,267.832 241.418,267.188 241.323 C 265.736 241.110,265.718 241.232,267.094 241.944 C 268.396 242.617,272.417 242.749,272.019 242.105 C 271.862 241.851,271.934 241.787,272.194 241.948 C 272.730 242.279,274.495 241.177,275.030 240.179 C 275.514 239.275,275.515 239.275,273.627 240.292 M327.576 244.716 L 322.144 249.889 322.394 251.709 C 322.902 255.420,324.157 256.627,328.375 257.458 C 330.754 257.927,347.943 258.413,349.378 258.051 C 350.178 257.850,350.195 257.652,350.194 248.942 L 350.192 240.039 341.892 239.964 C 337.326 239.922,333.460 239.811,333.299 239.716 C 333.139 239.621,330.563 241.871,327.576 244.716 M29.486 288.867 C 29.486 315.293,29.533 326.161,29.590 313.019 C 29.647 299.876,29.647 278.255,29.590 264.972 C 29.533 251.688,29.486 262.441,29.486 288.867 M36.474 246.680 C 36.475 249.043,36.539 249.959,36.617 248.716 C 36.695 247.473,36.694 245.539,36.616 244.419 C 36.537 243.299,36.473 244.316,36.474 246.680 M145.419 246.094 C 145.419 247.061,145.495 247.456,145.588 246.973 C 145.681 246.489,145.681 245.698,145.588 245.215 C 145.495 244.731,145.419 245.127,145.419 246.094 M153.216 248.047 C 153.216 248.799,153.296 249.106,153.394 248.730 C 153.493 248.354,153.493 247.739,153.394 247.363 C 153.296 246.987,153.216 247.295,153.216 248.047 M160.638 248.047 C 160.638 248.799,160.718 249.106,160.816 248.730 C 160.914 248.354,160.914 247.739,160.816 247.363 C 160.718 246.987,160.638 247.295,160.638 248.047 M224.902 247.492 C 225.779 247.671,225.781 247.695,225.781 255.498 L 225.781 263.324 223.926 263.205 L 222.070 263.086 221.994 255.039 L 221.918 246.992 222.971 247.152 C 223.550 247.241,224.419 247.394,224.902 247.492 M138.380 249.805 C 138.384 250.664,138.464 250.970,138.558 250.484 C 138.651 249.998,138.647 249.295,138.550 248.921 C 138.452 248.548,138.375 248.945,138.380 249.805 M252.344 253.311 L 252.344 258.185 253.418 258.844 C 254.009 259.207,255.216 260.222,256.102 261.099 C 256.987 261.977,258.415 263.330,259.275 264.107 C 260.301 265.032,261.063 266.193,261.490 267.479 C 262.167 269.516,263.303 270.919,263.864 270.411 C 264.042 270.249,264.061 270.337,263.906 270.606 C 263.277 271.700,267.565 272.231,269.626 271.315 C 270.268 271.029,270.314 272.375,270.434 295.174 C 270.505 308.463,270.504 305.537,270.432 288.672 C 270.279 252.431,270.505 256.540,268.670 256.715 C 267.858 256.793,267.149 256.726,267.093 256.568 C 267.038 256.410,266.245 256.229,265.333 256.167 C 264.420 256.105,263.673 255.904,263.672 255.720 C 263.672 255.536,263.420 255.482,263.111 255.600 C 262.803 255.719,262.495 255.685,262.428 255.525 C 262.189 254.959,258.502 253.136,258.100 253.384 C 257.875 253.523,257.799 253.464,257.929 253.253 C 258.059 253.042,257.374 252.206,256.405 251.397 C 254.857 250.102,254.195 249.758,253.027 249.639 C 252.866 249.623,252.734 249.412,252.734 249.171 C 252.734 248.884,252.971 248.918,253.418 249.269 C 254.038 249.754,254.051 249.741,253.565 249.121 C 252.537 247.809,252.344 248.471,252.344 253.311 M244.682 254.688 C 244.682 257.373,244.744 258.472,244.820 257.129 C 244.897 255.786,244.897 253.589,244.820 252.246 C 244.744 250.903,244.682 252.002,244.682 254.688 M160.247 256.641 C 160.247 257.393,160.327 257.700,160.426 257.324 C 160.524 256.948,160.524 256.333,160.426 255.957 C 160.327 255.581,160.247 255.889,160.247 256.641 M36.508 257.910 C 36.405 258.179,36.368 272.813,36.425 290.430 L 36.528 322.461 36.623 290.169 C 36.698 264.773,36.823 257.836,37.207 257.681 C 37.589 257.526,37.587 257.477,37.195 257.453 C 36.919 257.436,36.610 257.642,36.508 257.910 M45.433 257.714 C 48.185 257.781,52.579 257.781,55.199 257.713 C 57.818 257.646,55.566 257.591,50.195 257.591 C 44.824 257.591,42.681 257.647,45.433 257.714 M71.777 257.714 C 75.269 257.779,80.981 257.779,84.473 257.714 C 87.964 257.649,85.107 257.596,78.125 257.596 C 71.143 257.596,68.286 257.649,71.777 257.714 M109.277 257.714 C 112.769 257.779,118.481 257.779,121.973 257.714 C 125.464 257.649,122.607 257.596,115.625 257.596 C 108.643 257.596,105.786 257.649,109.277 257.714 M136.816 257.691 C 137.192 257.789,137.808 257.789,138.184 257.691 C 138.560 257.593,138.252 257.513,137.500 257.513 C 136.748 257.513,136.440 257.593,136.816 257.691 M145.066 261.719 C 145.066 263.975,145.131 264.897,145.210 263.770 C 145.289 262.642,145.289 260.796,145.210 259.668 C 145.131 258.540,145.066 259.463,145.066 261.719 M182.817 258.989 C 185.273 261.445,185.529 264.487,183.460 266.617 C 182.742 267.357,182.063 267.871,181.952 267.759 C 181.840 267.647,181.299 267.728,180.748 267.937 C 177.938 269.005,174.394 264.893,175.356 261.681 C 176.260 258.662,180.839 257.011,182.817 258.989 M312.098 260.840 L 309.570 263.477 312.207 260.949 C 313.657 259.559,314.844 258.372,314.844 258.312 C 314.844 258.025,314.446 258.391,312.098 260.840 M138.457 271.680 C 138.457 278.984,138.509 281.917,138.574 278.198 C 138.638 274.478,138.638 268.501,138.573 264.916 C 138.509 261.332,138.456 264.375,138.457 271.680 M152.434 263.672 C 152.434 264.424,152.515 264.731,152.613 264.355 C 152.711 263.979,152.711 263.364,152.613 262.988 C 152.515 262.612,152.434 262.920,152.434 263.672 M159.864 263.867 C 159.868 264.727,159.948 265.032,160.042 264.546 C 160.135 264.060,160.132 263.357,160.034 262.984 C 159.936 262.610,159.860 263.008,159.864 263.867 M277.606 265.123 C 277.502 265.292,278.630 265.371,280.114 265.300 C 282.770 265.172,283.269 265.403,282.344 266.328 C 281.829 266.842,289.637 266.739,292.090 266.198 C 293.639 265.856,293.751 265.397,292.285 265.395 C 291.694 265.394,288.193 265.264,284.504 265.105 C 280.815 264.947,277.711 264.955,277.606 265.123 M308.918 265.547 C 306.400 265.710,306.070 266.219,306.668 269.024 C 307.294 271.960,307.615 272.278,309.668 271.998 L 311.328 271.772 311.328 268.722 C 311.328 265.290,311.401 265.387,308.918 265.547 M318.359 269.776 L 318.359 274.318 320.215 272.611 C 321.235 271.672,322.283 270.287,322.543 269.534 C 323.578 266.530,324.008 266.406,333.362 266.406 C 343.518 266.406,344.878 266.810,344.934 269.843 C 344.950 270.707,345.532 271.405,347.537 272.971 C 349.298 274.346,349.808 275.322,349.414 276.563 C 349.025 277.788,347.064 277.610,346.202 276.270 C 343.407 271.924,342.293 271.484,334.072 271.484 C 325.165 271.484,322.903 272.295,320.875 276.217 C 320.471 276.998,319.996 277.344,319.326 277.344 L 318.359 277.344 318.359 289.453 L 318.359 301.563 334.180 301.563 L 350.000 301.563 350.000 283.398 L 350.000 265.234 334.180 265.234 L 318.359 265.234 318.359 269.776 M290.995 267.871 L 289.648 269.336 291.113 267.990 C 292.477 266.737,292.758 266.406,292.459 266.406 C 292.394 266.406,291.735 267.065,290.995 267.871 M152.044 271.875 C 152.044 272.627,152.124 272.935,152.222 272.559 C 152.321 272.183,152.321 271.567,152.222 271.191 C 152.124 270.815,152.044 271.123,152.044 271.875 M159.466 271.875 C 159.466 272.627,159.546 272.935,159.644 272.559 C 159.743 272.183,159.743 271.567,159.644 271.191 C 159.546 270.815,159.466 271.123,159.466 271.875 M225.163 271.721 C 225.700 271.927,225.781 273.055,225.781 280.308 L 225.781 288.657 224.844 288.892 C 224.329 289.021,223.494 289.069,222.989 288.997 L 222.070 288.867 221.965 280.497 C 221.883 274.061,221.974 272.053,222.355 271.811 C 222.947 271.436,224.305 271.392,225.163 271.721 M283.139 272.771 C 282.211 273.479,280.789 274.929,279.978 275.994 C 279.167 277.059,278.243 277.905,277.924 277.875 C 277.253 277.813,277.095 279.878,277.740 280.277 C 278.278 280.609,283.249 275.789,282.936 275.240 C 282.799 275.001,282.834 274.938,283.014 275.101 C 283.447 275.494,285.202 273.827,284.889 273.320 C 284.755 273.104,284.824 273.037,285.044 273.173 C 285.263 273.308,285.774 273.041,286.178 272.580 C 286.583 272.118,286.694 271.869,286.426 272.026 C 286.157 272.183,285.938 272.126,285.938 271.898 C 285.938 271.133,284.838 271.476,283.139 272.771 M300.585 272.202 C 300.276 272.510,300.360 273.112,300.684 272.912 C 300.845 272.812,301.006 273.110,301.042 273.572 C 301.078 274.035,301.230 274.897,301.380 275.488 C 301.652 276.557,301.643 276.563,299.632 276.563 C 298.203 276.563,297.692 276.695,297.889 277.013 C 298.065 277.299,297.996 277.358,297.699 277.175 C 297.115 276.814,296.013 277.678,296.354 278.230 C 296.492 278.453,296.433 278.530,296.222 278.400 C 295.727 278.093,290.505 283.344,290.907 283.745 C 291.074 283.913,291.035 284.014,290.820 283.971 C 290.605 283.927,290.206 283.913,289.933 283.938 C 289.237 284.003,287.261 287.232,286.481 289.580 C 285.000 294.041,283.289 295.500,279.712 295.354 L 277.539 295.265 277.610 296.949 C 277.649 297.875,277.693 299.292,277.708 300.098 L 277.734 301.563 294.238 301.563 L 310.742 301.563 310.634 288.655 C 310.537 277.014,310.467 275.805,309.923 276.350 C 308.884 277.389,307.914 277.046,306.637 275.189 C 304.908 272.677,301.695 271.091,300.585 272.202 M91.178 281.641 C 91.178 285.615,91.236 287.241,91.307 285.254 C 91.378 283.267,91.378 280.015,91.307 278.027 C 91.236 276.040,91.178 277.666,91.178 281.641 M77.098 278.906 C 77.098 281.162,77.162 282.085,77.241 280.957 C 77.320 279.829,77.320 277.983,77.241 276.855 C 77.162 275.728,77.098 276.650,77.098 278.906 M181.602 277.715 C 185.053 279.475,185.255 284.167,181.964 286.110 C 180.746 286.830,176.568 286.834,176.533 286.116 C 176.523 285.911,176.130 285.333,175.660 284.832 C 172.235 281.186,177.065 275.400,181.602 277.715 M342.773 284.375 C 342.773 295.610,342.943 295.426,332.722 295.297 C 324.383 295.192,324.629 295.206,324.844 294.858 C 325.057 294.513,323.630 293.688,323.333 293.984 C 323.072 294.245,323.058 293.991,322.805 284.661 L 322.596 276.940 332.685 277.044 L 342.773 277.148 342.773 284.375 M151.653 279.297 C 151.653 280.049,151.734 280.356,151.832 279.980 C 151.930 279.604,151.930 278.989,151.832 278.613 C 151.734 278.237,151.653 278.545,151.653 279.297 M245.063 289.453 C 245.063 291.494,245.129 292.329,245.209 291.309 C 245.289 290.288,245.289 288.618,245.209 287.598 C 245.129 286.577,245.063 287.412,245.063 289.453 M146.440 307.109 C 146.857 308.207,147.095 313.972,146.759 314.844 C 146.635 315.166,146.159 316.922,145.701 318.746 C 143.506 327.487,138.103 336.161,129.519 344.727 C 126.935 347.305,124.866 349.559,124.920 349.736 C 124.975 349.913,124.828 349.940,124.594 349.795 C 124.361 349.651,123.873 349.784,123.511 350.090 C 122.007 351.362,117.594 353.870,116.040 354.336 C 113.550 355.082,115.203 355.596,120.117 355.603 C 142.564 355.637,159.943 331.465,150.967 312.695 C 149.691 310.028,145.657 305.050,146.440 307.109 M182.030 306.934 C 182.031 307.277,182.834 307.422,184.743 307.422 C 188.450 307.422,188.629 306.735,184.964 306.574 C 182.808 306.479,182.030 306.575,182.030 306.934 M220.801 307.316 C 221.606 307.400,222.925 307.400,223.730 307.316 C 224.536 307.232,223.877 307.163,222.266 307.163 C 220.654 307.163,219.995 307.232,220.801 307.316 M215.137 307.698 C 215.620 307.791,216.411 307.791,216.895 307.698 C 217.378 307.604,216.982 307.528,216.016 307.528 C 215.049 307.528,214.653 307.604,215.137 307.698 M206.431 327.539 C 206.431 338.496,206.481 343.035,206.543 337.625 C 206.604 332.215,206.604 323.250,206.543 317.703 C 206.482 312.156,206.431 316.582,206.431 327.539 M283.678 312.207 C 283.792 315.198,284.066 317.124,284.534 318.238 L 285.222 319.873 297.321 319.830 C 311.657 319.777,310.241 320.514,310.476 312.988 L 310.637 307.813 297.073 307.813 L 283.509 307.813 283.678 312.207 M231.430 326.172 C 231.430 336.162,231.481 340.249,231.543 335.254 C 231.604 330.259,231.604 322.085,231.543 317.090 C 231.481 312.095,231.430 316.182,231.430 326.172 M181.571 310.449 L 181.412 311.523 184.358 311.328 C 187.047 311.150,187.316 311.056,187.430 310.254 C 187.549 309.410,187.439 309.375,184.642 309.375 C 181.763 309.375,181.727 309.388,181.571 310.449 M218.781 310.840 C 218.798 311.646,218.885 312.129,218.975 311.914 C 219.070 311.688,220.292 311.578,221.874 311.653 C 224.559 311.780,224.609 311.765,224.609 310.816 C 224.609 309.621,224.004 309.375,221.062 309.375 L 218.750 309.375 218.781 310.840 M318.075 310.938 C 318.075 311.904,318.151 312.300,318.244 311.816 C 318.338 311.333,318.338 310.542,318.244 310.059 C 318.151 309.575,318.075 309.971,318.075 310.938 M181.445 315.232 C 181.445 316.508,181.525 316.597,182.617 316.534 C 183.262 316.497,184.624 316.453,185.645 316.436 C 187.343 316.409,187.500 316.326,187.500 315.453 C 187.500 314.154,186.968 313.916,183.997 313.887 L 181.445 313.862 181.445 315.232 M218.750 315.783 L 218.750 316.992 221.680 316.992 C 224.789 316.992,225.857 315.929,223.835 314.847 C 221.990 313.860,218.750 314.456,218.750 315.783 M169.702 325.977 C 169.702 331.777,169.756 334.205,169.823 331.371 C 169.890 328.537,169.890 323.791,169.823 320.824 C 169.757 317.857,169.702 320.176,169.702 325.977 M177.832 316.676 C 178.208 316.774,178.823 316.774,179.199 316.676 C 179.575 316.577,179.268 316.497,178.516 316.497 C 177.764 316.497,177.456 316.577,177.832 316.676 M181.641 320.330 L 181.641 321.909 184.473 321.794 C 189.203 321.603,188.675 318.750,183.910 318.750 L 181.641 318.750 181.641 320.330 M357.168 321.875 C 357.168 323.701,357.235 324.448,357.317 323.535 C 357.400 322.622,357.400 321.128,357.317 320.215 C 357.235 319.302,357.168 320.049,357.168 321.875 M218.987 319.759 C 218.153 321.933,218.570 322.323,221.582 322.186 C 224.648 322.045,225.718 320.917,223.986 319.651 C 222.957 318.898,219.287 318.977,218.987 319.759 M248.535 319.801 C 248.911 319.899,249.526 319.899,249.902 319.801 C 250.278 319.702,249.971 319.622,249.219 319.622 C 248.467 319.622,248.159 319.702,248.535 319.801 M254.590 319.817 C 255.503 319.900,256.997 319.900,257.910 319.817 C 258.823 319.735,258.076 319.668,256.250 319.668 C 254.424 319.668,253.677 319.735,254.590 319.817 M181.641 324.647 C 181.641 324.805,181.860 325.015,182.129 325.114 C 182.520 325.257,182.520 325.396,182.129 325.811 C 181.077 326.926,181.578 327.256,184.082 327.094 C 187.244 326.890,187.500 326.779,187.500 325.598 C 187.500 325.054,187.280 324.589,187.012 324.564 C 184.845 324.363,181.641 324.413,181.641 324.647 M218.750 325.944 C 218.750 326.678,218.618 327.352,218.457 327.442 C 218.296 327.533,218.398 327.547,218.684 327.475 C 218.970 327.403,220.432 327.344,221.932 327.344 L 224.659 327.344 224.536 326.074 C 224.397 324.624,221.031 323.932,219.633 325.065 C 219.173 325.438,219.074 325.447,219.284 325.098 C 219.445 324.829,219.391 324.609,219.164 324.609 C 218.936 324.609,218.750 325.210,218.750 325.944 M162.230 327.148 C 162.233 328.438,162.306 328.918,162.392 328.216 C 162.479 327.514,162.478 326.459,162.388 325.872 C 162.299 325.285,162.228 325.859,162.230 327.148 M215.723 327.613 C 216.099 327.711,216.714 327.711,217.090 327.613 C 217.466 327.515,217.158 327.434,216.406 327.434 C 215.654 327.434,215.347 327.515,215.723 327.613 M36.453 331.641 C 36.453 333.037,36.524 333.608,36.611 332.910 C 36.697 332.212,36.697 331.069,36.611 330.371 C 36.524 329.673,36.453 330.244,36.453 331.641 M39.906 332.223 C 40.027 334.621,40.213 335.309,40.936 336.032 L 41.818 336.914 66.319 337.000 C 79.795 337.048,91.008 336.960,91.237 336.805 C 92.024 336.272,94.192 332.040,93.911 331.585 C 93.754 331.332,93.798 331.233,94.009 331.364 C 94.217 331.493,94.694 331.080,95.068 330.448 L 95.747 329.297 67.753 329.297 L 39.758 329.297 39.906 332.223 M177.832 329.566 C 178.208 329.664,178.823 329.664,179.199 329.566 C 179.575 329.468,179.268 329.388,178.516 329.388 C 177.764 329.388,177.456 329.468,177.832 329.566 M181.577 331.029 L 181.719 332.813 184.610 332.813 L 187.500 332.813 187.500 331.468 C 187.500 329.798,187.404 329.742,184.118 329.469 L 181.436 329.246 181.577 331.029 M213.437 330.236 C 213.321 330.538,213.298 331.373,213.387 332.092 C 213.533 333.289,213.552 333.262,213.609 331.764 C 213.665 330.301,213.784 330.113,214.746 329.967 L 215.820 329.805 214.734 329.746 C 214.116 329.713,213.556 329.924,213.437 330.236 M219.407 330.258 C 219.092 330.573,218.947 331.282,219.052 331.997 L 219.229 333.203 221.919 333.203 L 224.609 333.203 224.609 331.641 C 224.609 330.287,224.492 330.075,223.730 330.056 C 223.247 330.043,222.196 329.964,221.395 329.880 C 220.502 329.786,219.733 329.932,219.407 330.258 M239.323 332.682 C 238.330 333.675,239.090 340.719,240.299 341.734 C 240.979 342.306,242.271 343.430,243.169 344.233 C 244.067 345.036,244.945 345.563,245.120 345.405 C 245.295 345.247,245.331 345.305,245.201 345.534 C 245.070 345.764,245.390 346.411,245.911 346.973 C 248.554 349.824,251.610 356.128,252.700 360.977 L 253.042 362.500 249.167 362.500 L 245.292 362.500 245.888 363.652 C 246.216 364.286,246.484 365.241,246.484 365.775 L 246.484 366.744 239.941 366.868 C 225.577 367.140,162.281 366.808,156.055 366.428 C 144.398 365.716,141.689 364.986,139.804 362.047 C 139.136 361.007,138.561 360.156,138.526 360.156 C 138.490 360.156,137.234 360.488,135.734 360.893 C 123.976 364.070,109.560 363.026,103.949 358.590 C 101.488 356.645,100.471 354.940,99.447 351.040 L 98.609 347.852 68.313 347.781 L 38.017 347.711 36.196 346.695 C 35.194 346.135,34.375 345.854,34.375 346.069 C 34.375 346.284,34.082 346.348,33.725 346.210 C 33.288 346.043,33.167 346.111,33.357 346.418 C 33.635 346.866,33.429 346.949,31.836 347.030 C 31.406 347.052,31.092 347.269,31.137 347.513 C 31.182 347.756,30.943 347.932,30.606 347.903 C 30.269 347.875,29.634 348.325,29.195 348.903 C 26.976 351.828,33.956 354.928,50.586 358.405 C 100.297 368.797,196.274 372.839,272.461 367.748 C 330.628 363.862,374.519 355.619,371.097 349.224 C 370.512 348.132,368.415 346.878,367.658 347.169 C 367.231 347.333,367.152 347.249,367.383 346.875 C 367.617 346.497,367.533 346.418,367.082 346.591 C 366.738 346.723,366.396 346.648,366.321 346.425 C 366.244 346.192,365.526 346.409,364.636 346.935 C 363.050 347.872,344.924 348.622,341.944 347.874 L 340.917 347.617 341.076 343.242 C 341.163 340.836,341.176 339.244,341.103 339.705 C 340.970 340.558,338.711 341.281,338.280 340.610 C 337.476 339.361,324.865 339.032,282.129 339.145 L 239.453 339.258 239.453 336.068 C 239.453 333.881,239.607 332.816,239.941 332.681 C 240.214 332.571,240.243 332.470,240.007 332.453 C 239.774 332.436,239.466 332.539,239.323 332.682 M272.559 332.713 C 274.761 332.783,278.364 332.783,280.566 332.713 C 282.769 332.644,280.967 332.587,276.563 332.587 C 272.158 332.587,270.356 332.644,272.559 332.713 M333.105 332.714 C 335.952 332.781,340.610 332.781,343.457 332.714 C 346.304 332.647,343.975 332.592,338.281 332.592 C 332.588 332.592,330.259 332.647,333.105 332.714 M176.674 336.914 C 176.677 337.988,176.753 338.381,176.843 337.788 C 176.933 337.194,176.930 336.315,176.837 335.834 C 176.745 335.354,176.671 335.840,176.674 336.914 M181.579 336.914 L 181.719 338.672 184.610 338.672 L 187.500 338.672 187.500 337.532 C 187.500 335.328,187.264 335.156,184.233 335.156 L 181.440 335.156 181.579 336.914 M215.728 335.437 C 216.322 335.526,217.201 335.524,217.681 335.431 C 218.162 335.339,217.676 335.265,216.602 335.268 C 215.527 335.271,215.134 335.347,215.728 335.437 M213.393 337.305 C 213.396 338.379,213.472 338.772,213.562 338.178 C 213.651 337.584,213.649 336.706,213.556 336.225 C 213.464 335.745,213.390 336.230,213.393 337.305 M218.750 337.399 C 218.750 339.537,218.810 339.565,222.580 339.201 L 224.651 339.001 224.533 337.372 L 224.414 335.742 221.582 335.627 L 218.750 335.513 218.750 337.399 M127.527 341.895 L 125.195 344.336 127.637 342.004 C 128.979 340.722,130.078 339.623,130.078 339.563 C 130.078 339.274,129.693 339.627,127.527 341.895 M185.579 341.158 C 186.438 341.910,187.500 342.162,187.500 341.615 C 187.500 341.226,187.134 341.016,186.458 341.016 C 185.885 341.016,185.490 341.080,185.579 341.158 M351.074 341.306 C 352.632 341.380,355.181 341.380,356.738 341.306 C 358.296 341.232,357.021 341.171,353.906 341.171 C 350.791 341.171,349.517 341.232,351.074 341.306 M213.340 342.480 C 213.282 343.744,213.764 344.158,214.295 343.299 C 214.462 343.030,214.403 342.954,214.149 343.110 C 213.893 343.269,213.660 342.944,213.562 342.292 C 213.408 341.278,213.395 341.289,213.340 342.480 M31.641 343.091 C 31.641 343.158,32.212 343.729,32.910 344.361 L 34.180 345.508 33.032 344.238 C 31.963 343.055,31.641 342.789,31.641 343.091 M162.280 344.629 L 161.133 345.898 162.402 344.751 C 163.586 343.682,163.851 343.359,163.550 343.359 C 163.482 343.359,162.911 343.931,162.280 344.629 M108.684 345.313 C 108.684 346.064,108.765 346.372,108.863 345.996 C 108.961 345.620,108.961 345.005,108.863 344.629 C 108.765 344.253,108.684 344.561,108.684 345.313 M179.134 347.315 C 179.582 347.825,180.329 348.671,180.794 349.195 C 182.022 350.576,182.004 350.584,177.708 350.603 C 175.547 350.612,173.658 350.788,173.511 350.993 C 173.363 351.199,173.022 351.385,172.754 351.406 C 171.620 351.497,171.451 351.582,171.677 351.949 C 171.819 352.178,171.643 352.230,171.245 352.078 C 170.754 351.889,170.661 351.959,170.895 352.338 C 171.109 352.685,171.064 352.762,170.757 352.572 C 170.151 352.198,167.085 354.639,167.337 355.295 C 167.444 355.574,167.235 356.035,166.871 356.319 C 166.278 356.784,166.265 356.767,166.747 356.152 C 167.042 355.776,167.171 355.469,167.034 355.469 C 166.752 355.469,165.238 357.853,165.236 358.301 C 165.235 358.462,166.860 358.596,168.848 358.599 C 173.092 358.605,186.634 359.245,190.117 359.603 L 192.539 359.852 192.159 358.474 C 190.871 353.811,184.965 347.861,180.834 347.065 C 180.384 346.979,179.634 346.791,179.168 346.648 L 178.320 346.387 179.134 347.315 M237.109 348.950 C 237.109 349.018,237.681 349.589,238.379 350.220 L 239.648 351.367 238.501 350.098 C 237.432 348.914,237.109 348.649,237.109 348.950 M228.274 350.475 C 228.936 351.585,229.208 353.425,228.559 352.400 C 228.374 352.108,227.670 351.826,226.994 351.773 C 226.318 351.720,225.652 351.563,225.513 351.424 C 225.129 351.040,222.342 351.123,222.093 351.526 C 221.973 351.721,221.523 351.788,221.093 351.676 C 220.640 351.557,220.313 351.664,220.313 351.931 C 220.313 352.183,220.150 352.289,219.951 352.167 C 219.490 351.881,217.543 352.753,217.781 353.138 C 217.880 353.297,217.655 353.403,217.281 353.374 C 216.905 353.344,216.650 353.552,216.709 353.838 C 216.768 354.122,216.628 354.239,216.399 354.097 C 215.914 353.797,214.841 354.578,214.850 355.224 C 214.853 355.466,215.042 355.400,215.270 355.078 C 215.638 354.557,215.665 354.557,215.508 355.078 C 215.411 355.400,215.141 355.622,214.908 355.572 C 214.459 355.474,212.500 357.821,212.500 358.458 C 212.500 358.680,217.025 359.019,223.535 359.284 C 229.604 359.531,235.163 359.910,235.888 360.127 C 237.105 360.490,237.165 360.469,236.670 359.850 C 236.374 359.481,235.735 358.389,235.250 357.422 C 234.232 355.397,231.550 352.141,230.387 351.519 C 229.811 351.211,229.666 351.212,229.859 351.524 C 230.005 351.760,229.938 351.953,229.711 351.953 C 229.483 351.953,229.293 351.821,229.288 351.660 C 229.283 351.499,228.911 350.928,228.461 350.391 L 227.642 349.414 228.274 350.475 M184.473 360.837 C 185.923 360.912,188.296 360.912,189.746 360.837 C 191.196 360.761,190.010 360.700,187.109 360.700 C 184.209 360.700,183.022 360.761,184.473 360.837 M231.738 361.222 C 232.544 361.306,233.862 361.306,234.668 361.222 C 235.474 361.138,234.814 361.069,233.203 361.069 C 231.592 361.069,230.933 361.138,231.738 361.222 M215.348 361.618 C 216.807 361.694,219.093 361.693,220.426 361.617 C 221.760 361.541,220.566 361.479,217.773 361.480 C 214.980 361.481,213.889 361.543,215.348 361.618 "
            stroke="none" fill="#29a0d6" fill-rule="evenodd"></path>
    </g>
</svg>
