<?xml version="1.0" encoding="UTF-8"?>
<!DOCTYPE svg PUBLIC "-//W3C//DTD SVG 1.1//EN" "http://www.w3.org/Graphics/SVG/1.1/DTD/svg11.dtd">
<svg xmlns="http://www.w3.org/2000/svg" version="1.1" width="200px" height="200px" style="shape-rendering:geometricPrecision; text-rendering:geometricPrecision; image-rendering:optimizeQuality; fill-rule:evenodd; clip-rule:evenodd" xmlns:xlink="http://www.w3.org/1999/xlink">
<circle r="85" cx="100" cy="100" fill="#73b4c6" />
<g transform="translate(0.000000,200.000000) scale(0.100000,-0.100000)"
fill="#000000" stroke="none">
<path d="M895 1883 c-57 -7 -170 -36 -229 -60 -222 -87 -428 -304 -497 -523
-49 -159 -62 -348 -33 -487 35 -170 114 -307 260 -450 81 -80 108 -99 196
-142 138 -67 235 -92 383 -98 197 -8 350 37 532 159 84 56 118 87 169 151 148
188 214 388 201 610 -8 129 -34 232 -88 338 -55 111 -89 160 -168 243 -147
153 -319 232 -560 256 -103 10 -110 10 -166 3z m205 -78 c90 -9 227 -55 313
-106 43 -25 106 -77 157 -129 167 -169 232 -329 233 -575 1 -181 -34 -298
-134 -446 -233 -344 -668 -455 -1048 -267 -146 72 -304 246 -373 409 -83 198
-74 480 22 674 114 231 372 415 625 445 59 7 76 7 205 -5z"/>
<path d="M1285 1461 c-91 -24 -193 -110 -235 -198 -15 -32 -23 -70 -25 -113
-1 -36 -6 -78 -10 -94 -8 -28 -9 -27 -41 41 -72 151 -184 233 -319 233 -75 0
-148 -27 -169 -63 -18 -29 53 -155 124 -221 76 -70 145 -97 263 -104 75 -4 89
-7 98 -25 7 -12 10 -72 9 -156 -5 -213 -2 -248 16 -255 37 -14 41 8 47 237 3
122 11 240 17 262 l11 41 92 21 c123 30 203 71 265 136 53 56 82 126 82 194 0
30 -5 36 -36 49 -43 18 -147 26 -189 15z m163 -66 c12 -11 -20 -101 -47 -135
-40 -51 -114 -97 -192 -121 -103 -31 -112 -24 -50 43 28 31 76 73 106 92 66
44 72 53 51 74 -15 15 -19 15 -52 -3 -20 -11 -67 -48 -105 -83 -38 -35 -69
-61 -69 -57 0 18 37 75 74 113 41 43 77 67 126 83 26 9 148 4 158 -6z m-680
-151 c54 -27 100 -73 128 -126 l16 -31 -48 35 c-27 20 -72 47 -101 62 -47 24
-53 24 -68 10 -21 -21 -11 -32 72 -80 36 -22 84 -56 107 -77 l41 -38 -68 4
c-121 8 -222 78 -281 195 l-26 50 28 10 c54 20 144 14 200 -14z"/>
</g>

</svg>
