<?xml version="1.0" encoding="UTF-8"?>
<!DOCTYPE svg PUBLIC "-//W3C//DTD SVG 1.1//EN" "http://www.w3.org/Graphics/SVG/1.1/DTD/svg11.dtd">
<svg xmlns="http://www.w3.org/2000/svg" version="1.1" width="200px" height="200px" style="shape-rendering:geometricPrecision; text-rendering:geometricPrecision; image-rendering:optimizeQuality; fill-rule:evenodd; clip-rule:evenodd" xmlns:xlink="http://www.w3.org/1999/xlink">
<g><path style="opacity:1" fill="#000000" d="M 89.5,11.5 C 135.636,9.51559 167.136,29.8489 184,72.5C 193.724,107.312 186.224,137.812 161.5,164C 127.724,192.236 91.3908,195.903 52.5,175C 13.8047,146.368 2.63808,109.201 19,63.5C 33.3367,33.6534 56.8367,16.3201 89.5,11.5 Z"/></g>
<g><path style="opacity:1" fill="#73b4c6" d="M 88.5,18.5 C 127.159,16.0491 155.659,31.7158 174,65.5C 189.102,106.018 179.936,139.851 146.5,167C 116.079,185.914 85.4122,186.247 54.5,168C 20.4583,141.367 10.625,107.533 25,66.5C 38.3655,39.943 59.5321,23.943 88.5,18.5 Z"/></g>
<g><path style="opacity:1" fill="#000000" d="M 94.5,25.5 C 125.028,25.1919 139.195,40.1919 137,70.5C 133.675,71.9436 130.175,72.9436 126.5,73.5C 123.733,78.0521 119.733,80.8855 114.5,82C 109.5,82.3333 104.5,82.6667 99.5,83C 96.8664,87.4449 98.3664,89.9449 104,90.5C 110.215,88.649 116.381,86.8156 122.5,85C 114.497,96.3126 103.83,99.6459 90.5,95C 81.3459,90.1836 76.0126,82.6836 74.5,72.5C 70.7432,72.9292 67.2432,72.2625 64,70.5C 63.3333,64.8333 63.3333,59.1667 64,53.5C 68.2868,37.7115 78.4534,28.3782 94.5,25.5 Z"/></g>
<g><path style="opacity:1" fill="#73b4c6" d="M 92.5,30.5 C 106.378,28.6247 117.878,32.9581 127,43.5C 127.912,45.6585 128.745,47.8252 129.5,50C 128.725,51.2295 127.725,51.5628 126.5,51C 120.698,41.2606 112.031,36.4273 100.5,36.5C 88.688,35.9016 80.0213,40.735 74.5,51C 73.552,51.4828 72.552,51.6495 71.5,51.5C 71.8257,48.6887 72.6591,46.022 74,43.5C 78.7375,36.8979 84.9042,32.5646 92.5,30.5 Z"/></g>
<g><path style="opacity:1" fill="#000000" d="M 158.5,142.5 C 158.5,144.5 158.5,146.5 158.5,148.5C 119.833,148.5 81.1667,148.5 42.5,148.5C 42.253,138.236 43.753,128.236 47,118.5C 48.5429,116.622 50.3762,115.122 52.5,114C 65.3127,110.838 77.1461,105.672 88,98.5C 92.2956,101.292 96.4622,104.292 100.5,107.5C 104.538,104.292 108.704,101.292 113,98.5C 117.223,101.713 121.723,104.546 126.5,107C 135.153,109.242 143.486,112.242 151.5,116C 153.938,118.295 155.438,121.128 156,124.5C 157.29,130.446 158.123,136.446 158.5,142.5 Z"/></g>
<g><path style="opacity:1" fill="#73b4c6" d="M 158.5,142.5 C 159.468,144.607 159.802,146.941 159.5,149.5C 120.33,149.832 81.3298,149.499 42.5,148.5C 81.1667,148.5 119.833,148.5 158.5,148.5C 158.5,146.5 158.5,144.5 158.5,142.5 Z"/></g>
</svg>
